M48
;Layer_Color=9474304
;FILE_FORMAT=4:4
METRIC,LZ
;TYPE=PLATED
T01F00S00C0.7112
T02F00S00C0.8000
T03F00S00C1.0200
T04F00S00C1.0400
T05F00S00C1.4000
T06F00S00C1.5000
T07F00S00C1.6000
;TYPE=NON_PLATED
T08F00S00C2.4000
T09F00S00C3.2000
%
T01
X0012Y0041
X0035Y0042
X0039Y0039
X00438174Y00403343
X0046Y0041
X0048Y004
X004755Y003745
X0048Y003
X0054Y0032
X0056Y0037
X0054Y004
X0053Y0042
X0061Y004
X0064935Y0037935
X007Y0035
X0072Y0034
X0075Y0035
X0079Y0038
Y0032
X0074Y0041
X0071Y004
X0071Y0017
X0065
X0061Y0021
X006Y0024
X0053Y00161
X00509148Y00115089
X0057Y0012
X0079Y0015
X0081Y0021
X0087Y0052
X00770908Y0054
X007Y0057
X0064Y0056
X0061Y0047
X0059Y0045
X0054
X00517761Y0053
X005Y0054
X00488389Y00568389
X0052Y006
X0041Y0056
X004Y0054
X00410041Y00529959
X0044Y0052
X0064Y0043
X0073Y0046
X0035Y0044
X0029825Y0042205
X0026Y0049
X0021Y0047
X0012Y00461
X0032Y0054
X0037Y005
X0039Y0061
X0027Y006
T02
X0039Y000346
Y0006
Y000854
T03
X0059Y003246
Y0035
X0083Y003554
Y0033
Y003046
Y002792
Y002538
Y003808
Y004062
Y004316
Y00457
Y004824
X0019Y0046
Y004346
T04
X0024Y0052
Y005454
Y005708
Y005962
Y006216
T05
X00050508Y0033
Y003808
Y004316
Y004824
T06
X001546Y001214
X002054
T07
X0018Y0018
X0026Y0017
X0027Y0025
X0021
X0015
X0037Y0023
X0074Y0007
X0078Y006
X0047
X0029Y0056
X0012Y0061
T08
X00050508Y002792
Y005332
T09
X0005Y0005
X0085
Y0062
X0005
M30
