G04*
G04 #@! TF.GenerationSoftware,Altium Limited,Altium Designer,26.7.1 (11)*
G04*
G04 Layer_Physical_Order=1*
G04 Layer_Color=255*
G04 Board_Origin=0|30314961*
%FSLAX44Y44*%
%MOMM*%
G71*
G04*
G04 #@! TF.SameCoordinates,DC734799-6447-4278-95CF-02F7B206336A*
G04*
G04*
G04 #@! TF.FilePolarity,Positive*
G04*
G01*
G75*
%ADD11C,0.2000*%
%ADD15C,0.2540*%
G04:AMPARAMS|DCode=16|XSize=0.65mm|YSize=1.65mm|CornerRadius=0.0488mm|HoleSize=0mm|Usage=FLASHONLY|Rotation=270.000|XOffset=0mm|YOffset=0mm|HoleType=Round|Shape=RoundedRectangle|*
%AMROUNDEDRECTD16*
21,1,0.6500,1.5525,0,0,270.0*
21,1,0.5525,1.6500,0,0,270.0*
1,1,0.0975,-0.7763,-0.2763*
1,1,0.0975,-0.7763,0.2763*
1,1,0.0975,0.7763,0.2763*
1,1,0.0975,0.7763,-0.2763*
%
%ADD16ROUNDEDRECTD16*%
%ADD17R,0.9000X0.8000*%
%ADD18R,0.9000X1.2000*%
%ADD19R,0.9500X1.4000*%
%ADD20R,1.5000X1.5500*%
%ADD21R,1.7000X2.8000*%
%ADD22R,0.5200X0.5600*%
%ADD23R,1.3500X1.4500*%
%ADD24O,0.2500X1.5500*%
%ADD25O,1.5500X0.2500*%
%ADD26R,0.9061X1.3098*%
%ADD27R,0.9000X1.1000*%
%ADD28O,2.2000X0.6000*%
%ADD29R,1.1500X1.8000*%
%ADD30R,1.2700X1.7800*%
%ADD31R,1.0000X1.3500*%
%ADD32R,1.7500X2.6500*%
%ADD33R,1.2500X1.5500*%
%ADD34R,2.1000X5.6000*%
%ADD35R,3.1500X1.7800*%
%ADD36C,2.1500*%
%ADD37C,2.4000*%
%ADD38R,2.1500X2.1500*%
%ADD39C,2.1000*%
%ADD40C,2.2500*%
%ADD41C,1.4000*%
%ADD42C,1.5500*%
%ADD43C,1.5700*%
%ADD44R,1.5700X1.5700*%
G04:AMPARAMS|DCode=45|XSize=2.25mm|YSize=2.25mm|CornerRadius=0.5625mm|HoleSize=0mm|Usage=FLASHONLY|Rotation=0.000|XOffset=0mm|YOffset=0mm|HoleType=Round|Shape=RoundedRectangle|*
%AMROUNDEDRECTD45*
21,1,2.2500,1.1250,0,0,0.0*
21,1,1.1250,2.2500,0,0,0.0*
1,1,1.1250,0.5625,-0.5625*
1,1,1.1250,-0.5625,-0.5625*
1,1,1.1250,-0.5625,0.5625*
1,1,1.1250,0.5625,0.5625*
%
%ADD45ROUNDEDRECTD45*%
%ADD46R,1.5500X1.5500*%
%ADD47C,6.0000*%
%ADD48C,1.2700*%
%ADD49C,0.3000*%
%ADD50C,0.4000*%
G36*
X900000Y0D02*
X0D01*
Y670000D01*
X900000D01*
Y0D01*
D02*
G37*
%LPC*%
G36*
X406243Y641304D02*
X394757D01*
X393684Y641090D01*
X392775Y640483D01*
X385096Y632804D01*
X378000D01*
Y639000D01*
X363000D01*
Y621000D01*
X378000D01*
Y627196D01*
X386257D01*
X387330Y627410D01*
X388240Y628017D01*
X392074Y631852D01*
X393460Y631278D01*
Y631270D01*
X400500D01*
Y630000D01*
X401770D01*
Y621960D01*
X407540D01*
Y626986D01*
X409040Y627668D01*
X409427Y627410D01*
X410500Y627196D01*
X413750D01*
Y623250D01*
X425250D01*
Y636750D01*
X413750D01*
Y632804D01*
X411661D01*
X410804Y633661D01*
Y636743D01*
X410804Y636743D01*
X410590Y637816D01*
X409983Y638725D01*
X408225Y640483D01*
X407316Y641090D01*
X406243Y641304D01*
D02*
G37*
G36*
X450000Y662804D02*
X448927Y662590D01*
X448017Y661983D01*
X428017Y641983D01*
X427410Y641073D01*
X427196Y640000D01*
Y612919D01*
X427081Y612804D01*
X401758D01*
X401757Y612804D01*
X400684Y612590D01*
X400157Y612238D01*
X398932Y612497D01*
X398457Y612786D01*
X398284Y613431D01*
X397114Y615459D01*
X395459Y617114D01*
X394660Y617575D01*
Y619195D01*
X397425Y621960D01*
X399230D01*
Y628730D01*
X393460D01*
Y625925D01*
X389873Y622339D01*
X389266Y621429D01*
X389052Y620356D01*
Y618890D01*
X388830D01*
X386569Y618284D01*
X384541Y617114D01*
X382886Y615459D01*
X381716Y613431D01*
X381137Y611270D01*
X390000D01*
Y610000D01*
X391270D01*
Y601137D01*
X393431Y601716D01*
X395459Y602886D01*
X395696Y603124D01*
X397196Y602502D01*
Y581757D01*
X397410Y580684D01*
X398017Y579775D01*
X399775Y578017D01*
X400684Y577410D01*
X401757Y577196D01*
X401758Y577196D01*
X430839D01*
X447559Y560476D01*
X446913Y559000D01*
X446243Y559000D01*
X432500D01*
Y552804D01*
X415597D01*
X415052Y554304D01*
X416082Y555334D01*
X417082Y557066D01*
X417600Y558999D01*
Y561001D01*
X417082Y562934D01*
X416082Y564666D01*
X414666Y566082D01*
X412934Y567082D01*
X411001Y567600D01*
X408999D01*
X407066Y567082D01*
X406950Y567015D01*
X357554Y616411D01*
Y625250D01*
X357500Y625521D01*
Y639000D01*
X342500D01*
Y621000D01*
X351946D01*
Y615250D01*
X352160Y614177D01*
X352767Y613267D01*
X402985Y563050D01*
X402918Y562934D01*
X402400Y561001D01*
Y558999D01*
X402918Y557066D01*
X403918Y555334D01*
X404948Y554304D01*
X404403Y552804D01*
X354831D01*
Y558730D01*
X347761D01*
Y560000D01*
X346491D01*
Y569089D01*
X344656D01*
X342213Y571532D01*
X341303Y572140D01*
X340230Y572353D01*
X326466D01*
X326466Y572353D01*
X325393Y572140D01*
X324484Y571532D01*
X322726Y569774D01*
X322118Y568865D01*
X321905Y567792D01*
Y549454D01*
X321270Y548966D01*
Y541270D01*
X328863D01*
X328284Y543431D01*
X327114Y545459D01*
X326904Y545669D01*
X327299Y546261D01*
X327513Y547334D01*
Y552201D01*
X334054D01*
X338238Y548017D01*
X345446Y540809D01*
Y515904D01*
X320017Y490475D01*
X319410Y489566D01*
X319196Y488493D01*
Y471507D01*
X319410Y470434D01*
X320017Y469525D01*
X321775Y467767D01*
X322684Y467160D01*
X323757Y466946D01*
X323758Y466946D01*
X339743D01*
X340816Y467160D01*
X341725Y467767D01*
X343483Y469525D01*
X344090Y470434D01*
X344302Y471500D01*
X352285D01*
X358267Y465517D01*
X359177Y464910D01*
X360250Y464696D01*
X369907D01*
X370305Y464204D01*
X370840Y463196D01*
X370701Y462500D01*
X370895Y461525D01*
X371448Y460698D01*
Y459302D01*
X370895Y458475D01*
X370701Y457500D01*
X370840Y456804D01*
X370305Y455795D01*
X369907Y455304D01*
X357598D01*
X357529Y455373D01*
X356619Y455980D01*
X355546Y456194D01*
X344454D01*
X343381Y455980D01*
X342471Y455373D01*
X342402Y455304D01*
X306700D01*
X305627Y455090D01*
X304717Y454483D01*
X303819Y453584D01*
X293266D01*
X292692Y454970D01*
X300843Y463121D01*
X301561Y464196D01*
X301814Y465464D01*
Y481750D01*
X304500D01*
Y498250D01*
X297186D01*
X288468Y506968D01*
X287393Y507686D01*
X286125Y507939D01*
X256748D01*
X249000Y515686D01*
Y529000D01*
X231000D01*
Y511000D01*
X244314D01*
X253032Y502282D01*
X254107Y501564D01*
X255375Y501311D01*
X283674D01*
X283855Y501040D01*
X283054Y499540D01*
X281270D01*
Y491270D01*
X287290D01*
Y496814D01*
X288676Y497388D01*
X292500Y493564D01*
Y481750D01*
X295186D01*
Y466837D01*
X280117Y451767D01*
X279399Y450692D01*
X279146Y449424D01*
Y410576D01*
X279399Y409308D01*
X280117Y408233D01*
X286493Y401857D01*
X287568Y401139D01*
X288836Y400886D01*
X307664D01*
X308932Y401139D01*
X310007Y401857D01*
X312343Y404193D01*
X313061Y405268D01*
X313314Y406536D01*
Y429600D01*
X313061Y430868D01*
X314104Y432007D01*
X314437Y432077D01*
X354838Y391676D01*
X354264Y390290D01*
X352270D01*
Y380000D01*
Y369710D01*
X354264D01*
X354838Y368324D01*
X352727Y366214D01*
X312150D01*
X310882Y365962D01*
X309807Y365243D01*
X302814Y358250D01*
X295500D01*
Y346436D01*
X291877Y342814D01*
X286540D01*
Y348730D01*
X271960D01*
Y342814D01*
X270373D01*
X266750Y346436D01*
Y358250D01*
X254750D01*
Y346436D01*
X251127Y342814D01*
X246540D01*
Y348730D01*
X231960D01*
Y342814D01*
X230373D01*
X226750Y346436D01*
Y358250D01*
X214750D01*
Y346436D01*
X211127Y342814D01*
X206540D01*
Y348730D01*
X191960D01*
Y342814D01*
X190373D01*
X186750Y346436D01*
Y358250D01*
X174750D01*
Y341750D01*
X182064D01*
X186657Y337157D01*
X236060Y287754D01*
Y211717D01*
X236312Y210449D01*
X237031Y209374D01*
X239374Y207031D01*
X240449Y206312D01*
X241717Y206060D01*
X349374D01*
X350642Y206312D01*
X351717Y207031D01*
X364369Y219683D01*
X365465Y219051D01*
X368453Y218250D01*
X371547D01*
X374535Y219051D01*
X375631Y219683D01*
X414283Y181031D01*
X415358Y180312D01*
X416626Y180060D01*
X483454D01*
X511838Y151676D01*
X511264Y150290D01*
X509270D01*
Y141270D01*
X518040D01*
Y143514D01*
X519426Y144088D01*
X525857Y137657D01*
X526932Y136939D01*
X528200Y136686D01*
X542250D01*
Y131000D01*
X547686D01*
Y90500D01*
X547939Y89232D01*
X548657Y88157D01*
X588464Y48349D01*
X587890Y46964D01*
X544691D01*
X543658Y47653D01*
X542000Y47983D01*
X526000D01*
X524342Y47653D01*
X522936Y46714D01*
X521997Y45308D01*
X521667Y43650D01*
X521997Y41992D01*
X522936Y40586D01*
X524342Y39647D01*
X526000Y39317D01*
X530686D01*
Y35283D01*
X526000D01*
X524342Y34953D01*
X522936Y34014D01*
X521997Y32608D01*
X521667Y30950D01*
X521997Y29292D01*
X522015Y29264D01*
X521213Y27764D01*
X501873D01*
X498246Y31391D01*
X498003Y32608D01*
X497064Y34014D01*
X495658Y34953D01*
X494000Y35283D01*
X478000D01*
X476342Y34953D01*
X475309Y34264D01*
X430423D01*
X423314Y41373D01*
Y65736D01*
X475309D01*
X476342Y65047D01*
X478000Y64717D01*
X494000D01*
X495658Y65047D01*
X497064Y65986D01*
X498003Y67392D01*
X498333Y69050D01*
X498003Y70708D01*
X497064Y72114D01*
X495658Y73053D01*
X494000Y73383D01*
X478000D01*
X476342Y73053D01*
X475309Y72364D01*
X422312D01*
X421268Y73061D01*
X420000Y73314D01*
X406773D01*
X397726Y82360D01*
X398250Y84314D01*
Y86486D01*
X397726Y88440D01*
X422343Y113057D01*
X423061Y114132D01*
X423314Y115400D01*
Y128244D01*
X423750Y129686D01*
X435928D01*
X440457Y125157D01*
X441532Y124439D01*
X442800Y124186D01*
X457400D01*
X458668Y124439D01*
X459743Y125157D01*
X471273Y136686D01*
X481250D01*
Y131000D01*
X497960D01*
Y129710D01*
X506344D01*
Y123541D01*
X505717Y123373D01*
X503689Y122203D01*
X502034Y120548D01*
X500864Y118520D01*
X500285Y116359D01*
X518011D01*
X517432Y118520D01*
X516262Y120548D01*
X514607Y122203D01*
X512579Y123373D01*
X511952Y123541D01*
Y129710D01*
X518040D01*
Y138730D01*
X508000D01*
Y140000D01*
X506730D01*
Y150290D01*
X497960D01*
Y149000D01*
X481250D01*
Y143314D01*
X469900D01*
X468632Y143061D01*
X467557Y142343D01*
X459676Y134462D01*
X458290Y135036D01*
Y138730D01*
X450000D01*
X441710D01*
Y135236D01*
X440324Y134662D01*
X439643Y135343D01*
X438568Y136061D01*
X437300Y136314D01*
X427000D01*
Y150250D01*
X413000D01*
Y129750D01*
X416686D01*
Y116773D01*
X393040Y93126D01*
X391086Y93650D01*
X388914D01*
X386816Y93088D01*
X384934Y92002D01*
X383398Y90466D01*
X382312Y88584D01*
X381750Y86486D01*
Y84314D01*
X382312Y82216D01*
X383398Y80334D01*
X384934Y78798D01*
X386816Y77712D01*
X388914Y77150D01*
X391086D01*
X393040Y77674D01*
X403057Y67657D01*
X404132Y66939D01*
X405400Y66686D01*
X416686D01*
Y40000D01*
X416939Y38732D01*
X417657Y37657D01*
X426707Y28607D01*
X427782Y27889D01*
X429050Y27636D01*
X475309D01*
X476342Y26947D01*
X478000Y26617D01*
X493647D01*
X498157Y22107D01*
X499232Y21389D01*
X500500Y21136D01*
X694450D01*
X695718Y21389D01*
X696793Y22107D01*
X734369Y59683D01*
X735465Y59051D01*
X738453Y58250D01*
X741547D01*
X744535Y59051D01*
X747215Y60598D01*
X749402Y62785D01*
X750949Y65465D01*
X751750Y68453D01*
Y71547D01*
X750949Y74535D01*
X750317Y75631D01*
X792343Y117657D01*
X793061Y118732D01*
X793314Y120000D01*
Y143137D01*
X794667Y143919D01*
X796081Y145333D01*
X797082Y147066D01*
X797600Y148999D01*
Y151001D01*
X797082Y152934D01*
X796081Y154667D01*
X794667Y156081D01*
X792934Y157082D01*
X791001Y157600D01*
X788999D01*
X787066Y157082D01*
X785333Y156081D01*
X783919Y154667D01*
X782918Y152934D01*
X782400Y151001D01*
Y148999D01*
X782918Y147066D01*
X783919Y145333D01*
X785333Y143919D01*
X786686Y143137D01*
Y121373D01*
X745631Y80317D01*
X744535Y80949D01*
X741547Y81750D01*
X738453D01*
X735465Y80949D01*
X732785Y79402D01*
X730598Y77215D01*
X729051Y74535D01*
X728250Y71547D01*
Y68453D01*
X729051Y65465D01*
X729683Y64369D01*
X693077Y27764D01*
X546786D01*
X545985Y29264D01*
X546003Y29292D01*
X546333Y30950D01*
X546003Y32608D01*
X545064Y34014D01*
X543658Y34953D01*
X542000Y35283D01*
X537314D01*
Y39317D01*
X542000D01*
X543658Y39647D01*
X544691Y40336D01*
X592500D01*
Y31000D01*
X607500D01*
Y49000D01*
X597186D01*
X554314Y91873D01*
Y131000D01*
X558960D01*
Y129710D01*
X565666D01*
X565778Y129521D01*
X565253Y127525D01*
X564541Y127114D01*
X562886Y125459D01*
X561716Y123431D01*
X561137Y121270D01*
X578863D01*
X578284Y123431D01*
X577114Y125459D01*
X575459Y127114D01*
X574747Y127525D01*
X574222Y129521D01*
X574334Y129710D01*
X579040D01*
Y138730D01*
X569000D01*
Y141270D01*
X579040D01*
Y147936D01*
X581827D01*
X621628Y108136D01*
X621054Y106750D01*
X613750D01*
Y93250D01*
X617696D01*
Y49000D01*
X613000D01*
Y31000D01*
X628000D01*
Y49000D01*
X623304D01*
Y93250D01*
X625250D01*
Y102554D01*
X626636Y103128D01*
X668225Y61539D01*
X669300Y60820D01*
X670568Y60568D01*
X673882D01*
X675150Y60820D01*
X676225Y61539D01*
X812343Y197657D01*
X813061Y198732D01*
X813314Y200000D01*
Y203137D01*
X814667Y203918D01*
X816081Y205333D01*
X817082Y207066D01*
X817600Y209000D01*
Y211001D01*
X817082Y212934D01*
X816081Y214667D01*
X814667Y216082D01*
X812934Y217082D01*
X811001Y217600D01*
X808999D01*
X807066Y217082D01*
X805333Y216082D01*
X803919Y214667D01*
X802918Y212934D01*
X802400Y211001D01*
Y209000D01*
X802918Y207066D01*
X803919Y205333D01*
X805333Y203918D01*
X806686Y203137D01*
Y201373D01*
X672509Y67195D01*
X671941D01*
X585543Y153593D01*
X584468Y154311D01*
X583200Y154564D01*
X560050D01*
X558782Y154311D01*
X557707Y153593D01*
X555657Y151543D01*
X554939Y150468D01*
X554686Y149200D01*
Y149000D01*
X546936D01*
X537248Y158688D01*
X537600Y160000D01*
Y162001D01*
X537082Y163934D01*
X536082Y165667D01*
X534666Y167082D01*
X532934Y168082D01*
X531001Y168600D01*
X528999D01*
X527066Y168082D01*
X525334Y167082D01*
X523918Y165667D01*
X522918Y163934D01*
X522400Y162001D01*
Y160000D01*
X522918Y158067D01*
X523918Y156334D01*
X525334Y154918D01*
X527066Y153918D01*
X528999Y153400D01*
X531001D01*
X532707Y153857D01*
X541750Y144814D01*
X541129Y143314D01*
X529572D01*
X487169Y185717D01*
X486094Y186435D01*
X484826Y186687D01*
X417999D01*
X380317Y224369D01*
X380949Y225465D01*
X381750Y228453D01*
Y231547D01*
X380949Y234535D01*
X379402Y237215D01*
X377215Y239402D01*
X374535Y240949D01*
X371547Y241750D01*
X368453D01*
X365465Y240949D01*
X362785Y239402D01*
X360598Y237215D01*
X359051Y234535D01*
X358250Y231547D01*
Y228453D01*
X359051Y225465D01*
X359683Y224369D01*
X348001Y212687D01*
X243089D01*
X242687Y213089D01*
Y289126D01*
X242435Y290394D01*
X241717Y291469D01*
X198386Y334800D01*
X198960Y336186D01*
X212500D01*
X213768Y336439D01*
X214843Y337157D01*
X219436Y341750D01*
X222064D01*
X226657Y337157D01*
X227732Y336439D01*
X229000Y336186D01*
X252500D01*
X253768Y336439D01*
X254843Y337157D01*
X259436Y341750D01*
X262064D01*
X266657Y337157D01*
X267732Y336439D01*
X269000Y336186D01*
X293250D01*
X294518Y336439D01*
X295593Y337157D01*
X300186Y341750D01*
X307500D01*
Y353564D01*
X311324Y357388D01*
X312710Y356814D01*
Y351270D01*
X327290D01*
Y359540D01*
X328771Y359586D01*
X354100D01*
X355368Y359839D01*
X356443Y360557D01*
X365843Y369957D01*
X366540Y371000D01*
X377750D01*
Y389000D01*
X372314D01*
Y425377D01*
X376123Y429186D01*
X381821D01*
X383078Y429436D01*
X386961D01*
X388218Y429186D01*
X389789D01*
X389995Y428928D01*
X390453Y427686D01*
X390145Y427225D01*
X389951Y426250D01*
Y420885D01*
X389910Y420823D01*
X389696Y419750D01*
Y397600D01*
X388999D01*
X387066Y397082D01*
X385334Y396082D01*
X383918Y394666D01*
X382918Y392934D01*
X382400Y391001D01*
Y388999D01*
X382918Y387066D01*
X383918Y385334D01*
X385334Y383918D01*
X387066Y382918D01*
X388999Y382400D01*
X391001D01*
X392934Y382918D01*
X394666Y383918D01*
X396082Y385334D01*
X397082Y387066D01*
X397600Y388999D01*
Y391001D01*
X397082Y392934D01*
X396082Y394666D01*
X395304Y395444D01*
Y409907D01*
X395796Y410305D01*
X396804Y410840D01*
X397500Y410701D01*
X398475Y410895D01*
X399302Y411448D01*
X400698D01*
X401525Y410895D01*
X402500Y410701D01*
X403475Y410895D01*
X404302Y411448D01*
X405698D01*
X406525Y410895D01*
X407500Y410701D01*
X408475Y410895D01*
X409302Y411448D01*
X410698D01*
X411525Y410895D01*
X412500Y410701D01*
X413475Y410895D01*
X414302Y411448D01*
X415698D01*
X416525Y410895D01*
X417500Y410701D01*
X418475Y410895D01*
X419302Y411448D01*
X420698D01*
X421525Y410895D01*
X421799Y410234D01*
X421734Y410137D01*
X421520Y409064D01*
Y397606D01*
X421734Y396533D01*
X422342Y395623D01*
X446285Y371680D01*
X445711Y370294D01*
X403114D01*
X402236Y370120D01*
X401492Y369622D01*
X392878Y361008D01*
X392380Y360264D01*
X392206Y359386D01*
Y346932D01*
X388378Y343104D01*
X387881Y342360D01*
X387706Y341482D01*
Y327850D01*
X386150D01*
Y324152D01*
X385987Y324119D01*
X385242Y323622D01*
X383278Y321658D01*
X382781Y320913D01*
X382606Y320036D01*
Y312365D01*
X382781Y311487D01*
X383278Y310742D01*
X404710Y289310D01*
X405454Y288813D01*
X406332Y288638D01*
X408117D01*
X428250Y268506D01*
Y213250D01*
X451750D01*
Y271750D01*
X431494D01*
X410690Y292554D01*
X409946Y293052D01*
X409068Y293226D01*
X407282D01*
X391035Y309474D01*
X391609Y310860D01*
X395140D01*
Y314930D01*
X390000D01*
Y317470D01*
X395140D01*
Y321540D01*
X393850D01*
Y327850D01*
X392294D01*
Y340532D01*
X396122Y344360D01*
X396619Y345104D01*
X396794Y345982D01*
Y358436D01*
X404064Y365706D01*
X428250D01*
Y308250D01*
X451750D01*
Y334696D01*
X475682D01*
X476361Y334017D01*
X477270Y333410D01*
X478343Y333196D01*
X480439D01*
X486150Y327485D01*
Y325340D01*
X484860D01*
Y321270D01*
X490000D01*
X495140D01*
Y325340D01*
X493850D01*
Y327485D01*
X497961Y331596D01*
X510000D01*
X511073Y331810D01*
X511983Y332417D01*
X512590Y333327D01*
X512804Y334400D01*
Y447635D01*
X514190Y448209D01*
X519435Y442963D01*
Y426623D01*
X518667Y425855D01*
X518060Y424946D01*
X517846Y423873D01*
Y416127D01*
X518060Y415054D01*
X518667Y414145D01*
X519435Y413377D01*
Y357799D01*
X516459D01*
Y342201D01*
X519435D01*
Y286661D01*
X519649Y285588D01*
X519700Y285511D01*
Y268900D01*
X524496D01*
Y251100D01*
X519700D01*
Y230800D01*
X531879D01*
X532150Y230746D01*
X539446D01*
X543125Y227067D01*
X544034Y226460D01*
X545107Y226246D01*
X559131D01*
X566710Y218667D01*
X567620Y218060D01*
X568693Y217846D01*
X583873D01*
X584946Y218060D01*
X585855Y218667D01*
X591333Y224144D01*
X591333Y224144D01*
X591940Y225054D01*
X592154Y226127D01*
X592154Y226127D01*
Y233152D01*
X593654Y233774D01*
X594541Y232886D01*
X596569Y231716D01*
X598730Y231137D01*
Y240000D01*
X600000D01*
Y241270D01*
X608863D01*
X608284Y243431D01*
X607114Y245459D01*
X605459Y247114D01*
X603431Y248284D01*
X602804Y248452D01*
Y250460D01*
X608040D01*
Y256370D01*
X608428Y256723D01*
X609540Y257339D01*
X610257Y257196D01*
X610257Y257196D01*
X613250D01*
Y251750D01*
X625250D01*
Y268250D01*
X613250D01*
Y262804D01*
X611419D01*
X611304Y262919D01*
Y268242D01*
X611304Y268243D01*
X611090Y269316D01*
X610483Y270225D01*
X608725Y271983D01*
X607816Y272590D01*
X606743Y272804D01*
X594757D01*
X594757Y272804D01*
X593684Y272590D01*
X592775Y271983D01*
X592775Y271983D01*
X587367Y266575D01*
X586760Y265666D01*
X586546Y264593D01*
Y227288D01*
X582711Y223454D01*
X569854D01*
X562275Y231033D01*
X561590Y231490D01*
Y239680D01*
X543810D01*
Y236201D01*
X542310Y235720D01*
X541680Y236140D01*
X540607Y236354D01*
X534900D01*
Y251100D01*
X530104D01*
Y268900D01*
X534900D01*
Y289200D01*
X525043D01*
Y342201D01*
X528019D01*
Y357799D01*
X525043D01*
Y411376D01*
X526543Y412242D01*
X527196Y411865D01*
Y396777D01*
X527410Y395704D01*
X528017Y394795D01*
X544795Y378017D01*
X545704Y377410D01*
X546777Y377196D01*
X554403D01*
X554948Y375696D01*
X553918Y374666D01*
X552918Y372934D01*
X552400Y371001D01*
Y368999D01*
X552918Y367066D01*
X553918Y365334D01*
X555334Y363918D01*
X557066Y362918D01*
X557196Y362883D01*
Y334657D01*
X557410Y333584D01*
X558017Y332675D01*
X611796Y278896D01*
X612706Y278288D01*
X613779Y278075D01*
X618960D01*
X652000Y245035D01*
Y231000D01*
X667000D01*
Y249000D01*
X655965D01*
X622104Y282861D01*
X621194Y283469D01*
X620121Y283683D01*
X614940D01*
X584509Y314114D01*
X585083Y315500D01*
X599100D01*
Y333700D01*
X580900D01*
Y319683D01*
X579514Y319109D01*
X562804Y335819D01*
Y362883D01*
X562934Y362918D01*
X564666Y363918D01*
X566082Y365334D01*
X567082Y367066D01*
X567600Y368999D01*
Y371001D01*
X567082Y372934D01*
X566082Y374666D01*
X565052Y375696D01*
X565597Y377196D01*
X574220D01*
Y372201D01*
X577196D01*
Y360000D01*
X577410Y358927D01*
X578017Y358017D01*
X581887Y354148D01*
X581520Y353512D01*
X580900Y351198D01*
Y348802D01*
X581520Y346488D01*
X582718Y344412D01*
X584412Y342718D01*
X586488Y341520D01*
X588802Y340900D01*
X591198D01*
X593512Y341520D01*
X595588Y342718D01*
X597282Y344412D01*
X598480Y346488D01*
X599100Y348802D01*
Y351198D01*
X598480Y353512D01*
X597282Y355588D01*
X595588Y357282D01*
X593512Y358480D01*
X591198Y359100D01*
X588802D01*
X586488Y358480D01*
X585852Y358113D01*
X582804Y361161D01*
Y372201D01*
X585189D01*
X585401Y371135D01*
X586009Y370226D01*
X607196Y349038D01*
Y335625D01*
X607410Y334552D01*
X608017Y333642D01*
X697392Y244267D01*
X698302Y243660D01*
X699375Y243446D01*
X712250D01*
Y231000D01*
X727250D01*
Y249000D01*
X715271D01*
X715000Y249054D01*
X700536D01*
X612804Y336786D01*
Y350200D01*
X612804Y350200D01*
X612590Y351273D01*
X611983Y352182D01*
X594640Y369525D01*
X595214Y370911D01*
X602592D01*
Y378730D01*
X595522D01*
Y380000D01*
X594252D01*
Y389089D01*
X590795D01*
Y398242D01*
X590795Y398243D01*
X590582Y399316D01*
X589974Y400225D01*
X588217Y401983D01*
X587307Y402590D01*
X586234Y402804D01*
X547117D01*
X547082Y402934D01*
X546082Y404666D01*
X544666Y406082D01*
X542934Y407082D01*
X541001Y407600D01*
X538999D01*
X537066Y407082D01*
X535334Y406082D01*
X534304Y405052D01*
X532804Y405597D01*
Y412883D01*
X532934Y412918D01*
X534666Y413918D01*
X536082Y415334D01*
X537082Y417066D01*
X537600Y418999D01*
Y421001D01*
X537082Y422934D01*
X536082Y424666D01*
X534666Y426082D01*
X532934Y427082D01*
X531001Y427600D01*
X528999D01*
X527066Y427082D01*
X526543Y426780D01*
X525043Y427646D01*
Y444125D01*
X524830Y445198D01*
X524497Y445696D01*
X525087Y447196D01*
X532883D01*
X532918Y447066D01*
X533918Y445334D01*
X535334Y443918D01*
X537066Y442918D01*
X538999Y442400D01*
X541001D01*
X542934Y442918D01*
X544666Y443918D01*
X546082Y445334D01*
X547082Y447066D01*
X547600Y448999D01*
Y451001D01*
X547082Y452934D01*
X546082Y454666D01*
X544666Y456082D01*
X542934Y457082D01*
X541001Y457600D01*
X538999D01*
X537066Y457082D01*
X535334Y456082D01*
X533918Y454666D01*
X532918Y452934D01*
X532883Y452804D01*
X517525D01*
X505847Y464483D01*
X504937Y465090D01*
X503864Y465304D01*
X471507D01*
X470871Y466230D01*
X460250D01*
Y468770D01*
X470362D01*
X470320Y468979D01*
X469482Y470232D01*
X469343Y470325D01*
X469105Y471525D01*
X469299Y472500D01*
X469160Y473196D01*
X469695Y474204D01*
X470093Y474696D01*
X504975D01*
X516153Y463517D01*
X517063Y462910D01*
X518136Y462696D01*
X552118D01*
X556547Y458267D01*
X557457Y457660D01*
X558530Y457446D01*
X558530Y457446D01*
X562225D01*
X581003Y438667D01*
X581913Y438060D01*
X582986Y437846D01*
X603873D01*
X604946Y438060D01*
X605855Y438667D01*
X609884Y442696D01*
X611864D01*
X612937Y442910D01*
X613847Y443517D01*
X647525Y477196D01*
X658698D01*
Y472201D01*
X670259D01*
Y483834D01*
X672720Y486295D01*
X674220Y485673D01*
Y472201D01*
X682759D01*
X683030Y472147D01*
X687895D01*
X716102Y443940D01*
X715528Y442554D01*
X713757D01*
X713757Y442554D01*
X712684Y442340D01*
X711775Y441733D01*
X709646Y439604D01*
X709038Y438694D01*
X708825Y437621D01*
Y433290D01*
X708339Y432804D01*
X706250D01*
Y438000D01*
X693750D01*
Y432804D01*
X691661D01*
X690334Y434131D01*
Y437791D01*
X690334Y437792D01*
X690121Y438865D01*
X689513Y439774D01*
X687756Y441532D01*
X686846Y442140D01*
X685773Y442353D01*
X672009D01*
X670936Y442140D01*
X670026Y441532D01*
X666293Y437799D01*
X658698D01*
Y432804D01*
X647117D01*
X647082Y432934D01*
X646081Y434666D01*
X644667Y436082D01*
X642934Y437082D01*
X641001Y437600D01*
X638999D01*
X637066Y437082D01*
X635334Y436082D01*
X633918Y434666D01*
X632918Y432934D01*
X632400Y431001D01*
Y428999D01*
X632918Y427066D01*
X633918Y425334D01*
X635334Y423918D01*
X637066Y422918D01*
X638999Y422400D01*
X641001D01*
X642934Y422918D01*
X644667Y423918D01*
X646081Y425334D01*
X647082Y427066D01*
X647117Y427196D01*
X658698D01*
Y422201D01*
X670259D01*
Y433834D01*
X672720Y436295D01*
X674220Y435673D01*
Y422201D01*
X681815D01*
X702530Y401486D01*
X702400Y401001D01*
Y398999D01*
X702918Y397066D01*
X703919Y395334D01*
X705333Y393918D01*
X707066Y392918D01*
X708999Y392400D01*
X711001D01*
X712934Y392918D01*
X714667Y393918D01*
X716081Y395334D01*
X717082Y397066D01*
X717600Y398999D01*
Y401001D01*
X717082Y402934D01*
X716081Y404666D01*
X714667Y406082D01*
X712934Y407082D01*
X711001Y407600D01*
X708999D01*
X707066Y407082D01*
X705670Y406276D01*
X685780Y426166D01*
Y428795D01*
X687166Y429369D01*
X688517Y428017D01*
X689427Y427410D01*
X690500Y427196D01*
X690500Y427196D01*
X693750D01*
Y422000D01*
X706250D01*
Y427196D01*
X709500D01*
X710573Y427410D01*
X710960Y427668D01*
X712460Y426986D01*
Y420710D01*
X718730D01*
Y430000D01*
X720000D01*
Y431270D01*
X727540D01*
Y432528D01*
X728926Y433102D01*
X734010Y428017D01*
X734920Y427410D01*
X735993Y427196D01*
X744750D01*
Y421750D01*
X756750D01*
Y438250D01*
X744750D01*
Y432804D01*
X737154D01*
X729898Y440060D01*
X730472Y441446D01*
X774395D01*
X774667Y441040D01*
X773865Y439540D01*
X770520D01*
Y431270D01*
X776540D01*
Y438229D01*
X778040Y438851D01*
X823523Y393367D01*
X824433Y392760D01*
X825506Y392546D01*
X829633D01*
X830779Y391400D01*
X830157Y389900D01*
X828802D01*
X826488Y389280D01*
X824413Y388082D01*
X822718Y386387D01*
X821520Y384313D01*
X820900Y381998D01*
Y379602D01*
X821520Y377287D01*
X821887Y376652D01*
X808039Y362804D01*
X776540D01*
Y367196D01*
X780000D01*
X781073Y367410D01*
X781983Y368017D01*
X786006Y372041D01*
X786569Y371716D01*
X788730Y371137D01*
Y378730D01*
X781137D01*
X781716Y376569D01*
X782041Y376006D01*
X778839Y372804D01*
X776540D01*
Y379540D01*
X770520D01*
Y370000D01*
X769250D01*
Y368730D01*
X761960D01*
Y362804D01*
X756750D01*
Y378250D01*
X744750D01*
Y372804D01*
X737154D01*
X735304Y374654D01*
Y379857D01*
X735090Y380930D01*
X734483Y381839D01*
X730089Y386233D01*
X729180Y386840D01*
X728107Y387054D01*
X711893D01*
X710820Y386840D01*
X709911Y386233D01*
X705517Y381839D01*
X704910Y380930D01*
X704834Y380549D01*
X702285Y378000D01*
X693750D01*
Y372804D01*
X691661D01*
X688095Y376370D01*
Y377791D01*
X688095Y377792D01*
X687882Y378865D01*
X687274Y379774D01*
X685516Y381532D01*
X684607Y382140D01*
X683534Y382353D01*
X669770D01*
X668697Y382140D01*
X667787Y381532D01*
X664054Y377799D01*
X660424D01*
X658747Y379477D01*
X657837Y380084D01*
X656950Y380261D01*
Y380350D01*
X656432Y382284D01*
X655432Y384016D01*
X654016Y385432D01*
X652283Y386432D01*
X650350Y386950D01*
X648349D01*
X646416Y386432D01*
X644684Y385432D01*
X643269Y384016D01*
X642268Y382284D01*
X641750Y380350D01*
Y378349D01*
X642268Y376417D01*
X643269Y374683D01*
X644684Y373269D01*
X646416Y372268D01*
X648349Y371750D01*
X650350D01*
X652283Y372268D01*
X654016Y373269D01*
X655226Y374478D01*
X656459Y373590D01*
Y362201D01*
X668019D01*
Y373834D01*
X670480Y376295D01*
X671981Y375673D01*
Y362201D01*
X679576D01*
X683509Y358267D01*
X684419Y357660D01*
X685492Y357446D01*
X692752D01*
X693374Y355946D01*
X692886Y355459D01*
X691716Y353431D01*
X691137Y351270D01*
X708863D01*
X708595Y352273D01*
X715696Y359374D01*
X717196Y358753D01*
Y348452D01*
X716569Y348284D01*
X714541Y347114D01*
X712886Y345459D01*
X711716Y343431D01*
X711137Y341270D01*
X728863D01*
X728284Y343431D01*
X727114Y345459D01*
X725459Y347114D01*
X723431Y348284D01*
X722804Y348452D01*
Y360710D01*
X727540D01*
Y366164D01*
X728926Y366738D01*
X737646Y358017D01*
X738556Y357410D01*
X739629Y357196D01*
X744403D01*
X744948Y355696D01*
X743919Y354666D01*
X742918Y352934D01*
X742400Y351001D01*
Y348999D01*
X742918Y347066D01*
X743919Y345334D01*
X745333Y343918D01*
X747066Y342918D01*
X748999Y342400D01*
X751001D01*
X752934Y342918D01*
X754667Y343918D01*
X756081Y345334D01*
X757082Y347066D01*
X757600Y348999D01*
Y351001D01*
X757598Y351008D01*
X759186Y352596D01*
X821330D01*
X821520Y351888D01*
X822718Y349813D01*
X824413Y348118D01*
X826488Y346920D01*
X828802Y346300D01*
X831198D01*
X833512Y346920D01*
X835587Y348118D01*
X836546Y349077D01*
X838046Y348456D01*
Y342011D01*
X834148Y338113D01*
X833512Y338480D01*
X831198Y339100D01*
X828802D01*
X826488Y338480D01*
X824413Y337282D01*
X822718Y335588D01*
X821520Y333512D01*
X820900Y331198D01*
Y328802D01*
X821520Y326488D01*
X822718Y324412D01*
X824413Y322718D01*
X826488Y321520D01*
X828802Y320900D01*
X830157D01*
X830779Y319400D01*
X829633Y318254D01*
X825506D01*
X824433Y318040D01*
X823523Y317433D01*
X808894Y302804D01*
X776540D01*
Y307196D01*
X780000D01*
X781073Y307409D01*
X781983Y308017D01*
X786006Y312041D01*
X786569Y311716D01*
X788730Y311137D01*
Y318730D01*
X781137D01*
X781716Y316569D01*
X782041Y316006D01*
X778839Y312804D01*
X776540D01*
Y319540D01*
X770520D01*
Y310000D01*
X769250D01*
Y308730D01*
X761960D01*
Y302804D01*
X756750D01*
Y318250D01*
X744750D01*
Y312804D01*
X735993D01*
X734920Y312590D01*
X734010Y311983D01*
X728926Y306898D01*
X727540Y307472D01*
Y308730D01*
X720000D01*
Y311270D01*
X727540D01*
Y319290D01*
X722804D01*
Y331548D01*
X723431Y331716D01*
X725459Y332886D01*
X727114Y334541D01*
X728284Y336569D01*
X728863Y338730D01*
X711137D01*
X711716Y336569D01*
X712886Y334541D01*
X714541Y332886D01*
X716569Y331716D01*
X717196Y331548D01*
Y319290D01*
X712460D01*
Y313014D01*
X710960Y312332D01*
X710573Y312590D01*
X709500Y312804D01*
X706250D01*
Y318000D01*
X693750D01*
Y312804D01*
X691661D01*
X685653Y318813D01*
X685642Y318865D01*
X685035Y319774D01*
X683277Y321532D01*
X682367Y322140D01*
X681294Y322353D01*
X667530D01*
X666457Y322140D01*
X665548Y321532D01*
X661815Y317799D01*
X654220D01*
Y302201D01*
X661815D01*
X675999Y288017D01*
X676908Y287410D01*
X677981Y287196D01*
X747081D01*
X853775Y180503D01*
X854684Y179895D01*
X855757Y179681D01*
X858243D01*
X859316Y179895D01*
X860225Y180503D01*
X871983Y192260D01*
X872590Y193170D01*
X872804Y194243D01*
Y512883D01*
X872934Y512918D01*
X874667Y513918D01*
X876081Y515334D01*
X877082Y517066D01*
X877600Y518999D01*
Y521001D01*
X877082Y522934D01*
X876081Y524666D01*
X874667Y526082D01*
X872934Y527082D01*
X871001Y527600D01*
X868999D01*
X867066Y527082D01*
X865333Y526082D01*
X863919Y524666D01*
X862918Y522934D01*
X862400Y521001D01*
Y518999D01*
X862918Y517066D01*
X863919Y515334D01*
X865333Y513918D01*
X867066Y512918D01*
X867196Y512883D01*
Y195404D01*
X857081Y185289D01*
X856919D01*
X750225Y291983D01*
X749316Y292590D01*
X748243Y292804D01*
X731247D01*
X730626Y294304D01*
X733518Y297196D01*
X810056D01*
X811129Y297409D01*
X812038Y298017D01*
X818224Y304203D01*
X819610Y303629D01*
Y303232D01*
X820318Y300590D01*
X821686Y298220D01*
X823620Y296286D01*
X825990Y294918D01*
X828632Y294210D01*
X828730D01*
Y304600D01*
X830000D01*
Y305870D01*
X840390D01*
Y305968D01*
X839682Y308610D01*
X838314Y310980D01*
X836380Y312914D01*
X835090Y313659D01*
X834843Y315533D01*
X842833Y323523D01*
X843440Y324433D01*
X843654Y325506D01*
Y333325D01*
X847333Y337003D01*
X847940Y337913D01*
X848154Y338986D01*
Y387364D01*
X847940Y388437D01*
X847333Y389347D01*
X843654Y393025D01*
Y395350D01*
X843654Y395350D01*
X843440Y396423D01*
X842833Y397333D01*
X842833Y397333D01*
X838113Y402052D01*
X838480Y402687D01*
X839100Y405002D01*
Y407398D01*
X838480Y409712D01*
X837282Y411787D01*
X835587Y413482D01*
X833512Y414680D01*
X831198Y415300D01*
X828802D01*
X826488Y414680D01*
X824413Y413482D01*
X822718Y411787D01*
X821520Y409712D01*
X820900Y407398D01*
Y406042D01*
X819400Y405421D01*
X778588Y446233D01*
X777679Y446840D01*
X776606Y447054D01*
X720919D01*
X697358Y470614D01*
X697933Y472000D01*
X706250D01*
Y477196D01*
X709500D01*
X710573Y477410D01*
X710960Y477668D01*
X712460Y476986D01*
Y470710D01*
X717196D01*
Y470000D01*
X717410Y468927D01*
X718017Y468017D01*
X722041Y463994D01*
X721716Y463431D01*
X721137Y461270D01*
X728730D01*
Y468863D01*
X726569Y468284D01*
X726006Y467959D01*
X724641Y469324D01*
X725215Y470710D01*
X727540D01*
Y478730D01*
X720000D01*
Y481270D01*
X727540D01*
Y482528D01*
X728926Y483102D01*
X734010Y478017D01*
X734920Y477410D01*
X735993Y477196D01*
X745500D01*
Y471750D01*
X757500D01*
Y488250D01*
X745500D01*
Y482804D01*
X737154D01*
X729898Y490060D01*
X730472Y491446D01*
X791589D01*
X821887Y461148D01*
X821520Y460513D01*
X820900Y458198D01*
Y455802D01*
X821520Y453488D01*
X822718Y451413D01*
X824413Y449718D01*
X826299Y448629D01*
X826573Y447872D01*
X826701Y446910D01*
X825723Y445933D01*
X825115Y445023D01*
X824902Y443950D01*
Y439164D01*
X824413Y438882D01*
X822718Y437188D01*
X821520Y435112D01*
X820900Y432798D01*
Y430402D01*
X821520Y428088D01*
X822718Y426012D01*
X824413Y424318D01*
X826488Y423120D01*
X828802Y422500D01*
X831198D01*
X833512Y423120D01*
X835587Y424318D01*
X837282Y426012D01*
X838480Y428088D01*
X839100Y430402D01*
Y432798D01*
X838480Y435112D01*
X837282Y437188D01*
X835587Y438882D01*
X833512Y440080D01*
X831198Y440700D01*
X830510D01*
Y442789D01*
X831067Y443346D01*
X834494D01*
X835567Y443560D01*
X836477Y444167D01*
X842833Y450523D01*
X843440Y451433D01*
X843654Y452506D01*
Y461494D01*
X843440Y462567D01*
X842833Y463477D01*
X833851Y472458D01*
X833792Y472716D01*
X834145Y474286D01*
X835587Y475118D01*
X837282Y476813D01*
X838480Y478887D01*
X839100Y481202D01*
Y483598D01*
X838480Y485913D01*
X838113Y486548D01*
X851983Y500417D01*
X852590Y501327D01*
X852804Y502400D01*
X852804Y502400D01*
Y538839D01*
X891983Y578017D01*
X892590Y578927D01*
X892804Y580000D01*
Y651463D01*
X895983Y654642D01*
X896590Y655552D01*
X896804Y656625D01*
Y660000D01*
X896590Y661073D01*
X895983Y661983D01*
X895073Y662590D01*
X894000Y662804D01*
X450000D01*
X450000Y662804D01*
D02*
G37*
G36*
X250290Y620330D02*
X241270D01*
Y611310D01*
X241355D01*
X243972Y612011D01*
X246318Y613366D01*
X248234Y615282D01*
X249589Y617628D01*
X250290Y620245D01*
Y620330D01*
D02*
G37*
G36*
X388730Y608730D02*
X381137D01*
X381716Y606569D01*
X382886Y604541D01*
X384541Y602886D01*
X386569Y601716D01*
X388730Y601137D01*
Y608730D01*
D02*
G37*
G36*
X271001Y607600D02*
X268999D01*
X267066Y607082D01*
X265333Y606082D01*
X263918Y604666D01*
X262918Y602934D01*
X262400Y601001D01*
Y599004D01*
X248566D01*
X248387Y599674D01*
X247202Y601726D01*
X245526Y603402D01*
X243474Y604587D01*
X241185Y605200D01*
X238815D01*
X236526Y604587D01*
X234474Y603402D01*
X232798Y601726D01*
X231613Y599674D01*
X231000Y597385D01*
Y595015D01*
X231613Y592726D01*
X232798Y590674D01*
X234474Y588998D01*
X236526Y587813D01*
X238815Y587200D01*
X241185D01*
X243474Y587813D01*
X245526Y588998D01*
X247202Y590674D01*
X248387Y592726D01*
X248566Y593396D01*
X266200D01*
X266228Y593402D01*
X267066Y592918D01*
X268999Y592400D01*
X271001D01*
X272934Y592918D01*
X274667Y593918D01*
X276082Y595334D01*
X277082Y597066D01*
X277600Y598999D01*
Y601001D01*
X277082Y602934D01*
X276082Y604666D01*
X274667Y606082D01*
X272934Y607082D01*
X271001Y607600D01*
D02*
G37*
G36*
X121547Y621750D02*
X118453D01*
X115465Y620949D01*
X112785Y619402D01*
X110598Y617215D01*
X109051Y614535D01*
X108250Y611547D01*
Y608453D01*
X109051Y605465D01*
X110598Y602785D01*
X112785Y600598D01*
X115465Y599051D01*
X118453Y598250D01*
X121547D01*
X124535Y599051D01*
X127215Y600598D01*
X129402Y602785D01*
X130949Y605465D01*
X131750Y608453D01*
Y611547D01*
X130949Y614535D01*
X129402Y617215D01*
X127215Y619402D01*
X124535Y620949D01*
X121547Y621750D01*
D02*
G37*
G36*
X52459Y651250D02*
X47541D01*
X42682Y650480D01*
X38004Y648960D01*
X33621Y646727D01*
X29642Y643836D01*
X26164Y640358D01*
X23273Y636379D01*
X21040Y631996D01*
X19519Y627318D01*
X18750Y622459D01*
Y617541D01*
X19519Y612682D01*
X21040Y608004D01*
X23273Y603621D01*
X26164Y599642D01*
X29642Y596164D01*
X33621Y593273D01*
X38004Y591040D01*
X42682Y589520D01*
X47541Y588750D01*
X52459D01*
X57318Y589520D01*
X61996Y591040D01*
X66379Y593273D01*
X70358Y596164D01*
X73836Y599642D01*
X76727Y603621D01*
X78960Y608004D01*
X80480Y612682D01*
X81250Y617541D01*
Y622459D01*
X80480Y627318D01*
X78960Y631996D01*
X76727Y636379D01*
X73836Y640358D01*
X70358Y643836D01*
X66379Y646727D01*
X61996Y648960D01*
X57318Y650480D01*
X52459Y651250D01*
D02*
G37*
G36*
X297650Y635154D02*
X235547D01*
X234474Y634940D01*
X233565Y634333D01*
X178017Y578785D01*
X177410Y577876D01*
X177196Y576803D01*
Y500000D01*
X177410Y498927D01*
X178017Y498017D01*
X202985Y473050D01*
X202918Y472934D01*
X202400Y471001D01*
Y468999D01*
X202918Y467066D01*
X203918Y465334D01*
X205333Y463918D01*
X207066Y462918D01*
X209000Y462400D01*
X211001D01*
X212934Y462918D01*
X214667Y463918D01*
X216082Y465334D01*
X217082Y467066D01*
X217600Y468999D01*
Y471001D01*
X217082Y472934D01*
X216082Y474666D01*
X214667Y476082D01*
X212934Y477082D01*
X211001Y477600D01*
X209000D01*
X207066Y477082D01*
X206950Y477015D01*
X182804Y501161D01*
Y575641D01*
X228324Y621162D01*
X229710Y620588D01*
Y620245D01*
X230411Y617628D01*
X231766Y615282D01*
X233682Y613366D01*
X236028Y612011D01*
X238645Y611310D01*
X238730D01*
Y621600D01*
X240000D01*
Y622870D01*
X250290D01*
Y622955D01*
X249589Y625572D01*
X248234Y627918D01*
X247992Y628160D01*
X248566Y629546D01*
X296489D01*
X297196Y628839D01*
Y581161D01*
X293839Y577804D01*
X275000D01*
X273927Y577590D01*
X273017Y576983D01*
X269639Y573604D01*
X248566D01*
X248387Y574274D01*
X247202Y576326D01*
X245526Y578002D01*
X243474Y579187D01*
X241185Y579800D01*
X238815D01*
X236526Y579187D01*
X234474Y578002D01*
X232798Y576326D01*
X231613Y574274D01*
X231000Y571985D01*
Y569615D01*
X231613Y567326D01*
X232798Y565274D01*
X234474Y563598D01*
X236526Y562413D01*
X238815Y561800D01*
X241185D01*
X243474Y562413D01*
X245526Y563598D01*
X247202Y565274D01*
X248387Y567326D01*
X248566Y567996D01*
X270800D01*
X271873Y568210D01*
X272783Y568817D01*
X276161Y572196D01*
X284624D01*
X285026Y570696D01*
X282785Y569402D01*
X280598Y567215D01*
X279051Y564535D01*
X278250Y561547D01*
Y558453D01*
X279051Y555465D01*
X279947Y553912D01*
X274239Y548204D01*
X248566D01*
X248387Y548874D01*
X247202Y550926D01*
X245526Y552602D01*
X243474Y553787D01*
X241185Y554400D01*
X238815D01*
X236526Y553787D01*
X234474Y552602D01*
X232798Y550926D01*
X231613Y548874D01*
X231000Y546585D01*
Y544215D01*
X231613Y541926D01*
X232798Y539874D01*
X234474Y538198D01*
X236526Y537013D01*
X238815Y536400D01*
X241185D01*
X243474Y537013D01*
X245526Y538198D01*
X247202Y539874D01*
X248387Y541926D01*
X248566Y542596D01*
X275400D01*
X276473Y542810D01*
X277383Y543417D01*
X283912Y549947D01*
X285465Y549051D01*
X288453Y548250D01*
X291547D01*
X294535Y549051D01*
X297215Y550598D01*
X299402Y552785D01*
X300949Y555465D01*
X301750Y558453D01*
Y561547D01*
X300949Y564535D01*
X299402Y567215D01*
X297215Y569402D01*
X294974Y570696D01*
X294988Y571510D01*
X295272Y572250D01*
X296073Y572410D01*
X296983Y573017D01*
X301983Y578017D01*
X302591Y578927D01*
X302804Y580000D01*
Y630000D01*
X302804Y630000D01*
X302591Y631073D01*
X301983Y631983D01*
X299633Y634333D01*
X298723Y634940D01*
X297650Y635154D01*
D02*
G37*
G36*
X354831Y569089D02*
X349031D01*
Y561270D01*
X354831D01*
Y569089D01*
D02*
G37*
G36*
X318730Y548863D02*
X316569Y548284D01*
X314541Y547114D01*
X312886Y545459D01*
X311716Y543431D01*
X311137Y541270D01*
X318730D01*
Y548863D01*
D02*
G37*
G36*
X328863Y538730D02*
X321270D01*
Y531137D01*
X323431Y531716D01*
X325459Y532886D01*
X327114Y534541D01*
X328284Y536569D01*
X328863Y538730D01*
D02*
G37*
G36*
X318730D02*
X311137D01*
X311716Y536569D01*
X312886Y534541D01*
X314541Y532886D01*
X316569Y531716D01*
X318730Y531137D01*
Y538730D01*
D02*
G37*
G36*
X52252Y546450D02*
X48764D01*
X45394Y545547D01*
X42372Y543803D01*
X39905Y541336D01*
X38161Y538314D01*
X37258Y534944D01*
Y531456D01*
X38161Y528086D01*
X39905Y525064D01*
X42372Y522597D01*
X45394Y520853D01*
X48764Y519950D01*
X52252D01*
X55622Y520853D01*
X58644Y522597D01*
X61111Y525064D01*
X62855Y528086D01*
X63758Y531456D01*
Y534944D01*
X62855Y538314D01*
X61111Y541336D01*
X58644Y543803D01*
X55622Y545547D01*
X52252Y546450D01*
D02*
G37*
G36*
X278730Y499540D02*
X272710D01*
Y492804D01*
X268452D01*
X268284Y493431D01*
X267114Y495459D01*
X265459Y497114D01*
X263431Y498284D01*
X261270Y498863D01*
Y490000D01*
Y481137D01*
X263431Y481716D01*
X265459Y482886D01*
X267114Y484541D01*
X268284Y486569D01*
X268452Y487196D01*
X272710D01*
Y480460D01*
X278730D01*
Y490000D01*
Y499540D01*
D02*
G37*
G36*
X258730Y498863D02*
X256569Y498284D01*
X254541Y497114D01*
X252886Y495459D01*
X251716Y493431D01*
X251137Y491270D01*
X258730D01*
Y498863D01*
D02*
G37*
G36*
X777290Y489540D02*
X771270D01*
Y481270D01*
X777290D01*
Y489540D01*
D02*
G37*
G36*
X768730D02*
X762710D01*
Y481270D01*
X768730D01*
Y489540D01*
D02*
G37*
G36*
X258730Y488730D02*
X251137D01*
X251716Y486569D01*
X252886Y484541D01*
X254541Y482886D01*
X256569Y481716D01*
X258730Y481137D01*
Y488730D01*
D02*
G37*
G36*
X287290D02*
X281270D01*
Y480460D01*
X287290D01*
Y488730D01*
D02*
G37*
G36*
X777290Y478730D02*
X771270D01*
Y470460D01*
X777290D01*
Y478730D01*
D02*
G37*
G36*
X768730D02*
X762710D01*
Y470460D01*
X768730D01*
Y478730D01*
D02*
G37*
G36*
X731270Y468863D02*
Y461270D01*
X738863D01*
X738284Y463431D01*
X737114Y465459D01*
X735459Y467114D01*
X733431Y468284D01*
X731270Y468863D01*
D02*
G37*
G36*
X738863Y458730D02*
X731270D01*
Y451137D01*
X733431Y451716D01*
X735459Y452886D01*
X737114Y454541D01*
X738284Y456569D01*
X738863Y458730D01*
D02*
G37*
G36*
X728730D02*
X721137D01*
X721716Y456569D01*
X722886Y454541D01*
X724541Y452886D01*
X726569Y451716D01*
X728730Y451137D01*
Y458730D01*
D02*
G37*
G36*
X165750Y487250D02*
X154250D01*
Y472750D01*
X165750D01*
Y477196D01*
X168839D01*
X181887Y464148D01*
X181520Y463512D01*
X180900Y461198D01*
Y458802D01*
X181520Y456488D01*
X182718Y454412D01*
X184412Y452718D01*
X186488Y451520D01*
X188802Y450900D01*
X191198D01*
X193512Y451520D01*
X195588Y452718D01*
X197282Y454412D01*
X198480Y456488D01*
X199100Y458802D01*
Y461198D01*
X198480Y463512D01*
X197282Y465588D01*
X195588Y467282D01*
X193512Y468480D01*
X191198Y469100D01*
X188802D01*
X186488Y468480D01*
X185852Y468113D01*
X171983Y481983D01*
X171073Y482590D01*
X170000Y482804D01*
X165750D01*
Y487250D01*
D02*
G37*
G36*
X158730Y436540D02*
X152960D01*
Y431270D01*
X158730D01*
Y436540D01*
D02*
G37*
G36*
X767980Y439540D02*
X761960D01*
Y431270D01*
X767980D01*
Y439540D01*
D02*
G37*
G36*
X776540Y428730D02*
X770520D01*
Y420460D01*
X776540D01*
Y428730D01*
D02*
G37*
G36*
X767980D02*
X761960D01*
Y420460D01*
X767980D01*
Y428730D01*
D02*
G37*
G36*
X249513Y416799D02*
X243020D01*
Y412220D01*
X252599D01*
Y413713D01*
X252364Y414894D01*
X251695Y415895D01*
X250694Y416564D01*
X249513Y416799D01*
D02*
G37*
G36*
X240480D02*
X233988D01*
X232806Y416564D01*
X231805Y415895D01*
X231136Y414894D01*
X230901Y413713D01*
Y412220D01*
X240480D01*
Y416799D01*
D02*
G37*
G36*
X741270Y418863D02*
Y411270D01*
X748863D01*
X748284Y413431D01*
X747114Y415459D01*
X745459Y417114D01*
X743431Y418284D01*
X741270Y418863D01*
D02*
G37*
G36*
X727540Y428730D02*
X721270D01*
Y420710D01*
X723575D01*
X731534Y412751D01*
X731137Y411270D01*
X738730D01*
Y418863D01*
X736569Y418284D01*
X734896Y417319D01*
X727540Y424675D01*
Y428730D01*
D02*
G37*
G36*
X252599Y409680D02*
X243020D01*
Y405101D01*
X249513D01*
X250694Y405336D01*
X251695Y406005D01*
X252364Y407006D01*
X252599Y408187D01*
Y409680D01*
D02*
G37*
G36*
X240480D02*
X230901D01*
Y408187D01*
X231136Y407006D01*
X231805Y406005D01*
X232806Y405336D01*
X233988Y405101D01*
X240480D01*
Y409680D01*
D02*
G37*
G36*
X62508Y494400D02*
X38508D01*
Y470400D01*
X58874D01*
X91591Y437683D01*
X92425Y437126D01*
X93408Y436931D01*
X131337D01*
X131911Y435545D01*
X130913Y434547D01*
X130356Y433713D01*
X130161Y432730D01*
Y352248D01*
X130356Y351264D01*
X130913Y350431D01*
X147431Y333913D01*
Y261476D01*
X145465Y260949D01*
X142785Y259402D01*
X140598Y257215D01*
X139051Y254535D01*
X138250Y251547D01*
Y248738D01*
X136988Y247880D01*
X101889Y282978D01*
Y382788D01*
X101889Y382788D01*
X101693Y383772D01*
X101137Y384605D01*
X79697Y406045D01*
X80271Y407431D01*
X112820D01*
X112918Y407066D01*
X113919Y405334D01*
X115333Y403918D01*
X117066Y402918D01*
X118999Y402400D01*
X121000D01*
X122934Y402918D01*
X124667Y403918D01*
X126081Y405334D01*
X127082Y407066D01*
X127600Y408999D01*
Y411001D01*
X127082Y412934D01*
X126081Y414666D01*
X124667Y416082D01*
X122934Y417082D01*
X121000Y417600D01*
X118999D01*
X117066Y417082D01*
X115333Y416082D01*
X113919Y414666D01*
X112918Y412934D01*
X112820Y412569D01*
X73172D01*
X60623Y425119D01*
X61690Y426968D01*
X62508Y430020D01*
Y433180D01*
X61690Y436232D01*
X60110Y438968D01*
X57876Y441202D01*
X55140Y442782D01*
X52088Y443600D01*
X48928D01*
X45876Y442782D01*
X43140Y441202D01*
X40906Y438968D01*
X39326Y436232D01*
X38508Y433180D01*
Y430020D01*
X39326Y426968D01*
X40906Y424232D01*
X43140Y421998D01*
X45876Y420418D01*
X48928Y419600D01*
X52088D01*
X55140Y420418D01*
X56989Y421485D01*
X96750Y381724D01*
Y284383D01*
X95365Y283809D01*
X58326Y320848D01*
X60110Y322632D01*
X61690Y325368D01*
X62508Y328420D01*
Y331580D01*
X61690Y334632D01*
X60110Y337368D01*
X57876Y339602D01*
X55140Y341182D01*
X52088Y342000D01*
X48928D01*
X45876Y341182D01*
X43140Y339602D01*
X40906Y337368D01*
X39326Y334632D01*
X38508Y331580D01*
Y328420D01*
X39326Y325368D01*
X40906Y322632D01*
X43140Y320398D01*
X45876Y318818D01*
X48928Y318000D01*
X51801D01*
X140184Y229617D01*
X141259Y228899D01*
X142528Y228646D01*
X146466D01*
X180573Y194540D01*
X179951Y193040D01*
X178283D01*
X174967Y192151D01*
X171993Y190435D01*
X169565Y188007D01*
X167849Y185033D01*
X166960Y181717D01*
Y181270D01*
X180000D01*
Y178730D01*
X166960D01*
Y178283D01*
X167849Y174967D01*
X169565Y171993D01*
X171993Y169565D01*
X174967Y167849D01*
X177196Y167251D01*
Y146800D01*
X177410Y145727D01*
X178017Y144817D01*
X193854Y128981D01*
X192550Y126723D01*
X191610Y123216D01*
Y122670D01*
X204130D01*
Y135190D01*
X203584D01*
X200077Y134250D01*
X197819Y132946D01*
X182804Y147961D01*
Y167251D01*
X185033Y167849D01*
X188007Y169565D01*
X190435Y171993D01*
X192151Y174967D01*
X193040Y178283D01*
Y179951D01*
X194540Y180573D01*
X207456Y167657D01*
X208531Y166939D01*
X209799Y166686D01*
X248723D01*
X249051Y165465D01*
X250598Y162785D01*
X252785Y160598D01*
X255465Y159051D01*
X258453Y158250D01*
X261547D01*
X264535Y159051D01*
X267215Y160598D01*
X269402Y162785D01*
X270949Y165465D01*
X271750Y168453D01*
Y171547D01*
X270949Y174535D01*
X270317Y175631D01*
X285123Y190436D01*
X308960D01*
Y177520D01*
X320000D01*
Y174980D01*
X308960D01*
Y159710D01*
X309044D01*
X310250Y159000D01*
Y133186D01*
X305407Y128343D01*
X304689Y127268D01*
X304436Y126000D01*
Y68300D01*
X304689Y67032D01*
X305407Y65957D01*
X309932Y61432D01*
X311007Y60714D01*
X312275Y60462D01*
X314102D01*
X316686Y57877D01*
Y54500D01*
X313570D01*
X313250Y54564D01*
X313123D01*
X287000Y80686D01*
Y96300D01*
X253000D01*
Y76000D01*
X282314D01*
X309407Y48907D01*
X310000Y48511D01*
Y25500D01*
X330000D01*
Y54500D01*
X323314D01*
Y59250D01*
X323061Y60518D01*
X322343Y61593D01*
X317818Y66118D01*
X316743Y66837D01*
X315921Y67000D01*
X316069Y68500D01*
X326430D01*
X326750Y68436D01*
X351478D01*
X382274Y37640D01*
X381750Y35686D01*
Y33514D01*
X382312Y31416D01*
X383398Y29534D01*
X384934Y27998D01*
X386816Y26912D01*
X388914Y26350D01*
X391086D01*
X393184Y26912D01*
X395066Y27998D01*
X396602Y29534D01*
X397688Y31416D01*
X398250Y33514D01*
Y35686D01*
X397688Y37784D01*
X396602Y39666D01*
X395066Y41202D01*
X393184Y42288D01*
X391086Y42850D01*
X388914D01*
X386960Y42326D01*
X355193Y74093D01*
X354118Y74811D01*
X352850Y75064D01*
X330000D01*
Y89430D01*
X330064Y89750D01*
Y92878D01*
X367843Y130657D01*
X368072Y131000D01*
X378960D01*
Y129710D01*
X387730D01*
Y140000D01*
Y150290D01*
X378960D01*
Y149000D01*
X362250D01*
Y134820D01*
X362186Y134500D01*
Y134373D01*
X331450Y103636D01*
X330064Y104210D01*
Y121678D01*
X334343Y125957D01*
X335061Y127032D01*
X335314Y128300D01*
Y191700D01*
X335061Y192968D01*
X334343Y194043D01*
X332293Y196093D01*
X331218Y196811D01*
X329950Y197064D01*
X283750D01*
X282482Y196811D01*
X281407Y196093D01*
X265631Y180317D01*
X264535Y180949D01*
X261547Y181750D01*
X258453D01*
X255465Y180949D01*
X252785Y179402D01*
X250598Y177215D01*
X249051Y174535D01*
X248723Y173314D01*
X211171D01*
X151710Y232775D01*
X152284Y234161D01*
X196730D01*
X197713Y234356D01*
X198547Y234913D01*
X203702Y240068D01*
X205465Y239051D01*
X208453Y238250D01*
X211547D01*
X214535Y239051D01*
X217215Y240598D01*
X219402Y242785D01*
X220949Y245465D01*
X221750Y248453D01*
Y251547D01*
X220949Y254535D01*
X219402Y257215D01*
X217215Y259402D01*
X214535Y260949D01*
X211547Y261750D01*
X208453D01*
X205465Y260949D01*
X202785Y259402D01*
X200598Y257215D01*
X199051Y254535D01*
X198250Y251547D01*
Y248453D01*
X199051Y245465D01*
X200068Y243702D01*
X195666Y239299D01*
X157702D01*
X157416Y240799D01*
X159402Y242785D01*
X160949Y245465D01*
X161750Y248453D01*
Y251547D01*
X160949Y254535D01*
X159402Y257215D01*
X157215Y259402D01*
X154535Y260949D01*
X152569Y261476D01*
Y334978D01*
X152374Y335961D01*
X151817Y336795D01*
X135299Y353312D01*
Y411161D01*
X161861D01*
X162844Y411356D01*
X163678Y411913D01*
X177817Y426052D01*
X178374Y426886D01*
X178569Y427869D01*
Y430872D01*
X179400Y431700D01*
X180900Y431239D01*
Y425500D01*
X195466D01*
X199133Y421833D01*
X199967Y421276D01*
X200950Y421081D01*
X232216D01*
Y420887D01*
X232351Y420210D01*
X232735Y419635D01*
X233310Y419251D01*
X233988Y419116D01*
X249513D01*
X250191Y419251D01*
X250765Y419635D01*
X251149Y420210D01*
X251284Y420887D01*
Y426413D01*
X251149Y427090D01*
X250765Y427665D01*
X250191Y428049D01*
X249513Y428184D01*
X233988D01*
X233310Y428049D01*
X232735Y427665D01*
X232351Y427090D01*
X232216Y426413D01*
Y426219D01*
X202014D01*
X199100Y429134D01*
Y442651D01*
X226816D01*
X232216Y437250D01*
Y433587D01*
X232351Y432910D01*
X232735Y432335D01*
X233310Y431951D01*
X233988Y431816D01*
X249513D01*
X250191Y431951D01*
X250765Y432335D01*
X251149Y432910D01*
X251284Y433587D01*
Y439113D01*
X251149Y439790D01*
X250765Y440365D01*
X250191Y440749D01*
X249513Y440884D01*
X235850D01*
X233687Y443046D01*
X233815Y443671D01*
X234339Y444516D01*
X249513D01*
X250191Y444651D01*
X250765Y445035D01*
X251149Y445610D01*
X251284Y446287D01*
Y451813D01*
X251149Y452491D01*
X250765Y453065D01*
X250191Y453449D01*
X249513Y453584D01*
X233988D01*
X233310Y453449D01*
X232735Y453065D01*
X232351Y452491D01*
X232216Y451813D01*
Y446639D01*
X231371Y446115D01*
X230746Y445987D01*
X229697Y447037D01*
X228863Y447594D01*
X227880Y447789D01*
X181003D01*
X180019Y447594D01*
X179186Y447037D01*
X170143Y437994D01*
X169586Y437161D01*
X169391Y436177D01*
Y430637D01*
X168365Y429795D01*
X167040Y430363D01*
Y436540D01*
X161270D01*
Y430000D01*
X160000D01*
Y428730D01*
X152960D01*
Y423460D01*
X151622Y423069D01*
X145750D01*
Y425750D01*
X144301D01*
X143680Y427250D01*
X145147Y428717D01*
X145513Y428961D01*
X149087Y432536D01*
X149644Y433369D01*
X149839Y434353D01*
Y450676D01*
X149644Y451660D01*
X149087Y452493D01*
X141569Y460011D01*
Y472750D01*
X144750D01*
Y487250D01*
X133250D01*
Y476384D01*
X124211Y467345D01*
X122934Y468082D01*
X121000Y468600D01*
X118999D01*
X117066Y468082D01*
X115333Y467081D01*
X113919Y465667D01*
X112918Y463933D01*
X112400Y462001D01*
Y459999D01*
X112918Y458066D01*
X113919Y456334D01*
X115333Y454919D01*
X117066Y453918D01*
X118999Y453400D01*
X121000D01*
X122934Y453918D01*
X124667Y454919D01*
X126081Y456334D01*
X127082Y458066D01*
X127600Y459999D01*
Y462001D01*
X127290Y463157D01*
X135045Y470911D01*
X136431Y470337D01*
Y458946D01*
X136626Y457963D01*
X137183Y457130D01*
X144701Y449612D01*
Y444750D01*
X134250D01*
Y442069D01*
X94472D01*
X62508Y474034D01*
Y494400D01*
D02*
G37*
G36*
X611270Y408863D02*
Y401270D01*
X618863D01*
X618284Y403431D01*
X617114Y405459D01*
X615459Y407114D01*
X613431Y408284D01*
X611270Y408863D01*
D02*
G37*
G36*
X608730D02*
X606569Y408284D01*
X604541Y407114D01*
X602886Y405459D01*
X601716Y403431D01*
X601137Y401270D01*
X608730D01*
Y408863D01*
D02*
G37*
G36*
X748863Y408730D02*
X741270D01*
Y401137D01*
X743431Y401716D01*
X745459Y402886D01*
X747114Y404541D01*
X748284Y406569D01*
X748863Y408730D01*
D02*
G37*
G36*
X738730D02*
X731137D01*
X731716Y406569D01*
X732886Y404541D01*
X734541Y402886D01*
X736569Y401716D01*
X738730Y401137D01*
Y408730D01*
D02*
G37*
G36*
X618863Y398730D02*
X611270D01*
Y391137D01*
X613431Y391716D01*
X615459Y392886D01*
X617114Y394541D01*
X618284Y396569D01*
X618863Y398730D01*
D02*
G37*
G36*
X608730D02*
X601137D01*
X601716Y396569D01*
X602886Y394541D01*
X603483Y393945D01*
X598627Y389089D01*
X596792D01*
Y381270D01*
X602592D01*
Y385124D01*
X608631Y391163D01*
X608730Y391137D01*
Y398730D01*
D02*
G37*
G36*
X52258Y394090D02*
X51778D01*
Y382070D01*
X63798D01*
Y382550D01*
X62892Y385930D01*
X61143Y388960D01*
X58668Y391435D01*
X55638Y393184D01*
X52258Y394090D01*
D02*
G37*
G36*
X49238D02*
X48758D01*
X45378Y393184D01*
X42348Y391435D01*
X39873Y388960D01*
X38124Y385930D01*
X37218Y382550D01*
Y382070D01*
X49238D01*
Y394090D01*
D02*
G37*
G36*
X349730Y390290D02*
X340960D01*
Y381270D01*
X349730D01*
Y390290D01*
D02*
G37*
G36*
X791270Y388863D02*
Y381270D01*
X798863D01*
X798284Y383431D01*
X797114Y385459D01*
X795459Y387114D01*
X793431Y388284D01*
X791270Y388863D01*
D02*
G37*
G36*
X788730D02*
X786569Y388284D01*
X784541Y387114D01*
X782886Y385459D01*
X781716Y383431D01*
X781137Y381270D01*
X788730D01*
Y388863D01*
D02*
G37*
G36*
X767980Y379540D02*
X761960D01*
Y371270D01*
X767980D01*
Y379540D01*
D02*
G37*
G36*
X798863Y378730D02*
X791270D01*
Y371137D01*
X793431Y371716D01*
X795459Y372886D01*
X797114Y374541D01*
X798284Y376569D01*
X798863Y378730D01*
D02*
G37*
G36*
X349730Y378730D02*
X340960D01*
Y369710D01*
X349730D01*
Y378730D01*
D02*
G37*
G36*
X63798Y379530D02*
X51778D01*
Y367510D01*
X52258D01*
X55638Y368416D01*
X58668Y370165D01*
X61143Y372640D01*
X62892Y375670D01*
X63798Y379050D01*
Y379530D01*
D02*
G37*
G36*
X49238D02*
X37218D01*
Y379050D01*
X38124Y375670D01*
X39873Y372640D01*
X42348Y370165D01*
X45378Y368416D01*
X48758Y367510D01*
X49238D01*
Y379530D01*
D02*
G37*
G36*
X286540Y359540D02*
X280520D01*
Y351270D01*
X286540D01*
Y359540D01*
D02*
G37*
G36*
X277980D02*
X271960D01*
Y351270D01*
X277980D01*
Y359540D01*
D02*
G37*
G36*
X246540D02*
X240520D01*
Y351270D01*
X246540D01*
Y359540D01*
D02*
G37*
G36*
X237980D02*
X231960D01*
Y351270D01*
X237980D01*
Y359540D01*
D02*
G37*
G36*
X206540D02*
X200520D01*
Y351270D01*
X206540D01*
Y359540D01*
D02*
G37*
G36*
X197980D02*
X191960D01*
Y351270D01*
X197980D01*
Y359540D01*
D02*
G37*
G36*
X708863Y348730D02*
X701270D01*
Y341137D01*
X703431Y341716D01*
X705459Y342886D01*
X707114Y344541D01*
X708284Y346569D01*
X708863Y348730D01*
D02*
G37*
G36*
X698730D02*
X691137D01*
X691716Y346569D01*
X692886Y344541D01*
X694541Y342886D01*
X696569Y341716D01*
X698730Y341137D01*
Y348730D01*
D02*
G37*
G36*
X327290D02*
X321270D01*
Y340460D01*
X327290D01*
Y348730D01*
D02*
G37*
G36*
X318730D02*
X312710D01*
Y340460D01*
X318730D01*
Y348730D01*
D02*
G37*
G36*
X791270Y328863D02*
Y321270D01*
X798863D01*
X798284Y323431D01*
X797114Y325459D01*
X795459Y327114D01*
X793431Y328284D01*
X791270Y328863D01*
D02*
G37*
G36*
X788730D02*
X786569Y328284D01*
X784541Y327114D01*
X782886Y325459D01*
X781716Y323431D01*
X781137Y321270D01*
X788730D01*
Y328863D01*
D02*
G37*
G36*
X543541Y357799D02*
X531981D01*
Y342201D01*
X535567D01*
Y326216D01*
X535334Y326082D01*
X533918Y324666D01*
X532918Y322934D01*
X532400Y321001D01*
Y318999D01*
X532918Y317066D01*
X533918Y315333D01*
X535334Y313918D01*
X537066Y312918D01*
X538999Y312400D01*
X541001D01*
X542934Y312918D01*
X544666Y313918D01*
X546082Y315333D01*
X547082Y317066D01*
X547600Y318999D01*
Y321001D01*
X547082Y322934D01*
X546082Y324666D01*
X544666Y326082D01*
X542934Y327082D01*
X542194Y327280D01*
Y342201D01*
X543541D01*
Y357799D01*
D02*
G37*
G36*
X767980Y319540D02*
X761960D01*
Y311270D01*
X767980D01*
Y319540D01*
D02*
G37*
G36*
X798863Y318730D02*
X791270D01*
Y311137D01*
X793431Y311716D01*
X795459Y312886D01*
X797114Y314541D01*
X798284Y316569D01*
X798863Y318730D01*
D02*
G37*
G36*
X495140Y318730D02*
X490000D01*
X484860D01*
Y314660D01*
X487196D01*
Y311161D01*
X483994Y307959D01*
X483431Y308284D01*
X481270Y308863D01*
Y301270D01*
X488863D01*
X488284Y303431D01*
X487959Y303994D01*
X491983Y308017D01*
X492590Y308927D01*
X492804Y310000D01*
Y314660D01*
X495140D01*
Y318730D01*
D02*
G37*
G36*
X478730Y308863D02*
X476569Y308284D01*
X474541Y307114D01*
X472886Y305459D01*
X471716Y303431D01*
X471137Y301270D01*
X478730D01*
Y308863D01*
D02*
G37*
G36*
X840390Y303330D02*
X831270D01*
Y294210D01*
X831368D01*
X834010Y294918D01*
X836380Y296286D01*
X838314Y298220D01*
X839682Y300590D01*
X840390Y303232D01*
Y303330D01*
D02*
G37*
G36*
X488863Y298730D02*
X481270D01*
Y291137D01*
X483431Y291716D01*
X485459Y292886D01*
X487114Y294541D01*
X488284Y296569D01*
X488863Y298730D01*
D02*
G37*
G36*
X478730D02*
X471137D01*
X471716Y296569D01*
X472886Y294541D01*
X474541Y292886D01*
X476569Y291716D01*
X478730Y291137D01*
Y298730D01*
D02*
G37*
G36*
X561590Y290490D02*
X553970D01*
Y280320D01*
X561590D01*
Y290490D01*
D02*
G37*
G36*
X551430D02*
X543810D01*
Y280320D01*
X551430D01*
Y290490D01*
D02*
G37*
G36*
X831198Y288300D02*
X828802D01*
X826488Y287680D01*
X824413Y286482D01*
X822718Y284788D01*
X821520Y282712D01*
X820900Y280398D01*
Y278002D01*
X821520Y275688D01*
X822718Y273612D01*
X824413Y271918D01*
X826488Y270720D01*
X828802Y270100D01*
X831198D01*
X833512Y270720D01*
X835587Y271918D01*
X837282Y273612D01*
X838480Y275688D01*
X839100Y278002D01*
Y280398D01*
X838480Y282712D01*
X837282Y284788D01*
X835587Y286482D01*
X833512Y287680D01*
X831198Y288300D01*
D02*
G37*
G36*
X52252Y292450D02*
X48764D01*
X45394Y291547D01*
X42372Y289803D01*
X39905Y287336D01*
X38161Y284314D01*
X37258Y280944D01*
Y277456D01*
X38161Y274086D01*
X39905Y271064D01*
X42372Y268597D01*
X45394Y266853D01*
X48764Y265950D01*
X52252D01*
X55622Y266853D01*
X58644Y268597D01*
X61111Y271064D01*
X62855Y274086D01*
X63758Y277456D01*
Y280944D01*
X62855Y284314D01*
X61111Y287336D01*
X58644Y289803D01*
X55622Y291547D01*
X52252Y292450D01*
D02*
G37*
G36*
X271717Y263040D02*
X271270D01*
Y251270D01*
X283040D01*
Y251717D01*
X282151Y255033D01*
X280435Y258007D01*
X278007Y260435D01*
X275033Y262151D01*
X271717Y263040D01*
D02*
G37*
G36*
X268730D02*
X268283D01*
X264967Y262151D01*
X261993Y260435D01*
X259565Y258007D01*
X257849Y255033D01*
X256960Y251717D01*
Y251270D01*
X268730D01*
Y263040D01*
D02*
G37*
G36*
X839100Y262900D02*
X820900D01*
Y244700D01*
X839100D01*
Y262900D01*
D02*
G37*
G36*
X561590Y277780D02*
X543810D01*
Y267610D01*
X549896D01*
Y252390D01*
X543810D01*
Y242220D01*
X561590D01*
Y252390D01*
X555504D01*
Y267610D01*
X561590D01*
Y277780D01*
D02*
G37*
G36*
X283040Y248730D02*
X271270D01*
Y236960D01*
X271717D01*
X275033Y237849D01*
X278007Y239565D01*
X280435Y241993D01*
X282151Y244967D01*
X283040Y248283D01*
Y248730D01*
D02*
G37*
G36*
X268730D02*
X256960D01*
Y248283D01*
X257849Y244967D01*
X259565Y241993D01*
X261993Y239565D01*
X264967Y237849D01*
X268283Y236960D01*
X268730D01*
Y248730D01*
D02*
G37*
G36*
X608863Y238730D02*
X601270D01*
Y231137D01*
X603431Y231716D01*
X603994Y232041D01*
X607196Y228839D01*
Y218452D01*
X606569Y218284D01*
X604541Y217114D01*
X602886Y215459D01*
X601716Y213431D01*
X601137Y211270D01*
X618863D01*
X618284Y213431D01*
X617114Y215459D01*
X615459Y217114D01*
X613431Y218284D01*
X612804Y218452D01*
Y230000D01*
X612590Y231073D01*
X611983Y231983D01*
X607959Y236006D01*
X608284Y236569D01*
X608863Y238730D01*
D02*
G37*
G36*
X618863Y208730D02*
X611270D01*
Y201137D01*
X613431Y201716D01*
X615459Y202886D01*
X617114Y204541D01*
X618284Y206569D01*
X618863Y208730D01*
D02*
G37*
G36*
X608730D02*
X601137D01*
X601716Y206569D01*
X602886Y204541D01*
X604541Y202886D01*
X606569Y201716D01*
X608730Y201137D01*
Y208730D01*
D02*
G37*
G36*
X708730Y178863D02*
X706569Y178284D01*
X704541Y177114D01*
X702886Y175459D01*
X701716Y173431D01*
X701137Y171270D01*
X708730D01*
Y178863D01*
D02*
G37*
G36*
X648730D02*
X646569Y178284D01*
X644541Y177114D01*
X642886Y175459D01*
X641716Y173431D01*
X641137Y171270D01*
X648730D01*
Y178863D01*
D02*
G37*
G36*
X711270D02*
Y170000D01*
Y161137D01*
X713431Y161716D01*
X715459Y162886D01*
X717114Y164541D01*
X718156Y166346D01*
X719689D01*
X722960Y163075D01*
Y161270D01*
X728730D01*
Y168040D01*
X725925D01*
X722833Y171133D01*
X721923Y171740D01*
X720850Y171954D01*
X718680D01*
X718284Y173431D01*
X717114Y175459D01*
X715459Y177114D01*
X713431Y178284D01*
X711270Y178863D01*
D02*
G37*
G36*
X651270D02*
Y170000D01*
Y161137D01*
X653431Y161716D01*
X655459Y162886D01*
X657114Y164541D01*
X658156Y166346D01*
X659689D01*
X662960Y163075D01*
Y161270D01*
X668730D01*
Y168040D01*
X665925D01*
X662833Y171133D01*
X661923Y171740D01*
X660850Y171954D01*
X658680D01*
X658284Y173431D01*
X657114Y175459D01*
X655459Y177114D01*
X653431Y178284D01*
X651270Y178863D01*
D02*
G37*
G36*
X708730Y168730D02*
X701137D01*
X701716Y166569D01*
X702886Y164541D01*
X704541Y162886D01*
X706569Y161716D01*
X708730Y161137D01*
Y168730D01*
D02*
G37*
G36*
X648730D02*
X641137D01*
X641716Y166569D01*
X642886Y164541D01*
X644541Y162886D01*
X646569Y161716D01*
X648730Y161137D01*
Y168730D01*
D02*
G37*
G36*
X747750Y249000D02*
X732750D01*
Y231000D01*
X737446D01*
Y169750D01*
X736808Y168495D01*
X736452Y168079D01*
X736373Y168040D01*
X736121Y168040D01*
X731270D01*
Y161270D01*
X737040D01*
Y166696D01*
X737040Y166921D01*
X737476Y167221D01*
X737753Y167292D01*
X738540Y167495D01*
X743250Y162785D01*
Y153250D01*
X754750D01*
Y166750D01*
X747215D01*
X743054Y170911D01*
Y231000D01*
X747750D01*
Y249000D01*
D02*
G37*
G36*
X687500D02*
X672500D01*
Y231000D01*
X677196D01*
Y170000D01*
X677310Y169428D01*
X676481Y168247D01*
X676380Y168173D01*
Y168173D01*
X676379Y168173D01*
X675000Y168040D01*
X671270D01*
Y161270D01*
X677040D01*
Y166873D01*
X677240Y166956D01*
X677240Y166956D01*
X677279Y166973D01*
X677279Y166973D01*
X677279Y166973D01*
X677279Y166973D01*
X678608Y167426D01*
X683250Y162785D01*
Y153250D01*
X694750D01*
Y166750D01*
X687215D01*
X682804Y171161D01*
Y231000D01*
X687500D01*
Y249000D01*
D02*
G37*
G36*
X737040Y158730D02*
X731270D01*
Y151960D01*
X737040D01*
Y158730D01*
D02*
G37*
G36*
X728730D02*
X722960D01*
Y151960D01*
X728730D01*
Y158730D01*
D02*
G37*
G36*
X677040D02*
X671270D01*
Y151960D01*
X677040D01*
Y158730D01*
D02*
G37*
G36*
X668730D02*
X662960D01*
Y151960D01*
X668730D01*
Y158730D01*
D02*
G37*
G36*
X399040Y150290D02*
X390270D01*
Y141270D01*
X399040D01*
Y150290D01*
D02*
G37*
G36*
X458290Y151540D02*
X451270D01*
Y141270D01*
X458290D01*
Y151540D01*
D02*
G37*
G36*
X448730D02*
X441710D01*
Y141270D01*
X448730D01*
Y151540D01*
D02*
G37*
G36*
X399040Y138730D02*
X390270D01*
Y129710D01*
X399040D01*
Y138730D01*
D02*
G37*
G36*
X207215Y135190D02*
X206670D01*
Y122670D01*
X219190D01*
Y123216D01*
X218250Y126723D01*
X216435Y129867D01*
X213867Y132435D01*
X210723Y134250D01*
X207215Y135190D01*
D02*
G37*
G36*
X578863Y118730D02*
X571270D01*
Y111137D01*
X573431Y111716D01*
X575459Y112886D01*
X577114Y114541D01*
X578284Y116569D01*
X578863Y118730D01*
D02*
G37*
G36*
X568730D02*
X561137D01*
X561716Y116569D01*
X562886Y114541D01*
X564541Y112886D01*
X566569Y111716D01*
X568730Y111137D01*
Y118730D01*
D02*
G37*
G36*
X219190Y120130D02*
X206670D01*
Y107610D01*
X207215D01*
X210723Y108550D01*
X213867Y110365D01*
X216435Y112933D01*
X218250Y116077D01*
X219190Y119585D01*
Y120130D01*
D02*
G37*
G36*
X204130D02*
X191610D01*
Y119585D01*
X192550Y116077D01*
X194365Y112933D01*
X196933Y110365D01*
X200077Y108550D01*
X203584Y107610D01*
X204130D01*
Y120130D01*
D02*
G37*
G36*
X518011Y113819D02*
X510418D01*
Y106226D01*
X512579Y106805D01*
X514607Y107975D01*
X516262Y109630D01*
X517432Y111658D01*
X518011Y113819D01*
D02*
G37*
G36*
X507878D02*
X500285D01*
X500864Y111658D01*
X502034Y109630D01*
X503689Y107975D01*
X505717Y106805D01*
X507878Y106226D01*
Y113819D01*
D02*
G37*
G36*
X607540Y108040D02*
X601770D01*
Y101270D01*
X607540D01*
Y108040D01*
D02*
G37*
G36*
X599230D02*
X593460D01*
Y101270D01*
X599230D01*
Y108040D01*
D02*
G37*
G36*
X607540Y98730D02*
X601770D01*
Y91960D01*
X607540D01*
Y98730D01*
D02*
G37*
G36*
X599230D02*
X593460D01*
Y91960D01*
X599230D01*
Y98730D01*
D02*
G37*
G36*
X542000Y73383D02*
X526000D01*
X524342Y73053D01*
X522936Y72114D01*
X521997Y70708D01*
X521667Y69050D01*
X521997Y67392D01*
X522936Y65986D01*
X524342Y65047D01*
X526000Y64717D01*
X542000D01*
X543658Y65047D01*
X545064Y65986D01*
X546003Y67392D01*
X546333Y69050D01*
X546003Y70708D01*
X545064Y72114D01*
X543658Y73053D01*
X542000Y73383D01*
D02*
G37*
G36*
X391270Y69536D02*
Y61270D01*
X399536D01*
X398890Y63682D01*
X397634Y65858D01*
X395858Y67634D01*
X393682Y68890D01*
X391270Y69536D01*
D02*
G37*
G36*
X388730D02*
X386318Y68890D01*
X384142Y67634D01*
X382366Y65858D01*
X381110Y63682D01*
X380464Y61270D01*
X388730D01*
Y69536D01*
D02*
G37*
G36*
X542000Y61999D02*
X535270D01*
Y57620D01*
X547396D01*
X547219Y58512D01*
X545994Y60344D01*
X544162Y61569D01*
X542000Y61999D01*
D02*
G37*
G36*
X494000D02*
X487270D01*
Y57620D01*
X499396D01*
X499219Y58512D01*
X497994Y60344D01*
X496162Y61569D01*
X494000Y61999D01*
D02*
G37*
G36*
X532730D02*
X526000D01*
X523838Y61569D01*
X522006Y60344D01*
X520781Y58512D01*
X520604Y57620D01*
X532730D01*
Y61999D01*
D02*
G37*
G36*
X484730D02*
X478000D01*
X475838Y61569D01*
X474006Y60344D01*
X472781Y58512D01*
X472604Y57620D01*
X484730D01*
Y61999D01*
D02*
G37*
G36*
X547396Y55080D02*
X535270D01*
Y50701D01*
X542000D01*
X544162Y51131D01*
X545994Y52356D01*
X547219Y54188D01*
X547396Y55080D01*
D02*
G37*
G36*
X532730D02*
X520604D01*
X520781Y54188D01*
X522006Y52356D01*
X523838Y51131D01*
X526000Y50701D01*
X532730D01*
Y55080D01*
D02*
G37*
G36*
X399536Y58730D02*
X391270D01*
Y50464D01*
X393682Y51110D01*
X395858Y52366D01*
X397634Y54142D01*
X398890Y56318D01*
X399536Y58730D01*
D02*
G37*
G36*
X388730D02*
X380464D01*
X381110Y56318D01*
X382366Y54142D01*
X384142Y52366D01*
X386318Y51110D01*
X388730Y50464D01*
Y58730D01*
D02*
G37*
G36*
X499396Y55080D02*
X486000D01*
X472604D01*
X472781Y54188D01*
X474006Y52356D01*
X475838Y51131D01*
X477682Y50765D01*
Y49235D01*
X475838Y48869D01*
X474006Y47644D01*
X472781Y45812D01*
X472604Y44920D01*
X486000D01*
X499396D01*
X499219Y45812D01*
X497994Y47644D01*
X496162Y48869D01*
X494318Y49235D01*
Y50765D01*
X496162Y51131D01*
X497994Y52356D01*
X499219Y54188D01*
X499396Y55080D01*
D02*
G37*
G36*
Y42380D02*
X487270D01*
Y38001D01*
X494000D01*
X496162Y38431D01*
X497994Y39656D01*
X499219Y41488D01*
X499396Y42380D01*
D02*
G37*
G36*
X484730D02*
X472604D01*
X472781Y41488D01*
X474006Y39656D01*
X475838Y38431D01*
X478000Y38001D01*
X484730D01*
Y42380D01*
D02*
G37*
G36*
X160225Y133959D02*
X148975D01*
X147180Y133723D01*
X145508Y133030D01*
X144072Y131928D01*
X142970Y130492D01*
X142277Y128820D01*
X142041Y127025D01*
Y115775D01*
X142277Y113980D01*
X142970Y112308D01*
X144072Y110872D01*
X145508Y109770D01*
X147180Y109077D01*
X148975Y108841D01*
X160225D01*
X162020Y109077D01*
X163692Y109770D01*
X165128Y110872D01*
X166230Y112308D01*
X166923Y113980D01*
X167159Y115775D01*
Y118086D01*
X174227D01*
X253000Y39314D01*
Y23700D01*
X287000D01*
Y44000D01*
X257686D01*
X177943Y123743D01*
X176868Y124461D01*
X175600Y124714D01*
X167159D01*
Y127025D01*
X166923Y128820D01*
X166230Y130492D01*
X165128Y131928D01*
X163692Y133030D01*
X162020Y133723D01*
X160225Y133959D01*
D02*
G37*
G36*
X852459Y81250D02*
X847541D01*
X842682Y80480D01*
X838004Y78960D01*
X833621Y76727D01*
X829642Y73836D01*
X826164Y70358D01*
X823273Y66379D01*
X821040Y61996D01*
X819520Y57318D01*
X818750Y52459D01*
Y47541D01*
X819520Y42682D01*
X821040Y38004D01*
X823273Y33621D01*
X826164Y29642D01*
X829642Y26164D01*
X833621Y23273D01*
X838004Y21040D01*
X842682Y19519D01*
X847541Y18750D01*
X852459D01*
X857318Y19519D01*
X861996Y21040D01*
X866379Y23273D01*
X870358Y26164D01*
X873836Y29642D01*
X876727Y33621D01*
X878960Y38004D01*
X880480Y42682D01*
X881250Y47541D01*
Y52459D01*
X880480Y57318D01*
X878960Y61996D01*
X876727Y66379D01*
X873836Y70358D01*
X870358Y73836D01*
X866379Y76727D01*
X861996Y78960D01*
X857318Y80480D01*
X852459Y81250D01*
D02*
G37*
G36*
X52459D02*
X47541D01*
X42682Y80480D01*
X38004Y78960D01*
X33621Y76727D01*
X29642Y73836D01*
X26164Y70358D01*
X23273Y66379D01*
X21040Y61996D01*
X19519Y57318D01*
X18750Y52459D01*
Y47541D01*
X19519Y42682D01*
X21040Y38004D01*
X23273Y33621D01*
X26164Y29642D01*
X29642Y26164D01*
X33621Y23273D01*
X38004Y21040D01*
X42682Y19519D01*
X47541Y18750D01*
X52459D01*
X57318Y19519D01*
X61996Y21040D01*
X66379Y23273D01*
X70358Y26164D01*
X73836Y29642D01*
X76727Y33621D01*
X78960Y38004D01*
X80480Y42682D01*
X81250Y47541D01*
Y52459D01*
X80480Y57318D01*
X78960Y61996D01*
X76727Y66379D01*
X73836Y70358D01*
X70358Y73836D01*
X66379Y76727D01*
X61996Y78960D01*
X57318Y80480D01*
X52459Y81250D01*
D02*
G37*
%LPD*%
G36*
X531845Y655810D02*
X498017Y621983D01*
X497410Y621073D01*
X497196Y620000D01*
Y570678D01*
X495696Y570481D01*
X495471Y571322D01*
X494470Y573055D01*
X493055Y574470D01*
X491322Y575471D01*
X489389Y575989D01*
X487388D01*
X485455Y575471D01*
X483722Y574470D01*
X482307Y573055D01*
X481306Y571322D01*
X480788Y569389D01*
Y567388D01*
X481306Y565455D01*
X482307Y563722D01*
X483722Y562307D01*
X484644Y561774D01*
X484821Y560043D01*
X469386Y544608D01*
X468000Y545182D01*
Y559000D01*
X456965D01*
X433983Y581983D01*
X433073Y582590D01*
X432000Y582804D01*
X402919D01*
X402804Y582919D01*
Y607081D01*
X402919Y607196D01*
X428243D01*
X429316Y607410D01*
X430225Y608017D01*
X431983Y609775D01*
X432590Y610684D01*
X432804Y611757D01*
X432804Y611758D01*
Y638839D01*
X451161Y657196D01*
X531271D01*
X531845Y655810D01*
D02*
G37*
G36*
X688521Y645756D02*
Y619583D01*
X688735Y618510D01*
X689343Y617600D01*
X763893Y543050D01*
X763826Y542934D01*
X763308Y541001D01*
Y538999D01*
X763755Y537332D01*
X763160Y536758D01*
X762509Y536457D01*
X746983Y551983D01*
X746073Y552590D01*
X745000Y552804D01*
X645597D01*
X645052Y554304D01*
X646081Y555334D01*
X647082Y557066D01*
X647600Y558999D01*
Y561001D01*
X647082Y562934D01*
X646081Y564666D01*
X644667Y566082D01*
X642934Y567082D01*
X641649Y567426D01*
Y571015D01*
X641397Y572283D01*
X640678Y573358D01*
X627600Y586436D01*
Y602050D01*
X623314D01*
Y619850D01*
X627600D01*
Y631024D01*
X629051Y631484D01*
X629100Y631485D01*
X632567Y628017D01*
X632567Y628017D01*
X633477Y627410D01*
X634550Y627196D01*
X637800D01*
Y619850D01*
X642596D01*
Y602050D01*
X637800D01*
Y581750D01*
X649979D01*
X650250Y581696D01*
X651639D01*
X665317Y568017D01*
X665317Y568017D01*
X666227Y567410D01*
X667300Y567196D01*
X692883D01*
X692918Y567066D01*
X693919Y565334D01*
X695333Y563918D01*
X697066Y562918D01*
X698999Y562400D01*
X701001D01*
X702934Y562918D01*
X704667Y563918D01*
X706081Y565334D01*
X707082Y567066D01*
X707600Y568999D01*
Y571001D01*
X707082Y572934D01*
X706081Y574666D01*
X704667Y576082D01*
X702934Y577082D01*
X701001Y577600D01*
X698999D01*
X697066Y577082D01*
X695333Y576082D01*
X693919Y574666D01*
X692918Y572934D01*
X692883Y572804D01*
X668461D01*
X654783Y586483D01*
X653873Y587090D01*
X653000Y587264D01*
Y602050D01*
X648204D01*
Y619850D01*
X653000D01*
Y640150D01*
X637800D01*
Y632804D01*
X635711D01*
X633875Y634640D01*
Y638421D01*
X633662Y639494D01*
X633054Y640404D01*
X629575Y643883D01*
X628666Y644491D01*
X627593Y644704D01*
X559881D01*
X558808Y644491D01*
X557899Y643883D01*
X541815Y627799D01*
X534220D01*
Y616166D01*
X524329Y606276D01*
X522934Y607082D01*
X521001Y607600D01*
X518999D01*
X517066Y607082D01*
X515334Y606082D01*
X513918Y604666D01*
X512918Y602934D01*
X512400Y601001D01*
Y598999D01*
X512918Y597066D01*
X513918Y595334D01*
X515334Y593918D01*
X517066Y592918D01*
X518999Y592400D01*
X521001D01*
X522934Y592918D01*
X524666Y593918D01*
X526082Y595334D01*
X527082Y597066D01*
X527600Y598999D01*
Y601001D01*
X527470Y601486D01*
X538185Y612201D01*
X545780D01*
Y623834D01*
X547066Y625119D01*
X548451Y624545D01*
Y621270D01*
X554252D01*
Y629089D01*
X552995D01*
X552421Y630475D01*
X561043Y639096D01*
X612400D01*
Y619850D01*
X616686D01*
Y602050D01*
X612400D01*
Y581750D01*
X622914D01*
X635022Y569642D01*
Y565770D01*
X633918Y564666D01*
X632918Y562934D01*
X632400Y561001D01*
Y558999D01*
X632918Y557066D01*
X633918Y555334D01*
X634948Y554304D01*
X634403Y552804D01*
X597750D01*
Y559000D01*
X582750D01*
Y541000D01*
X597750D01*
Y547196D01*
X743839D01*
X773017Y518017D01*
X773017Y518017D01*
X773927Y517410D01*
X775000Y517196D01*
X788839D01*
X805981Y500054D01*
Y488271D01*
X806195Y487198D01*
X806802Y486288D01*
X823523Y469567D01*
X824433Y468960D01*
X825506Y468746D01*
X829633D01*
X830779Y467600D01*
X830157Y466100D01*
X828802D01*
X826488Y465480D01*
X825852Y465113D01*
X794733Y496233D01*
X793823Y496840D01*
X792750Y497054D01*
X663406D01*
X662333Y496840D01*
X661424Y496233D01*
X654245Y489054D01*
X595000D01*
X594729Y489000D01*
X582750D01*
Y472054D01*
X577250D01*
Y489000D01*
X566215D01*
X563233Y491983D01*
X562323Y492590D01*
X561250Y492804D01*
X543541D01*
Y497799D01*
X535946D01*
X502804Y530941D01*
Y532883D01*
X502934Y532918D01*
X504666Y533918D01*
X506082Y535334D01*
X507082Y537066D01*
X507600Y538999D01*
Y541001D01*
X507082Y542934D01*
X506082Y544666D01*
X504666Y546082D01*
X502934Y547082D01*
X501001Y547600D01*
X498999D01*
X497066Y547082D01*
X495334Y546082D01*
X493918Y544666D01*
X492918Y542934D01*
X492400Y541001D01*
Y538999D01*
X492918Y537066D01*
X493918Y535334D01*
X495334Y533918D01*
X497066Y532918D01*
X497196Y532883D01*
Y529780D01*
X497410Y528707D01*
X498017Y527797D01*
X525339Y500475D01*
X524765Y499089D01*
X523509D01*
Y491270D01*
X529310D01*
Y494545D01*
X530695Y495119D01*
X531981Y493834D01*
Y482201D01*
X543541D01*
Y487196D01*
X560089D01*
X562250Y485035D01*
Y475182D01*
X560864Y474608D01*
X558990Y476483D01*
X558080Y477090D01*
X557007Y477304D01*
X523579D01*
X521357Y479525D01*
X521931Y480911D01*
X529310D01*
Y488730D01*
X515169D01*
Y487673D01*
X513783Y487099D01*
X511400Y489483D01*
X510490Y490090D01*
X509417Y490304D01*
X460250D01*
X459177Y490090D01*
X459115Y490049D01*
X453750D01*
X452775Y489855D01*
X451948Y489302D01*
X451395Y488475D01*
X451201Y487500D01*
X451395Y486525D01*
X451948Y485698D01*
Y484302D01*
X451395Y483475D01*
X451201Y482500D01*
X451395Y481525D01*
X451948Y480698D01*
Y479302D01*
X451395Y478475D01*
X451201Y477500D01*
X451395Y476525D01*
X450555Y475367D01*
X450436Y475259D01*
X449439Y474593D01*
X446657Y471811D01*
X445939Y470736D01*
X445686Y469468D01*
Y435814D01*
X394314D01*
Y489517D01*
X395814Y490319D01*
X396021Y490180D01*
X396230Y490138D01*
Y500250D01*
X398770D01*
Y490138D01*
X398979Y490180D01*
X400232Y491017D01*
X400325Y491157D01*
X401525Y491395D01*
X402500Y491201D01*
X403475Y491395D01*
X404302Y491948D01*
X405698D01*
X406525Y491395D01*
X407500Y491201D01*
X408475Y491395D01*
X409302Y491948D01*
X410698D01*
X411525Y491395D01*
X412500Y491201D01*
X413475Y491395D01*
X414302Y491948D01*
X415698D01*
X416525Y491395D01*
X417500Y491201D01*
X418475Y491395D01*
X419302Y491948D01*
X420698D01*
X421525Y491395D01*
X422500Y491201D01*
X423475Y491395D01*
X424302Y491948D01*
X425698D01*
X426525Y491395D01*
X427500Y491201D01*
X428475Y491395D01*
X429302Y491948D01*
X430698D01*
X431525Y491395D01*
X432500Y491201D01*
X433475Y491395D01*
X434302Y491948D01*
X435698D01*
X436525Y491395D01*
X437500Y491201D01*
X438475Y491395D01*
X439302Y491948D01*
X440698D01*
X441525Y491395D01*
X442500Y491201D01*
X443475Y491395D01*
X444302Y491948D01*
X445698D01*
X446525Y491395D01*
X447500Y491201D01*
X448475Y491395D01*
X449302Y491948D01*
X449855Y492775D01*
X450049Y493750D01*
Y499115D01*
X450090Y499177D01*
X450304Y500250D01*
Y505089D01*
X501983Y556767D01*
X502590Y557677D01*
X502804Y558750D01*
Y618839D01*
X536661Y652696D01*
X681581D01*
X688521Y645756D01*
D02*
G37*
G36*
X453000Y555035D02*
Y541000D01*
X463817D01*
X464392Y539614D01*
X452215Y527438D01*
X449751D01*
X445855Y531333D01*
X444946Y531940D01*
X443873Y532154D01*
X436127D01*
X435054Y531940D01*
X434145Y531333D01*
X415767Y512956D01*
X415159Y512046D01*
X414946Y510973D01*
Y509926D01*
X413475Y509105D01*
X413446Y509111D01*
X412500Y509299D01*
X411804Y509160D01*
X410796Y509695D01*
X410304Y510093D01*
Y516448D01*
X410983Y517126D01*
X411590Y518036D01*
X411804Y519109D01*
Y522563D01*
X412974Y522877D01*
X414707Y523878D01*
X416122Y525293D01*
X417123Y527026D01*
X417641Y528959D01*
Y530960D01*
X417123Y532893D01*
X416122Y534626D01*
X414707Y536041D01*
X412974Y537041D01*
X411041Y537559D01*
X409040D01*
X408746Y537480D01*
X407521Y538705D01*
X407600Y538999D01*
Y541001D01*
X407082Y542934D01*
X406082Y544666D01*
X405052Y545696D01*
X405597Y547196D01*
X432500D01*
Y541000D01*
X447500D01*
Y557642D01*
X447500Y558413D01*
X448975Y559059D01*
X453000Y555035D01*
D02*
G37*
G36*
X889220Y655810D02*
X888017Y654607D01*
X887410Y653698D01*
X887196Y652625D01*
Y581161D01*
X848017Y541983D01*
X847410Y541073D01*
X847196Y540000D01*
Y503561D01*
X834148Y490513D01*
X833512Y490880D01*
X831198Y491500D01*
X828802D01*
X826488Y490880D01*
X824413Y489682D01*
X822718Y487988D01*
X821520Y485913D01*
X820900Y483598D01*
Y482242D01*
X819400Y481621D01*
X811589Y489432D01*
Y501215D01*
X811375Y502288D01*
X810768Y503198D01*
X791983Y521983D01*
X791073Y522590D01*
X790000Y522804D01*
X776161D01*
X767365Y531600D01*
X767666Y532252D01*
X768240Y532847D01*
X769908Y532400D01*
X771909D01*
X773842Y532918D01*
X775575Y533918D01*
X776990Y535334D01*
X777990Y537066D01*
X778508Y538999D01*
Y541001D01*
X777990Y542934D01*
X776990Y544666D01*
X775575Y546082D01*
X773842Y547082D01*
X771909Y547600D01*
X769908D01*
X767975Y547082D01*
X767858Y547015D01*
X694129Y620744D01*
Y646917D01*
X693916Y647990D01*
X693308Y648900D01*
X686398Y655810D01*
X686972Y657196D01*
X888646D01*
X889220Y655810D01*
D02*
G37*
G36*
X394948Y545696D02*
X393918Y544666D01*
X392918Y542934D01*
X392400Y541001D01*
Y538999D01*
X392918Y537066D01*
X393918Y535334D01*
X395334Y533918D01*
X397066Y532918D01*
X397196Y532883D01*
Y514051D01*
X395696Y513348D01*
X395333Y513590D01*
X394260Y513804D01*
X381000D01*
X379927Y513590D01*
X379017Y512983D01*
X379017Y512982D01*
X373994Y507959D01*
X373431Y508284D01*
X371270Y508863D01*
Y501270D01*
X378863D01*
X378284Y503431D01*
X377959Y503994D01*
X382161Y508196D01*
X388793D01*
X389951Y506750D01*
Y502285D01*
X389439Y501518D01*
X389186Y500250D01*
Y496623D01*
X388657Y496093D01*
X387939Y495018D01*
X387686Y493750D01*
Y491214D01*
X386250Y490049D01*
X373250D01*
X372275Y489855D01*
X371448Y489302D01*
X370895Y488475D01*
X370701Y487500D01*
X370895Y486525D01*
X371448Y485698D01*
Y484302D01*
X370895Y483475D01*
X370701Y482500D01*
X370895Y481525D01*
X371448Y480698D01*
Y479302D01*
X370895Y478475D01*
X370701Y477500D01*
X370895Y476525D01*
X371448Y475698D01*
Y474302D01*
X370895Y473475D01*
X370701Y472500D01*
X370840Y471804D01*
X370305Y470796D01*
X369907Y470304D01*
X361411D01*
X356250Y475465D01*
Y488500D01*
X344432D01*
X343858Y489886D01*
X351169Y497196D01*
X361548D01*
X361716Y496569D01*
X362886Y494541D01*
X364541Y492886D01*
X366569Y491716D01*
X368730Y491137D01*
Y500000D01*
Y508863D01*
X366569Y508284D01*
X364541Y507114D01*
X362886Y505459D01*
X361716Y503431D01*
X361548Y502804D01*
X350007D01*
X348934Y502590D01*
X348025Y501983D01*
X336517Y490475D01*
X336059Y489790D01*
X333020D01*
Y480000D01*
X330480D01*
Y489790D01*
X329222D01*
X328648Y491176D01*
X350233Y512760D01*
X350840Y513670D01*
X351054Y514743D01*
Y541970D01*
X350840Y543043D01*
X350233Y543953D01*
X348375Y545810D01*
X348949Y547196D01*
X394403D01*
X394948Y545696D01*
D02*
G37*
G36*
X497196Y566099D02*
Y559911D01*
X446118Y508833D01*
X445980Y508741D01*
X444302Y508552D01*
X443475Y509105D01*
X442500Y509299D01*
X441525Y509105D01*
X440698Y508552D01*
X439302D01*
X438475Y509105D01*
X437500Y509299D01*
X436525Y509105D01*
X435698Y508552D01*
X434302D01*
X433475Y509105D01*
X432500Y509299D01*
X431525Y509105D01*
X430757Y508592D01*
X429264Y508901D01*
X429099Y510394D01*
X433979Y515274D01*
X435334Y513918D01*
X437066Y512918D01*
X438999Y512400D01*
X441001D01*
X442934Y512918D01*
X444666Y513918D01*
X446082Y515334D01*
X447082Y517066D01*
X447600Y518999D01*
Y520497D01*
X448295Y521434D01*
X448931Y521830D01*
X453377D01*
X454450Y522043D01*
X455359Y522651D01*
X490127Y557419D01*
X490127Y557419D01*
X490734Y558328D01*
X490948Y559401D01*
X490948Y559402D01*
Y561206D01*
X491322Y561306D01*
X493055Y562307D01*
X494470Y563722D01*
X495471Y565455D01*
X495696Y566297D01*
X497196Y566099D01*
D02*
G37*
G36*
X644339Y482103D02*
X644345Y481946D01*
X610703Y448304D01*
X608723D01*
X607650Y448090D01*
X606740Y447483D01*
X602711Y443454D01*
X596323D01*
X595702Y444954D01*
X596082Y445334D01*
X597082Y447066D01*
X597600Y448999D01*
Y451001D01*
X597082Y452934D01*
X596082Y454666D01*
X594666Y456082D01*
X592934Y457082D01*
X591001Y457600D01*
X588999D01*
X587066Y457082D01*
X585334Y456082D01*
X583918Y454666D01*
X582918Y452934D01*
X582883Y452804D01*
X581161D01*
X568905Y465060D01*
X569479Y466446D01*
X599250D01*
X600323Y466660D01*
X601126Y467196D01*
X602883D01*
X602918Y467066D01*
X603918Y465334D01*
X605334Y463918D01*
X607066Y462918D01*
X608999Y462400D01*
X611001D01*
X612934Y462918D01*
X614666Y463918D01*
X616082Y465334D01*
X617082Y467066D01*
X617600Y468999D01*
Y471001D01*
X617082Y472934D01*
X616082Y474666D01*
X614666Y476082D01*
X612934Y477082D01*
X611001Y477600D01*
X608999D01*
X607066Y477082D01*
X605334Y476082D01*
X603918Y474666D01*
X602918Y472934D01*
X602883Y472804D01*
X600000D01*
X599250Y472655D01*
X598178Y473238D01*
X597750Y473608D01*
Y483446D01*
X643872D01*
X644339Y482103D01*
D02*
G37*
G36*
X502206Y443378D02*
Y399086D01*
X495878Y392758D01*
X495381Y392014D01*
X495206Y391136D01*
Y389622D01*
X494706Y389122D01*
X494209Y388378D01*
X494034Y387500D01*
X494209Y386622D01*
X494706Y385878D01*
X497706Y382878D01*
X498451Y382380D01*
X499328Y382206D01*
X500914D01*
X502206Y380914D01*
Y379328D01*
X502380Y378451D01*
X502878Y377706D01*
X503706Y376878D01*
Y348122D01*
X497878Y342294D01*
X480950D01*
X457734Y365511D01*
X457456Y365696D01*
X457911Y367196D01*
X462099D01*
X466128Y363167D01*
X467037Y362560D01*
X468110Y362346D01*
X479373D01*
X480446Y362560D01*
X481356Y363167D01*
X486833Y368644D01*
X486833Y368644D01*
X487440Y369554D01*
X487654Y370627D01*
X487654Y370627D01*
Y381576D01*
X487440Y382649D01*
X486833Y383559D01*
X482804Y387588D01*
Y392883D01*
X482934Y392918D01*
X484666Y393918D01*
X486082Y395334D01*
X487082Y397066D01*
X487600Y398999D01*
Y401001D01*
X487082Y402934D01*
X486082Y404666D01*
X484666Y406082D01*
X482934Y407082D01*
X481001Y407600D01*
X478999D01*
X477066Y407082D01*
X475334Y406082D01*
X473918Y404666D01*
X472918Y402934D01*
X472400Y401001D01*
Y398999D01*
X472918Y397066D01*
X473918Y395334D01*
X475334Y393918D01*
X477066Y392918D01*
X477196Y392883D01*
Y386426D01*
X477410Y385353D01*
X478017Y384444D01*
X480121Y382340D01*
X479200Y381140D01*
X478433Y381582D01*
X476501Y382100D01*
X474500D01*
X472566Y381582D01*
X470834Y380582D01*
X469418Y379166D01*
X468418Y377434D01*
X468383Y377304D01*
X458218D01*
X457039Y378483D01*
X456129Y379090D01*
X455056Y379304D01*
X454585D01*
X439589Y394300D01*
X440037Y395974D01*
X441108Y396260D01*
X442841Y397261D01*
X444256Y398676D01*
X445256Y400409D01*
X445774Y402342D01*
Y404343D01*
X445672Y404724D01*
X446831Y406196D01*
X451931D01*
X452886Y404541D01*
X454541Y402886D01*
X456569Y401716D01*
X458730Y401137D01*
Y410000D01*
Y418863D01*
X456569Y418284D01*
X454541Y417114D01*
X452886Y415459D01*
X451716Y413431D01*
X451549Y413406D01*
X450049Y414698D01*
Y417715D01*
X450561Y418482D01*
X450814Y419750D01*
Y423377D01*
X456872Y429436D01*
X458993D01*
X460250Y429186D01*
X461518Y429439D01*
X462285Y429951D01*
X466750D01*
X467725Y430145D01*
X468552Y430698D01*
X469105Y431525D01*
X469299Y432500D01*
X469105Y433475D01*
X468552Y434302D01*
Y435698D01*
X469105Y436525D01*
X469299Y437500D01*
X469105Y438475D01*
X468552Y439302D01*
Y440698D01*
X469105Y441525D01*
X469299Y442500D01*
X469105Y443475D01*
X468552Y444302D01*
Y445698D01*
X469105Y446525D01*
X469299Y447500D01*
X469105Y448475D01*
X468951Y448706D01*
X469695Y450206D01*
X495378D01*
X502206Y443378D01*
D02*
G37*
G36*
X343205Y443431D02*
X342918Y442934D01*
X342400Y441001D01*
Y438999D01*
X342918Y437066D01*
X343918Y435334D01*
X345334Y433918D01*
X347066Y432918D01*
X348999Y432400D01*
X351001D01*
X352934Y432918D01*
X354666Y433918D01*
X356082Y435334D01*
X357082Y437066D01*
X357600Y438999D01*
Y439696D01*
X363610D01*
X364231Y438196D01*
X353994Y427959D01*
X353431Y428284D01*
X351270Y428863D01*
Y421270D01*
X358863D01*
X358284Y423431D01*
X357959Y423994D01*
X368251Y434285D01*
X369762Y434235D01*
X370547Y433363D01*
X370523Y432960D01*
X366657Y429093D01*
X365938Y428018D01*
X365686Y426750D01*
Y392233D01*
X364835Y391796D01*
X364186Y391700D01*
X344992Y410894D01*
X345913Y412094D01*
X346569Y411716D01*
X348730Y411137D01*
Y418730D01*
X341137D01*
X341716Y416569D01*
X342094Y415913D01*
X340894Y414992D01*
X317193Y438693D01*
X316118Y439411D01*
X314850Y439664D01*
X309560D01*
X309105Y441164D01*
X309179Y441213D01*
X312896Y444931D01*
X342339D01*
X343205Y443431D01*
D02*
G37*
G36*
X585187Y397081D02*
Y387799D01*
X574220D01*
Y382804D01*
X547938D01*
X539842Y390900D01*
X540464Y392400D01*
X541001D01*
X542934Y392918D01*
X544666Y393918D01*
X546082Y395334D01*
X547082Y397066D01*
X547117Y397196D01*
X585073D01*
X585187Y397081D01*
D02*
G37*
G36*
X838046Y373856D02*
Y362345D01*
X836546Y361723D01*
X835587Y362682D01*
X833512Y363880D01*
X831198Y364500D01*
X828802D01*
X826488Y363880D01*
X824413Y362682D01*
X822718Y360988D01*
X821520Y358913D01*
X821330Y358204D01*
X813329D01*
X812755Y359590D01*
X825852Y372687D01*
X826488Y372320D01*
X828802Y371700D01*
X831198D01*
X833512Y372320D01*
X835587Y373518D01*
X836546Y374477D01*
X838046Y373856D01*
D02*
G37*
G36*
X454025Y362266D02*
X454769Y361769D01*
X455041Y361715D01*
X475066Y341690D01*
X474492Y340304D01*
X451750D01*
Y362581D01*
X453136Y363155D01*
X454025Y362266D01*
D02*
G37*
G36*
X686705Y303466D02*
X686964Y303078D01*
X692025Y298017D01*
X692025Y298017D01*
X692934Y297409D01*
X694007Y297196D01*
X706482D01*
X709374Y294304D01*
X708753Y292804D01*
X679143D01*
X671131Y300815D01*
X671705Y302201D01*
X681302D01*
Y307196D01*
X682975D01*
X686705Y303466D01*
D02*
G37*
%LPC*%
G36*
X471547Y611750D02*
X468453D01*
X465465Y610949D01*
X462785Y609402D01*
X460598Y607215D01*
X459051Y604535D01*
X458250Y601547D01*
Y598453D01*
X459051Y595465D01*
X460598Y592785D01*
X462785Y590598D01*
X465465Y589051D01*
X468453Y588250D01*
X471547D01*
X474535Y589051D01*
X477215Y590598D01*
X479402Y592785D01*
X480949Y595465D01*
X481750Y598453D01*
Y601547D01*
X480949Y604535D01*
X479402Y607215D01*
X477215Y609402D01*
X474535Y610949D01*
X471547Y611750D01*
D02*
G37*
G36*
X562592Y629089D02*
X556792D01*
Y621270D01*
X562592D01*
Y629089D01*
D02*
G37*
G36*
Y618730D02*
X556792D01*
Y610911D01*
X562592D01*
Y618730D01*
D02*
G37*
G36*
X554252D02*
X548451D01*
Y610911D01*
X554252D01*
Y618730D01*
D02*
G37*
G36*
X577250Y559000D02*
X562250D01*
Y552804D01*
X543541D01*
Y557799D01*
X531981D01*
Y546166D01*
X530695Y544881D01*
X529310Y545455D01*
Y548730D01*
X523509D01*
Y540911D01*
X524765D01*
X525339Y539525D01*
X522090Y536276D01*
X520694Y537082D01*
X518761Y537600D01*
X516760D01*
X514827Y537082D01*
X513094Y536082D01*
X511679Y534666D01*
X510679Y532934D01*
X510161Y531001D01*
Y528999D01*
X510679Y527066D01*
X511679Y525334D01*
X513094Y523918D01*
X514827Y522918D01*
X516760Y522400D01*
X518761D01*
X520694Y522918D01*
X522427Y523918D01*
X523842Y525334D01*
X524843Y527066D01*
X525361Y528999D01*
Y531001D01*
X525231Y531486D01*
X535946Y542201D01*
X543541D01*
Y547196D01*
X562250D01*
Y541000D01*
X577250D01*
Y559000D01*
D02*
G37*
G36*
X529310Y559089D02*
X523509D01*
Y551270D01*
X529310D01*
Y559089D01*
D02*
G37*
G36*
X520969D02*
X515169D01*
Y551270D01*
X520969D01*
Y559089D01*
D02*
G37*
G36*
Y548730D02*
X515169D01*
Y540911D01*
X520969D01*
Y548730D01*
D02*
G37*
G36*
Y499089D02*
X515169D01*
Y491270D01*
X520969D01*
Y499089D01*
D02*
G37*
G36*
X852459Y651250D02*
X847541D01*
X842682Y650480D01*
X838004Y648960D01*
X833621Y646727D01*
X829642Y643836D01*
X826164Y640358D01*
X823273Y636379D01*
X821040Y631996D01*
X819520Y627318D01*
X818750Y622459D01*
Y617541D01*
X819520Y612682D01*
X821040Y608004D01*
X823273Y603621D01*
X826164Y599642D01*
X829642Y596164D01*
X833621Y593273D01*
X838004Y591040D01*
X842682Y589520D01*
X847541Y588750D01*
X852459D01*
X857318Y589520D01*
X861996Y591040D01*
X866379Y593273D01*
X870358Y596164D01*
X873836Y599642D01*
X876727Y603621D01*
X878960Y608004D01*
X880480Y612682D01*
X881250Y617541D01*
Y622459D01*
X880480Y627318D01*
X878960Y631996D01*
X876727Y636379D01*
X873836Y640358D01*
X870358Y643836D01*
X866379Y646727D01*
X861996Y648960D01*
X857318Y650480D01*
X852459Y651250D01*
D02*
G37*
G36*
X781547Y611750D02*
X778453D01*
X775465Y610949D01*
X772785Y609402D01*
X770598Y607215D01*
X769051Y604535D01*
X768250Y601547D01*
Y598453D01*
X769051Y595465D01*
X770598Y592785D01*
X772785Y590598D01*
X775465Y589051D01*
X778453Y588250D01*
X781547D01*
X784535Y589051D01*
X787215Y590598D01*
X789402Y592785D01*
X790949Y595465D01*
X791750Y598453D01*
Y601547D01*
X790949Y604535D01*
X789402Y607215D01*
X787215Y609402D01*
X784535Y610949D01*
X781547Y611750D01*
D02*
G37*
G36*
X378863Y498730D02*
X371270D01*
Y491137D01*
X373431Y491716D01*
X375459Y492886D01*
X377114Y494541D01*
X378284Y496569D01*
X378863Y498730D01*
D02*
G37*
G36*
X461270Y418863D02*
Y411270D01*
X468863D01*
X468284Y413431D01*
X467114Y415459D01*
X465459Y417114D01*
X463431Y418284D01*
X461270Y418863D01*
D02*
G37*
G36*
X468863Y408730D02*
X461270D01*
Y401137D01*
X463431Y401716D01*
X465459Y402886D01*
X467114Y404541D01*
X468284Y406569D01*
X468863Y408730D01*
D02*
G37*
G36*
X348730Y428863D02*
X346569Y428284D01*
X344541Y427114D01*
X342886Y425459D01*
X341716Y423431D01*
X341137Y421270D01*
X348730D01*
Y428863D01*
D02*
G37*
G36*
X358863Y418730D02*
X351270D01*
Y411137D01*
X353431Y411716D01*
X355459Y412886D01*
X357114Y414541D01*
X358284Y416569D01*
X358863Y418730D01*
D02*
G37*
%LPD*%
G36*
X326128Y127114D02*
X324407Y125393D01*
X323689Y124318D01*
X323436Y123050D01*
Y97500D01*
X311064D01*
Y124628D01*
X314936Y128500D01*
X325554D01*
X326128Y127114D01*
D02*
G37*
D11*
X460250Y452500D02*
X496328D01*
X403114Y368000D02*
X451535D01*
X455647Y363889D02*
X456111D01*
X451535Y368000D02*
X455647Y363889D01*
X456111D02*
X480000Y340000D01*
X394500Y359386D02*
X403114Y368000D01*
X504500Y398136D02*
Y444328D01*
X497500Y391136D02*
X504500Y398136D01*
X496328Y387500D02*
X499328Y384500D01*
X496328Y387500D02*
X497500Y388672D01*
Y391136D01*
X501864Y384500D02*
X504500Y381864D01*
X499328Y384500D02*
X501864D01*
X504500Y379328D02*
Y381864D01*
Y379328D02*
X506000Y377828D01*
Y347172D02*
Y377828D01*
X480000Y340000D02*
X498828D01*
X496328Y452500D02*
X504500Y444328D01*
X394500Y345982D02*
Y359386D01*
X390000Y341482D02*
X394500Y345982D01*
X390000Y323600D02*
Y341482D01*
X498828Y340000D02*
X506000Y347172D01*
X388400Y322000D02*
X390000Y323600D01*
X386865Y322000D02*
X388400D01*
X384900Y320036D02*
X386865Y322000D01*
X384900Y312365D02*
Y320036D01*
Y312365D02*
X406332Y290932D01*
X409068D01*
X440000Y260000D01*
Y242500D02*
Y260000D01*
D15*
X236750Y436350D02*
X241750D01*
X227880Y445220D02*
X236750Y436350D01*
X181003Y445220D02*
X227880D01*
X171960Y429543D02*
Y436177D01*
X162917Y420500D02*
X171960Y429543D01*
X140000Y420500D02*
X162917D01*
X171960Y436177D02*
X181003Y445220D01*
X140000Y420500D02*
Y427204D01*
X143574Y430778D01*
X143696D01*
X147270Y434353D01*
Y450676D01*
X139000Y458946D02*
Y478500D01*
Y458946D02*
X147270Y450676D01*
X139000Y478500D02*
Y480000D01*
X121500Y461000D02*
X139000Y478500D01*
X120000Y461000D02*
X121500D01*
X72108Y410000D02*
X120000D01*
X50508Y431600D02*
X99320Y382788D01*
Y281914D02*
Y382788D01*
Y281914D02*
X144503Y236730D01*
X196730D01*
X210000Y250000D01*
X200950Y423650D02*
X241750D01*
X190000Y434600D02*
X200950Y423650D01*
X161861Y413730D02*
X176000Y427869D01*
Y432260D01*
X178340Y434600D01*
X190000D01*
X132730Y415353D02*
X134353Y413730D01*
X161861D01*
X150000Y250000D02*
Y334978D01*
X132730Y352248D02*
X150000Y334978D01*
X132730Y432730D02*
X139500Y439500D01*
X50508Y482400D02*
X93408Y439500D01*
X139500D02*
X140000D01*
X93408D02*
X140000D01*
X132730Y352248D02*
Y432730D01*
X287230Y416970D02*
Y440462D01*
X289798Y443030D02*
X307362D01*
X287230Y440462D02*
X289798Y443030D01*
X346222Y449120D02*
X353778D01*
X311832Y447500D02*
X344602D01*
X346222Y449120D01*
X353778D02*
X355398Y447500D01*
X379750D01*
X293250Y410950D02*
X298250D01*
X287230Y416970D02*
X293250Y410950D01*
X307362Y443030D02*
X311832Y447500D01*
D16*
X241750Y436350D02*
D03*
Y410950D02*
D03*
X298250Y423650D02*
D03*
X241750D02*
D03*
Y449050D02*
D03*
X298250Y410950D02*
D03*
Y436350D02*
D03*
Y449050D02*
D03*
D17*
X140000Y420500D02*
D03*
X160000Y430000D02*
D03*
X140000Y439500D02*
D03*
D18*
X139000Y480000D02*
D03*
X160000D02*
D03*
D19*
X199250Y350000D02*
D03*
X239250D02*
D03*
X279250D02*
D03*
X320000D02*
D03*
X280000Y490000D02*
D03*
X600750Y260000D02*
D03*
X769250Y310000D02*
D03*
Y370000D02*
D03*
Y430000D02*
D03*
X770000Y480000D02*
D03*
X619250Y260000D02*
D03*
X750750Y430000D02*
D03*
Y370000D02*
D03*
X220750Y350000D02*
D03*
X750750Y310000D02*
D03*
X301500Y350000D02*
D03*
X298500Y490000D02*
D03*
X260750Y350000D02*
D03*
X180750D02*
D03*
X751500Y480000D02*
D03*
D20*
X389000Y140000D02*
D03*
X351000Y380000D02*
D03*
X508000Y140000D02*
D03*
X569000D02*
D03*
X371000D02*
D03*
X551000D02*
D03*
X490000D02*
D03*
X369000Y380000D02*
D03*
D21*
X320000Y176250D02*
D03*
Y143750D02*
D03*
D22*
X390000Y316200D02*
D03*
X490000Y320000D02*
D03*
Y327600D02*
D03*
X390000Y323800D02*
D03*
D23*
X331750Y480000D02*
D03*
X348250D02*
D03*
D24*
X442500Y419750D02*
D03*
X397500Y500250D02*
D03*
X447500Y419750D02*
D03*
X437500D02*
D03*
X432500D02*
D03*
X427500D02*
D03*
X422500D02*
D03*
X417500D02*
D03*
X412500D02*
D03*
X407500D02*
D03*
X402500D02*
D03*
X397500D02*
D03*
X392500D02*
D03*
Y500250D02*
D03*
X402500D02*
D03*
X407500D02*
D03*
X412500D02*
D03*
X417500D02*
D03*
X422500D02*
D03*
X427500D02*
D03*
X432500D02*
D03*
X437500D02*
D03*
X442500D02*
D03*
X447500D02*
D03*
D25*
X379750Y437500D02*
D03*
X460250Y467500D02*
D03*
X379750Y432500D02*
D03*
Y442500D02*
D03*
Y447500D02*
D03*
Y452500D02*
D03*
Y457500D02*
D03*
Y462500D02*
D03*
Y467500D02*
D03*
Y472500D02*
D03*
Y477500D02*
D03*
Y482500D02*
D03*
Y487500D02*
D03*
X460250D02*
D03*
Y482500D02*
D03*
Y477500D02*
D03*
Y472500D02*
D03*
Y462500D02*
D03*
Y457500D02*
D03*
Y452500D02*
D03*
Y447500D02*
D03*
Y442500D02*
D03*
Y437500D02*
D03*
Y432500D02*
D03*
D26*
X347761Y560000D02*
D03*
X595522Y380000D02*
D03*
X522239Y550000D02*
D03*
Y490000D02*
D03*
X555522Y620000D02*
D03*
X537761Y550000D02*
D03*
Y490000D02*
D03*
X675522Y310000D02*
D03*
X660000D02*
D03*
X580000Y380000D02*
D03*
X540000Y620000D02*
D03*
X332239Y560000D02*
D03*
X677761Y370000D02*
D03*
X662239D02*
D03*
X680000Y430000D02*
D03*
X664478D02*
D03*
X522239Y350000D02*
D03*
X537761D02*
D03*
X680000Y480000D02*
D03*
X664478D02*
D03*
D27*
X400500Y630000D02*
D03*
X600500Y100000D02*
D03*
X730000Y160000D02*
D03*
X670000D02*
D03*
X689000D02*
D03*
X619500Y100000D02*
D03*
X749000Y160000D02*
D03*
X419500Y630000D02*
D03*
D28*
X486000Y43650D02*
D03*
Y56350D02*
D03*
X534000D02*
D03*
Y69050D02*
D03*
X486000D02*
D03*
Y30950D02*
D03*
X534000Y43650D02*
D03*
Y30950D02*
D03*
D29*
X450000Y140000D02*
D03*
X420000D02*
D03*
D30*
X552700Y240950D02*
D03*
Y279050D02*
D03*
X620000Y591900D02*
D03*
Y630000D02*
D03*
X645400Y591900D02*
D03*
Y630000D02*
D03*
X527300Y240950D02*
D03*
Y279050D02*
D03*
D31*
X720000Y480000D02*
D03*
Y310000D02*
D03*
Y430000D02*
D03*
Y370000D02*
D03*
X700000Y310000D02*
D03*
Y370000D02*
D03*
Y430000D02*
D03*
Y480000D02*
D03*
D32*
X320000Y83000D02*
D03*
Y40000D02*
D03*
D33*
X740250Y240000D02*
D03*
X719750D02*
D03*
X680000D02*
D03*
X659500D02*
D03*
X620500Y40000D02*
D03*
X600000D02*
D03*
X590250Y550000D02*
D03*
X569750D02*
D03*
X590250Y480000D02*
D03*
X569750D02*
D03*
X460500Y550000D02*
D03*
X440000D02*
D03*
X370500Y630000D02*
D03*
X350000D02*
D03*
D34*
X440000Y242500D02*
D03*
Y337500D02*
D03*
D35*
X270000Y33850D02*
D03*
Y86150D02*
D03*
D36*
X50508Y380800D02*
D03*
Y330000D02*
D03*
Y431600D02*
D03*
D37*
Y279200D02*
D03*
Y533200D02*
D03*
D38*
Y482400D02*
D03*
D39*
X210000Y250000D02*
D03*
X180000Y180000D02*
D03*
X270000Y250000D02*
D03*
X150000D02*
D03*
X260000Y170000D02*
D03*
X470000Y600000D02*
D03*
X120000Y610000D02*
D03*
X290000Y560000D02*
D03*
X780000Y600000D02*
D03*
X370000Y230000D02*
D03*
X740000Y70000D02*
D03*
D40*
X205400Y121400D02*
D03*
D41*
X390000Y60000D02*
D03*
Y34600D02*
D03*
Y85400D02*
D03*
D42*
X240000Y621600D02*
D03*
Y596200D02*
D03*
Y545400D02*
D03*
Y570800D02*
D03*
D43*
X830000Y304600D02*
D03*
X590000Y350000D02*
D03*
X830000Y330000D02*
D03*
Y355400D02*
D03*
Y380800D02*
D03*
Y406200D02*
D03*
Y431600D02*
D03*
Y457000D02*
D03*
Y482400D02*
D03*
Y279200D02*
D03*
X190000Y460000D02*
D03*
D44*
Y434600D02*
D03*
X590000Y324600D02*
D03*
X830000Y253800D02*
D03*
D45*
X154600Y121400D02*
D03*
D46*
X240000Y520000D02*
D03*
D47*
X850000Y620000D02*
D03*
X50000D02*
D03*
X850000Y50000D02*
D03*
X50000D02*
D03*
D48*
X120000Y461000D02*
D03*
Y410000D02*
D03*
X790000Y320000D02*
D03*
X720000Y340000D02*
D03*
X460000Y410000D02*
D03*
X370000Y500000D02*
D03*
X350000Y420000D02*
D03*
X298250Y422050D02*
D03*
X509148Y115089D02*
D03*
X570000Y120000D02*
D03*
X650000Y170000D02*
D03*
X710000D02*
D03*
X600000Y240000D02*
D03*
X610000Y400000D02*
D03*
X480000Y300000D02*
D03*
X320000Y540000D02*
D03*
X390000Y610000D02*
D03*
X610000Y210000D02*
D03*
X260000Y490000D02*
D03*
X730000Y460000D02*
D03*
X790000Y380000D02*
D03*
X740000Y410000D02*
D03*
X700000Y350000D02*
D03*
X810000Y210000D02*
D03*
X870000Y520000D02*
D03*
X438174Y403343D02*
D03*
X640000Y560000D02*
D03*
X700000Y570000D02*
D03*
X480000Y400000D02*
D03*
X530000Y420000D02*
D03*
X475500Y374500D02*
D03*
X540000Y400000D02*
D03*
X560000Y370000D02*
D03*
X540000Y450000D02*
D03*
X488389Y568389D02*
D03*
X517761Y530000D02*
D03*
X500000Y540000D02*
D03*
X440000Y520000D02*
D03*
X410000Y560000D02*
D03*
X520000Y600000D02*
D03*
X390000Y390000D02*
D03*
X210000Y470000D02*
D03*
X350000Y440000D02*
D03*
X270000Y600000D02*
D03*
X400000Y540000D02*
D03*
X410041Y529959D02*
D03*
X640000Y430000D02*
D03*
X790000Y150000D02*
D03*
X540000Y320000D02*
D03*
X530000Y161000D02*
D03*
X770908Y540000D02*
D03*
X750000Y350000D02*
D03*
X710000Y400000D02*
D03*
X649350Y379350D02*
D03*
X610000Y470000D02*
D03*
X590000Y450000D02*
D03*
D49*
X180000Y146800D02*
X205400Y121400D01*
X180000Y146800D02*
Y180000D01*
X552700Y240950D02*
Y279050D01*
X486000Y43650D02*
Y56350D01*
X780000Y310000D02*
X790000Y320000D01*
X769250Y310000D02*
X780000D01*
X720000D02*
Y340000D01*
X442500Y419750D02*
X442750Y419500D01*
Y411990D02*
Y419500D01*
Y411990D02*
X445740Y409000D01*
X459000D01*
X460000Y410000D01*
X367500Y437500D02*
X379750D01*
X397250Y500500D02*
X397500Y500250D01*
X397250Y500500D02*
Y508010D01*
X394260Y511000D02*
X397250Y508010D01*
X381000Y511000D02*
X394260D01*
X370000Y500000D02*
X381000Y511000D01*
X350000Y420000D02*
X367500Y437500D01*
X298250Y422050D02*
Y423650D01*
X509148Y115089D02*
Y138852D01*
X508000Y140000D02*
X509148Y138852D01*
X569000Y140000D02*
X570000Y139000D01*
Y120000D02*
Y139000D01*
X650000Y170000D02*
X650850Y169150D01*
X660850D01*
X666000Y164000D01*
X667000D01*
X670000Y161000D01*
Y160000D02*
Y161000D01*
X710000Y170000D02*
X710850Y169150D01*
X720850D01*
X726000Y164000D01*
X727000D01*
X730000Y161000D01*
Y160000D02*
Y161000D01*
X552700Y238400D02*
Y240950D01*
Y238400D02*
X557550Y233550D01*
X600000Y240000D02*
Y259250D01*
X600750Y260000D01*
X608144Y398144D02*
X610000Y400000D01*
X608144Y394641D02*
Y398144D01*
X595522Y382019D02*
X608144Y394641D01*
X595522Y380000D02*
Y382019D01*
X480000Y300000D02*
X490000Y310000D01*
Y320000D01*
X320000Y540000D02*
Y542625D01*
X324709Y547334D01*
Y567792D01*
X326466Y569549D01*
X340230D01*
X347761Y562019D01*
Y560000D02*
Y562019D01*
X400500Y629000D02*
Y630000D01*
X391856Y620356D02*
X400500Y629000D01*
X391856Y611856D02*
Y620356D01*
X390000Y610000D02*
X391856Y611856D01*
X610000Y210000D02*
Y230000D01*
X600000Y240000D02*
X610000Y230000D01*
X260000Y490000D02*
X280000D01*
X720000Y470000D02*
Y480000D01*
Y470000D02*
X730000Y460000D01*
X769250Y370000D02*
X780000D01*
X790000Y380000D01*
X720000Y428250D02*
Y430000D01*
Y428250D02*
X738250Y410000D01*
X740000D01*
X716500Y366500D02*
X720000Y370000D01*
X716500Y364143D02*
Y366500D01*
X702357Y350000D02*
X716500Y364143D01*
X700000Y350000D02*
X702357D01*
X350007Y500000D02*
X370000D01*
X338500Y488493D02*
X350007Y500000D01*
X338500Y487250D02*
Y488493D01*
X331750Y480500D02*
X338500Y487250D01*
X331750Y480000D02*
Y480500D01*
X720000Y340000D02*
Y370000D01*
X348250Y514743D02*
Y541970D01*
X322000Y471507D02*
Y488493D01*
Y471507D02*
X323757Y469750D01*
X339743D01*
X341500Y471507D01*
Y472750D01*
X348250Y479500D01*
Y480000D01*
X322000Y488493D02*
X348250Y514743D01*
X706243Y360250D02*
X712000Y366007D01*
Y377993D01*
X589350Y226127D02*
Y264593D01*
X560293Y229050D02*
X568693Y220650D01*
X545107Y229050D02*
X560293D01*
X568693Y220650D02*
X583873D01*
X589350Y226127D01*
X460250Y457500D02*
X502500D01*
X460250Y462500D02*
X503864D01*
X340220Y550000D02*
X440000D01*
X340220D02*
X348250Y541970D01*
X332239Y557981D02*
X340220Y550000D01*
X587991Y372208D02*
X610000Y350200D01*
X587991Y372208D02*
Y398243D01*
X586234Y400000D02*
X587991Y398243D01*
X540000Y400000D02*
X586234D01*
X610000Y335625D02*
Y350200D01*
X589350Y264593D02*
X594757Y270000D01*
X858243Y182485D02*
X870000Y194243D01*
Y520000D01*
X402250Y500500D02*
Y509374D01*
X400000Y511624D02*
X402250Y509374D01*
X400000Y511624D02*
Y540000D01*
X402250Y500500D02*
X402500Y500250D01*
X463260Y370000D02*
X468110Y365150D01*
X455192Y370000D02*
X463260D01*
X449930Y372000D02*
X453192D01*
X424324Y397606D02*
Y409064D01*
X426750Y411490D01*
Y411505D01*
X427250Y412005D01*
Y419500D01*
X431250Y409626D02*
Y409641D01*
X432250Y410641D01*
X424324Y397606D02*
X449930Y372000D01*
X428824Y399470D02*
X434191Y394103D01*
X428824Y399470D02*
Y407200D01*
X431250Y409626D01*
X432250Y410641D02*
Y419500D01*
X437750Y403767D02*
X438174Y403343D01*
X437750Y403767D02*
Y419500D01*
X468110Y365150D02*
X479373D01*
X434191Y394103D02*
X435821D01*
X453424Y376500D01*
X726243Y300250D02*
X735993Y310000D01*
X711629Y302379D02*
X713757Y300250D01*
X711629Y302379D02*
Y307871D01*
X709500Y310000D02*
X711629Y307871D01*
X728107Y295750D02*
X732357Y300000D01*
X711893Y295750D02*
X728107D01*
X707643Y300000D02*
X711893Y295750D01*
X694007Y300000D02*
X707643D01*
X713757Y300250D02*
X726243D01*
X732357Y300000D02*
X810056D01*
X685492Y360250D02*
X706243D01*
X728000Y371629D02*
Y377993D01*
Y371629D02*
X739629Y360000D01*
X809200D01*
X707500Y379250D02*
Y379857D01*
X700000Y371750D02*
X707500Y379250D01*
X700000Y370000D02*
Y371750D01*
X707500Y379857D02*
X711893Y384250D01*
X728107D01*
X732500Y379857D01*
Y373493D02*
Y379857D01*
Y373493D02*
X735993Y370000D01*
X712000Y377993D02*
X713757Y379750D01*
X677761Y367981D02*
X685492Y360250D01*
X726243Y379750D02*
X728000Y377993D01*
X713757Y379750D02*
X726243D01*
X667300Y570000D02*
X700000D01*
X652800Y584500D02*
X667300Y570000D01*
X650250Y584500D02*
X652800D01*
X645400Y589350D02*
X650250Y584500D01*
X645400Y589350D02*
Y591900D01*
X590250Y550000D02*
X745000D01*
X775000Y520000D01*
X427250Y419500D02*
X427500Y419750D01*
X453192Y372000D02*
X455192Y370000D01*
X479373Y365150D02*
X484850Y370627D01*
Y381576D01*
X480000Y386426D02*
X484850Y381576D01*
X480000Y386426D02*
Y400000D01*
X530000Y396777D02*
Y420000D01*
Y396777D02*
X546777Y380000D01*
X580000D01*
X432250Y419500D02*
X432500Y419750D01*
X453424Y376500D02*
X455056D01*
X457056Y374500D01*
X475500D01*
X510000Y334400D02*
Y450000D01*
X520650Y416127D02*
Y423873D01*
Y416127D02*
X522239Y414538D01*
Y425462D02*
Y444125D01*
Y350000D02*
Y414538D01*
X520650Y423873D02*
X522239Y425462D01*
X610000Y335625D02*
X699375Y246250D01*
X715000D01*
X719750Y241500D01*
Y240000D02*
Y241500D01*
X437500Y419750D02*
X437750Y419500D01*
X613779Y280879D02*
X620121D01*
X560000Y334657D02*
X613779Y280879D01*
X749000Y160000D02*
Y161000D01*
X740250Y169750D02*
X749000Y161000D01*
X740250Y169750D02*
Y240000D01*
X689000Y160000D02*
Y161000D01*
X680000Y170000D02*
X689000Y161000D01*
X680000Y170000D02*
Y240000D01*
X560000Y334657D02*
Y370000D01*
X620121Y280879D02*
X659500Y241500D01*
Y240000D02*
Y241500D01*
X160000Y480000D02*
X170000D01*
X190000Y460000D01*
X503864Y462500D02*
X516364Y450000D01*
X540000D01*
X516364D02*
X522239Y444125D01*
X502500Y457500D02*
X510000Y450000D01*
X496800Y334400D02*
X510000D01*
X520000Y470000D02*
X555143D01*
X506136Y477500D02*
X518136Y465500D01*
X507500Y482500D02*
X520000Y470000D01*
X522417Y474500D02*
X557007D01*
X518136Y465500D02*
X553279D01*
X509417Y487500D02*
X522417Y474500D01*
X488144Y568144D02*
X488389Y568389D01*
X453377Y524634D02*
X488144Y559401D01*
X517761Y530000D02*
X519780D01*
X488144Y559401D02*
Y568144D01*
X500000Y558750D02*
Y620000D01*
X535500Y655500D01*
X447500Y506250D02*
X500000Y558750D01*
Y529780D02*
Y540000D01*
X478343Y336000D02*
X481600D01*
X476843Y337500D02*
X478343Y336000D01*
X481600D02*
X488700Y328900D01*
X440000Y337500D02*
X476843D01*
X422500Y500250D02*
X422750Y500500D01*
Y508010D01*
X432884Y518144D01*
X438144D01*
X440000Y520000D01*
X436127Y529350D02*
X443873D01*
X417750Y510973D02*
X436127Y529350D01*
X417750Y500500D02*
Y510973D01*
X417500Y500250D02*
X417750Y500500D01*
X443873Y529350D02*
X448589Y524634D01*
X453377D01*
X354750Y615250D02*
X410000Y560000D01*
X354750Y615250D02*
Y625250D01*
X350000Y630000D02*
X354750Y625250D01*
X401757Y580000D02*
X432000D01*
X400000Y581757D02*
Y608243D01*
Y581757D02*
X401757Y580000D01*
X432000D02*
X460500Y551500D01*
X520000Y600000D02*
X522019D01*
X540000Y617981D01*
Y620000D01*
X407500Y500250D02*
Y517609D01*
X540000Y620000D02*
Y622019D01*
X559881Y641900D01*
X627593D01*
X631071Y638421D01*
Y633479D02*
Y638421D01*
Y633479D02*
X634550Y630000D01*
X645400D01*
Y591900D02*
Y630000D01*
X410500D02*
X419500D01*
X408000Y632500D02*
X410500Y630000D01*
X408000Y632500D02*
Y636743D01*
X406243Y638500D02*
X408000Y636743D01*
X394757Y638500D02*
X406243D01*
X386257Y630000D02*
X394757Y638500D01*
X370500Y630000D02*
X386257D01*
X392500Y395125D02*
Y419750D01*
X390000Y392625D02*
X392500Y395125D01*
X390000Y390000D02*
Y392625D01*
X180000Y500000D02*
X210000Y470000D01*
X180000Y500000D02*
Y576803D01*
X235547Y632350D01*
X297650D01*
X300000Y630000D01*
X306700Y452500D02*
X343564D01*
X355125Y442500D02*
X379750D01*
X344454Y453390D02*
X355546D01*
X343564Y452500D02*
X344454Y453390D01*
X355546D02*
X356436Y452500D01*
X350000Y440000D02*
X352625D01*
X355125Y442500D01*
X356436Y452500D02*
X379750D01*
X295000Y575000D02*
X300000Y580000D01*
X275000Y575000D02*
X295000D01*
X300000Y580000D02*
Y630000D01*
X266200Y596200D02*
X270000Y600000D01*
X240000Y596200D02*
X266200D01*
X240000Y570800D02*
X270800D01*
X275000Y575000D01*
X275400Y545400D02*
X290000Y560000D01*
X240000Y545400D02*
X275400D01*
X500000Y529780D02*
X537761Y492019D01*
Y490000D02*
Y492019D01*
X407500Y517609D02*
X409000Y519109D01*
Y528918D01*
X410041Y529959D01*
X640000Y430000D02*
X664478D01*
X580000Y360000D02*
Y380000D01*
Y360000D02*
X590000Y350000D01*
X748243Y290000D02*
X855757Y182485D01*
X677981Y290000D02*
X748243D01*
X855757Y182485D02*
X858243D01*
X610257Y260000D02*
X619250D01*
X608500Y261757D02*
X610257Y260000D01*
X608500Y261757D02*
Y268243D01*
X606743Y270000D02*
X608500Y268243D01*
X594757Y270000D02*
X606743D01*
X540607Y233550D02*
X545107Y229050D01*
X532150Y233550D02*
X540607D01*
X527300Y238400D02*
X532150Y233550D01*
X527300Y238400D02*
Y240950D01*
Y279050D01*
Y281600D01*
X522239Y286661D02*
X527300Y281600D01*
X522239Y286661D02*
Y350000D01*
X519780Y530000D02*
X537761Y547981D01*
Y550000D01*
X792750Y494250D02*
X830000Y457000D01*
X663406Y494250D02*
X792750D01*
X655406Y486250D02*
X663406Y494250D01*
X595000Y486250D02*
X655406D01*
X590250Y481500D02*
X595000Y486250D01*
X590250Y480000D02*
Y481500D01*
X808785Y488271D02*
Y501215D01*
X834494Y446150D02*
X840850Y452506D01*
Y461494D01*
X829906Y446150D02*
X834494D01*
X830794Y471550D02*
X840850Y461494D01*
X825506Y471550D02*
X830794D01*
X808785Y488271D02*
X825506Y471550D01*
X827706Y443950D02*
X829906Y446150D01*
X775000Y520000D02*
X790000D01*
X808785Y501215D01*
X827706Y433894D02*
X830000Y431600D01*
X827706Y433894D02*
Y443950D01*
X537761Y550000D02*
X569750D01*
Y480000D02*
Y481500D01*
X561250Y490000D02*
X569750Y481500D01*
X537761Y490000D02*
X561250D01*
X830000Y482400D02*
X850000Y502400D01*
Y540000D01*
X890000Y580000D01*
Y652625D01*
X894000Y656625D01*
Y660000D01*
X450000D02*
X894000D01*
X430000Y640000D02*
X450000Y660000D01*
X430000Y611757D02*
Y640000D01*
X428243Y610000D02*
X430000Y611757D01*
X401757Y610000D02*
X428243D01*
X400000Y608243D02*
X401757Y610000D01*
X460500Y550000D02*
Y551500D01*
X535500Y655500D02*
X682743D01*
X691325Y646917D01*
X332239Y557981D02*
Y560000D01*
X348250Y479500D02*
X360250Y467500D01*
X379750D01*
X830000Y330000D02*
X840850Y340850D01*
Y385294D01*
X830794Y395350D02*
X840850Y385294D01*
X825506Y395350D02*
X830794D01*
X776606Y444250D02*
X825506Y395350D01*
X719757Y444250D02*
X776606D01*
X689056Y474951D02*
X719757Y444250D01*
X683030Y474951D02*
X689056D01*
X680000Y477981D02*
X683030Y474951D01*
X680000Y477981D02*
Y480000D01*
X840850Y391864D02*
X845350Y387364D01*
X840850Y334486D02*
X845350Y338986D01*
Y387364D01*
X840850Y325506D02*
Y334486D01*
Y391864D02*
Y395350D01*
X830794Y315450D02*
X840850Y325506D01*
X687530Y482970D02*
X690500Y480000D01*
X700000D01*
X687530Y482970D02*
Y487792D01*
X685773Y489549D02*
X687530Y487792D01*
X830000Y406200D02*
X840850Y395350D01*
X825506Y315450D02*
X830794D01*
X810056Y300000D02*
X825506Y315450D01*
X688947Y305061D02*
X694007Y300000D01*
X688947Y305061D02*
Y305189D01*
X684136Y310000D02*
X688947Y305189D01*
X675522Y310000D02*
X684136D01*
X735993D02*
X750750D01*
X758025Y355400D02*
X830000D01*
X752625Y350000D02*
X758025Y355400D01*
X750000Y350000D02*
X752625D01*
X707981Y400000D02*
X710000D01*
X680000Y427981D02*
X707981Y400000D01*
X680000Y427981D02*
Y430000D01*
X809200Y360000D02*
X830000Y380800D01*
X677761Y367981D02*
Y370000D01*
X700000Y310000D02*
X709500D01*
X690500D02*
X700000D01*
X683052Y317448D02*
X690500Y310000D01*
X683052Y317448D02*
Y317792D01*
X681294Y319549D02*
X683052Y317792D01*
X667530Y319549D02*
X681294D01*
X660000Y312019D02*
X667530Y319549D01*
X660000Y310000D02*
Y312019D01*
X735993Y370000D02*
X750750D01*
X690500D02*
X700000D01*
X685291Y375209D02*
X690500Y370000D01*
X685291Y375209D02*
Y377792D01*
X683534Y379549D02*
X685291Y377792D01*
X669770Y379549D02*
X683534D01*
X662239Y372019D02*
X669770Y379549D01*
X662239Y370000D02*
Y372019D01*
X735993Y430000D02*
X750750D01*
X726243Y439750D02*
X735993Y430000D01*
X713757Y439750D02*
X726243D01*
X711629Y437621D02*
X713757Y439750D01*
X711629Y432129D02*
Y437621D01*
X709500Y430000D02*
X711629Y432129D01*
X700000Y430000D02*
X709500D01*
X735993Y480000D02*
X751500D01*
X726243Y489750D02*
X735993Y480000D01*
X713757Y489750D02*
X726243D01*
X711629Y487621D02*
X713757Y489750D01*
X711629Y482129D02*
Y487621D01*
X709500Y480000D02*
X711629Y482129D01*
X700000Y480000D02*
X709500D01*
X690500Y430000D02*
X700000D01*
X687530Y432970D02*
X690500Y430000D01*
X687530Y432970D02*
Y437792D01*
X685773Y439549D02*
X687530Y437792D01*
X672009Y439549D02*
X685773D01*
X664478Y432019D02*
X672009Y439549D01*
X664478Y430000D02*
Y432019D01*
X672009Y489549D02*
X685773D01*
X664478Y482019D02*
X672009Y489549D01*
X664478Y480000D02*
Y482019D01*
X660000Y307981D02*
Y310000D01*
Y307981D02*
X677981Y290000D01*
X691325Y619583D02*
X770908Y540000D01*
X691325Y619583D02*
Y646917D01*
X447500Y500250D02*
Y506250D01*
X656764Y377494D02*
X662239Y372019D01*
X651206Y377494D02*
X656764D01*
X649350Y379350D02*
X651206Y377494D01*
X600000Y470000D02*
X610000D01*
X599250Y469250D02*
X600000Y470000D01*
X611864Y445500D02*
X646364Y480000D01*
X608723Y445500D02*
X611864D01*
X646364Y480000D02*
X664478D01*
X562257Y469250D02*
X599250D01*
X557007Y474500D02*
X562257Y469250D01*
X460250Y487500D02*
X509417D01*
X555143Y470000D02*
X560393Y464750D01*
X558530Y460250D02*
X563386D01*
X553279Y465500D02*
X558530Y460250D01*
X563386D02*
X582986Y440650D01*
X565250Y464750D02*
X580000Y450000D01*
X560393Y464750D02*
X565250D01*
X580000Y450000D02*
X590000D01*
X460250Y477500D02*
X506136D01*
X460250Y482500D02*
X507500D01*
X582986Y440650D02*
X603873D01*
X608723Y445500D01*
X298250Y449050D02*
X303250D01*
X306700Y452500D01*
X488700Y328900D02*
X488900D01*
X490000Y327800D01*
Y327600D02*
Y327800D01*
X491100Y328900D01*
X491300D01*
X496800Y334400D01*
X619500Y100000D02*
X620500Y99000D01*
Y40000D02*
Y99000D01*
D50*
X320000Y78500D02*
Y83000D01*
Y78500D02*
X326750Y71750D01*
X352850D01*
X390000Y34600D01*
X365500Y133000D02*
Y134500D01*
X371000Y140000D01*
X320000Y83000D02*
X326750Y89750D01*
Y94250D01*
X329950Y193750D02*
X332000Y191700D01*
X283750Y193750D02*
X329950D01*
X260000Y170000D02*
X283750Y193750D01*
X326750Y94250D02*
X365500Y133000D01*
X326750Y94250D02*
Y123050D01*
X209799Y170000D02*
X260000D01*
X147839Y231960D02*
X209799Y170000D01*
X142528Y231960D02*
X147839D01*
X53857Y320631D02*
X142528Y231960D01*
X53857Y320631D02*
Y326651D01*
X50508Y330000D02*
X53857Y326651D01*
X326750Y123050D02*
X332000Y128300D01*
X320000Y83000D02*
Y87500D01*
X326750Y94250D01*
X332000Y128300D02*
Y191700D01*
X583200Y151250D02*
X670568Y63882D01*
X673882D02*
X810000Y200000D01*
X670568Y63882D02*
X673882D01*
X810000Y200000D02*
Y210000D01*
X551000Y90500D02*
X600000Y41500D01*
Y40000D02*
Y41500D01*
X596350Y43650D02*
X600000Y40000D01*
X484826Y183374D02*
X528200Y140000D01*
X416626Y183374D02*
X484826D01*
X370000Y230000D02*
X416626Y183374D01*
X310000Y406536D02*
Y429600D01*
X314850Y436350D02*
X362000Y389200D01*
X303250Y436350D02*
X310000Y429600D01*
X288836Y404200D02*
X307664D01*
X310000Y406536D01*
X282460Y410576D02*
Y449424D01*
Y410576D02*
X288836Y404200D01*
X282460Y449424D02*
X298500Y465464D01*
Y490000D01*
Y492250D01*
X303250Y436350D02*
X314850D01*
X374750Y432500D02*
X381821D01*
X455250Y432750D02*
X460000D01*
X381821Y432500D02*
X382071Y432750D01*
X451782D02*
X455250D01*
X298250Y436350D02*
X303250D01*
X382071Y432750D02*
X388218D01*
X369000Y380000D02*
Y380250D01*
Y426750D01*
X388218Y432500D02*
X451782D01*
X449000Y435532D02*
Y469468D01*
X620000Y589350D02*
Y591900D01*
Y589350D02*
X638335Y571015D01*
Y561665D02*
Y571015D01*
Y561665D02*
X640000Y560000D01*
X460000Y472250D02*
X460250Y472500D01*
X451782Y472250D02*
X460000D01*
X449000Y469468D02*
X451782Y472250D01*
X449000Y435532D02*
X451782Y432750D01*
X460000D02*
X460250Y432500D01*
X392500Y495250D02*
Y500250D01*
X391000Y493750D02*
X392500Y495250D01*
X391000Y435532D02*
Y493750D01*
X388218Y432750D02*
X391000Y435532D01*
X447500Y419750D02*
Y424750D01*
X349374Y209374D02*
X370000Y230000D01*
X241717Y209374D02*
X349374D01*
X239374Y211717D02*
X241717Y209374D01*
X239374Y211717D02*
Y289126D01*
X620000Y591900D02*
Y630000D01*
X362000Y387250D02*
X369000Y380250D01*
X362000Y387250D02*
Y389200D01*
X369000Y426750D02*
X374750Y432500D01*
X447500Y424750D02*
X455250Y432500D01*
X286125Y504625D02*
X298500Y492250D01*
X255375Y504625D02*
X286125D01*
X240000Y520000D02*
X255375Y504625D01*
X560050Y151250D02*
X583200D01*
X558000Y149200D02*
X560050Y151250D01*
X558000Y147250D02*
Y149200D01*
X551000Y140250D02*
X558000Y147250D01*
X790000Y120000D02*
Y150000D01*
X740000Y70000D02*
X790000Y120000D01*
X537761Y350000D02*
X538880Y348880D01*
Y321120D02*
Y348880D01*
Y321120D02*
X540000Y320000D01*
X530000Y161000D02*
X530250D01*
X551000Y140250D01*
Y140000D02*
Y140250D01*
X363500Y374500D02*
X369000Y380000D01*
X363500Y372300D02*
Y374500D01*
X354100Y362900D02*
X363500Y372300D01*
X312150Y362900D02*
X354100D01*
X301500Y352250D02*
X312150Y362900D01*
X301500Y350000D02*
Y352250D01*
Y347750D02*
Y350000D01*
X293250Y339500D02*
X301500Y347750D01*
X269000Y339500D02*
X293250D01*
X260750Y347750D02*
X269000Y339500D01*
X260750Y347750D02*
Y350000D01*
X252500Y339500D02*
X260750Y347750D01*
X229000Y339500D02*
X252500D01*
X220750Y347750D02*
X229000Y339500D01*
X220750Y347750D02*
Y350000D01*
X212500Y339500D02*
X220750Y347750D01*
X189000Y339500D02*
X212500D01*
X180750Y347750D02*
X189000Y339500D01*
X180750Y347750D02*
Y350000D01*
X189000Y339500D02*
X239374Y289126D01*
X528200Y140000D02*
X551000D01*
X694450Y24450D02*
X740000Y70000D01*
X500500Y24450D02*
X694450D01*
X494000Y30950D02*
X500500Y24450D01*
X486000Y30950D02*
X494000D01*
X320000Y40000D02*
Y59250D01*
X307750Y126000D02*
X320000Y138250D01*
Y40000D02*
Y44500D01*
X307750Y68300D02*
Y126000D01*
X320000Y138250D02*
Y143750D01*
X307750Y68300D02*
X312275Y63775D01*
X315475D01*
X320000Y59250D01*
X469900Y140000D02*
X490000D01*
X457400Y127500D02*
X469900Y140000D01*
X442800Y127500D02*
X457400D01*
X437300Y133000D02*
X442800Y127500D01*
X423750Y133000D02*
X437300D01*
X420000Y136750D02*
X423750Y133000D01*
X420000Y136750D02*
Y140000D01*
X551000Y90500D02*
Y140000D01*
X534000Y43650D02*
X596350D01*
X534000Y30950D02*
Y43650D01*
X405400Y70000D02*
X420000D01*
X390000Y85400D02*
X405400Y70000D01*
X420000D02*
X420950Y69050D01*
X486000D01*
X420000Y40000D02*
Y70000D01*
Y40000D02*
X429050Y30950D01*
X486000D01*
X420000Y115400D02*
Y136750D01*
X390000Y85400D02*
X420000Y115400D01*
X313250Y51250D02*
X320000Y44500D01*
X311750Y51250D02*
X313250D01*
X276850Y86150D02*
X311750Y51250D01*
X270000Y86150D02*
X276850D01*
X263150Y33850D02*
X270000D01*
X175600Y121400D02*
X263150Y33850D01*
X154600Y121400D02*
X175600D01*
M02*
