G04*
G04 #@! TF.GenerationSoftware,Altium Limited,Altium Designer,26.7.1 (11)*
G04*
G04 Layer_Color=65535*
G04 Board_Origin=0|30314961*
%FSLAX44Y44*%
%MOMM*%
G71*
G04*
G04 #@! TF.SameCoordinates,DC734799-6447-4278-95CF-02F7B206336A*
G04*
G04*
G04 #@! TF.FilePolarity,Positive*
G04*
G01*
G75*
%ADD10C,0.2500*%
%ADD11C,0.2000*%
%ADD12C,0.6000*%
%ADD13C,0.1000*%
%ADD14C,0.1500*%
%ADD15C,0.2540*%
D10*
X3758Y481100D02*
G03*
X3758Y481100I-1250J0D01*
G01*
X619950Y645400D02*
G03*
X619950Y645400I-1250J0D01*
G01*
X321250Y102000D02*
G03*
X321250Y102000I-1250J0D01*
G01*
X591250Y304550D02*
G03*
X591250Y304550I-1250J0D01*
G01*
X535250Y22450D02*
G03*
X535250Y22450I-1250J0D01*
G01*
X404960Y29970D02*
G03*
X404960Y29970I-1250J0D01*
G01*
X850250Y253800D02*
G03*
X850250Y253800I-1250J0D01*
G01*
X141250Y449000D02*
G03*
X141250Y449000I-1250J0D01*
G01*
X461500Y425750D02*
G03*
X461500Y425750I-1250J0D01*
G01*
X299500Y402200D02*
G03*
X299500Y402200I-1250J0D01*
G01*
X527250Y294450D02*
G03*
X527250Y294450I-1250J0D01*
G01*
X321250Y124250D02*
G03*
X321250Y124250I-1250J0D01*
G01*
X191250Y414550D02*
G03*
X191250Y414550I-1250J0D01*
G01*
X661000Y160000D02*
G03*
X661000Y160000I-1250J0D01*
G01*
X631000Y100000D02*
G03*
X631000Y100000I-1250J0D01*
G01*
X721000Y160000D02*
G03*
X721000Y160000I-1250J0D01*
G01*
X391500Y630000D02*
G03*
X391500Y630000I-1250J0D01*
G01*
D11*
X485850Y600000D02*
G03*
X485850Y600000I-15850J0D01*
G01*
X225850Y250000D02*
G03*
X225850Y250000I-15850J0D01*
G01*
X285850D02*
G03*
X285850Y250000I-15850J0D01*
G01*
X135850Y610000D02*
G03*
X135850Y610000I-15850J0D01*
G01*
X305850Y560000D02*
G03*
X305850Y560000I-15850J0D01*
G01*
X795850Y600000D02*
G03*
X795850Y600000I-15850J0D01*
G01*
X405200Y81707D02*
G03*
X400920Y84145I-15200J-21707D01*
G01*
Y35855D02*
G03*
X405200Y38293I-10920J24145D01*
G01*
X379080Y84145D02*
G03*
X379080Y35855I10920J-24145D01*
G01*
X195850Y180000D02*
G03*
X195850Y180000I-15850J0D01*
G01*
X165850Y250000D02*
G03*
X165850Y250000I-15850J0D01*
G01*
X385850Y230000D02*
G03*
X385850Y230000I-15850J0D01*
G01*
X275850Y170000D02*
G03*
X275850Y170000I-15850J0D01*
G01*
X755850Y70000D02*
G03*
X755850Y70000I-15850J0D01*
G01*
X11058Y252800D02*
X98258D01*
Y559600D01*
X11058D02*
X98258D01*
X11058Y252800D02*
Y559600D01*
X606200Y637450D02*
X609900D01*
X630100D02*
X635300D01*
X655500D02*
X659200D01*
Y584450D02*
Y637450D01*
X606200Y584450D02*
X609900D01*
X630100D02*
X635300D01*
X655500D02*
X659200D01*
X606200D02*
Y637450D01*
X729000Y233250D02*
X731000D01*
X729000Y246750D02*
X731000D01*
X668750Y233250D02*
X670750D01*
X668750Y246750D02*
X670750D01*
X609250Y33250D02*
X611250D01*
X609250Y46750D02*
X611250D01*
X579000Y556750D02*
X581000D01*
X579000Y543250D02*
X581000D01*
X579000Y486750D02*
X581000D01*
X579000Y473250D02*
X581000D01*
X305250Y37750D02*
Y85250D01*
X332500D02*
X334750D01*
X305250D02*
X307500D01*
X334750Y37750D02*
Y85250D01*
X332500Y37750D02*
X334750D01*
X305250D02*
X307500D01*
X306000Y65000D02*
X334000D01*
X610000Y252750D02*
Y267250D01*
X576650Y311250D02*
Y363350D01*
X603350D01*
Y311250D02*
Y363350D01*
X576650Y311250D02*
X603350D01*
X517709Y539000D02*
X542291D01*
X517709Y561000D02*
X542291D01*
X517709Y479000D02*
X542291D01*
X517709Y501000D02*
X542291D01*
X147250Y486750D02*
X151750D01*
X147250Y473250D02*
X151750D01*
X760000Y422750D02*
Y437250D01*
X501000Y75000D02*
X519000D01*
X501000Y25000D02*
X519000D01*
X501000D02*
Y75000D01*
X519000Y25000D02*
Y75000D01*
X405200Y38293D02*
Y81707D01*
X449250Y556750D02*
X451250D01*
X449250Y543250D02*
X451250D01*
X655470Y321000D02*
X680052D01*
X655470Y299000D02*
X680052D01*
X575470Y369000D02*
X600052D01*
X575470Y391000D02*
X600052D01*
X760000Y362750D02*
Y377250D01*
X535470Y631000D02*
X560052D01*
X535470Y609000D02*
X560052D01*
X327709Y571000D02*
X352291D01*
X327709Y549000D02*
X352291D01*
X657709Y381000D02*
X682291D01*
X657709Y359000D02*
X682291D01*
X816650Y239200D02*
Y497000D01*
X843350D01*
Y239200D02*
Y497000D01*
X816650Y239200D02*
X843350D01*
X816650Y266500D02*
X843350D01*
X129200Y46994D02*
Y141000D01*
X123200Y50500D02*
X129191Y46985D01*
X123200Y38500D02*
X129191Y42015D01*
X123200Y38500D02*
Y50500D01*
X129200Y27500D02*
Y42000D01*
X154600Y19000D02*
X230800D01*
X129200Y141000D02*
X230800D01*
Y19000D02*
Y141000D01*
X129200Y27500D02*
X154600D01*
Y19000D02*
Y27500D01*
X148350Y444600D02*
X156500D01*
Y438000D02*
Y444600D01*
X148350Y415400D02*
X156500D01*
Y422000D01*
X230000Y342750D02*
Y357250D01*
X391500Y488500D02*
X448500D01*
X391500Y431500D02*
X448500D01*
X391500D02*
Y488500D01*
X448500Y431500D02*
Y488500D01*
X286000Y405000D02*
Y455000D01*
X254000Y405000D02*
Y455000D01*
Y405000D02*
X286000D01*
X254000Y455000D02*
X286000D01*
X659948Y441000D02*
X684530D01*
X659948Y419000D02*
X684530D01*
X517709Y339000D02*
X542291D01*
X517709Y361000D02*
X542291D01*
X429500Y132000D02*
X440500D01*
X429500Y148000D02*
X440500D01*
X708750Y303000D02*
X711250D01*
X708750Y317000D02*
X711250D01*
X659948Y491000D02*
X684530D01*
X659948Y469000D02*
X684530D01*
X513500Y286500D02*
X517200D01*
X537400D02*
X542600D01*
X562800D02*
X566500D01*
Y233500D02*
Y286500D01*
X513500Y233500D02*
X517200D01*
X537400D02*
X542600D01*
X562800D02*
X566500D01*
X513500D02*
Y286500D01*
X708750Y363000D02*
X711250D01*
X708750Y377000D02*
X711250D01*
X332500Y182500D02*
X334000D01*
X332500Y137500D02*
X334000D01*
X306000Y182500D02*
X307500D01*
X306000Y137500D02*
X307500D01*
X334000D02*
Y182500D01*
X306000Y137500D02*
Y182500D01*
X760000Y302750D02*
Y317250D01*
X310750Y342750D02*
Y357250D01*
X359250Y623250D02*
X361250D01*
X359250Y636750D02*
X361250D01*
X708750Y423000D02*
X711250D01*
X708750Y437000D02*
X711250D01*
X176650Y421250D02*
Y473350D01*
X203350D01*
Y421250D02*
Y473350D01*
X176650Y421250D02*
X203350D01*
X227950Y504750D02*
Y636850D01*
X252050D01*
Y504750D02*
Y636850D01*
X227950Y504750D02*
X252050D01*
X669000Y170000D02*
X690000D01*
X669000Y150000D02*
X690000D01*
X599500Y90000D02*
X620500D01*
X599500Y110000D02*
X620500D01*
X289250Y482750D02*
Y497250D01*
X270000Y342750D02*
Y357250D01*
X190000Y342750D02*
Y357250D01*
X729000Y170000D02*
X750000D01*
X729000Y150000D02*
X750000D01*
X399500Y640000D02*
X420500D01*
X399500Y620000D02*
X420500D01*
X415750Y232250D02*
X425750D01*
X454250D02*
X464250D01*
Y347750D01*
X415750D02*
X425750D01*
X454250D02*
X464250D01*
X415750Y232250D02*
Y347750D01*
X708750Y473000D02*
X711250D01*
X708750Y487000D02*
X711250D01*
X286200Y46750D02*
Y73250D01*
X253800Y46750D02*
Y73250D01*
X760750Y472750D02*
Y487250D01*
D12*
X441500Y441500D02*
G03*
X441500Y441500I-3000J0D01*
G01*
X279000Y415000D02*
G03*
X279000Y415000I-3000J0D01*
G01*
D13*
X13499Y221000D02*
Y225998D01*
X11000Y223499D01*
X14332D01*
X15998D02*
X19331D01*
X20997Y225998D02*
X24329D01*
Y225165D01*
X20997Y221833D01*
Y221000D01*
X25995Y222666D02*
X29327D01*
X25995Y224332D02*
X29327D01*
X30993Y221000D02*
Y224332D01*
X32660Y225998D01*
X34326Y224332D01*
Y221000D01*
Y223499D01*
X30993D01*
X35992Y225998D02*
X37658D01*
X36825D01*
Y221000D01*
X35992D01*
X37658D01*
X40157D02*
Y225998D01*
X43489Y221000D01*
Y225998D01*
X45156Y221000D02*
X46822D01*
X45989D01*
Y225998D01*
X45156Y225165D01*
X49321Y223499D02*
X52653D01*
X54319Y221000D02*
Y224332D01*
X55985Y225998D01*
X57651Y224332D01*
Y221000D01*
Y223499D01*
X54319D01*
X59318Y225998D02*
X60984D01*
X60151D01*
Y221000D01*
X59318D01*
X60984D01*
X63483D02*
Y225998D01*
X66815Y221000D01*
Y225998D01*
X70980Y221000D02*
Y225998D01*
X68481Y223499D01*
X71814D01*
X11000Y192975D02*
X14999D01*
X12999D01*
Y186977D01*
X16998D02*
Y192975D01*
X19997D01*
X20997Y191975D01*
Y189976D01*
X19997Y188976D01*
X16998D01*
X22996Y186977D02*
X24996D01*
X23996D01*
Y192975D01*
X22996Y191975D01*
X33993Y188976D02*
X37991D01*
X33993Y190975D02*
X37991D01*
X39991Y186977D02*
X41990D01*
X40990D01*
Y192975D01*
X39991Y191975D01*
X48988Y186977D02*
X44989D01*
X48988Y190975D01*
Y191975D01*
X47988Y192975D01*
X45989D01*
X44989Y191975D01*
X50987Y192975D02*
Y188976D01*
X52986Y186977D01*
X54986Y188976D01*
Y192975D01*
X11000Y183377D02*
X14999D01*
X12999D01*
Y177379D01*
X16998D02*
Y183377D01*
X19997D01*
X20997Y182377D01*
Y180378D01*
X19997Y179378D01*
X16998D01*
X26995Y177379D02*
X22996D01*
X26995Y181378D01*
Y182377D01*
X25995Y183377D01*
X23996D01*
X22996Y182377D01*
X34992Y179378D02*
X38991D01*
X34992Y181378D02*
X38991D01*
X44989Y183377D02*
X40990D01*
Y180378D01*
X42990Y181378D01*
X43989D01*
X44989Y180378D01*
Y178379D01*
X43989Y177379D01*
X41990D01*
X40990Y178379D01*
X46988Y183377D02*
Y179378D01*
X48988Y177379D01*
X50987Y179378D01*
Y183377D01*
X11000Y173779D02*
X14999D01*
X12999D01*
Y167781D01*
X16998D02*
Y173779D01*
X19997D01*
X20997Y172780D01*
Y170780D01*
X19997Y169781D01*
X16998D01*
X22996Y172780D02*
X23996Y173779D01*
X25995D01*
X26995Y172780D01*
Y171780D01*
X25995Y170780D01*
X24996D01*
X25995D01*
X26995Y169781D01*
Y168781D01*
X25995Y167781D01*
X23996D01*
X22996Y168781D01*
X34992Y169781D02*
X38991D01*
X34992Y171780D02*
X38991D01*
X40990Y172780D02*
X41990Y173779D01*
X43989D01*
X44989Y172780D01*
Y171780D01*
X43989Y170780D01*
X42990D01*
X43989D01*
X44989Y169781D01*
Y168781D01*
X43989Y167781D01*
X41990D01*
X40990Y168781D01*
X46988Y173779D02*
Y169781D01*
X48988Y167781D01*
X50987Y169781D01*
Y173779D01*
X52986Y172780D02*
X53986Y173779D01*
X55985D01*
X56985Y172780D01*
Y171780D01*
X55985Y170780D01*
X54986D01*
X55985D01*
X56985Y169781D01*
Y168781D01*
X55985Y167781D01*
X53986D01*
X52986Y168781D01*
X11000Y164182D02*
X14999D01*
X12999D01*
Y158184D01*
X16998D02*
Y164182D01*
X19997D01*
X20997Y163182D01*
Y161183D01*
X19997Y160183D01*
X16998D01*
X25995Y158184D02*
Y164182D01*
X22996Y161183D01*
X26995D01*
X34992Y160183D02*
X38991D01*
X34992Y162182D02*
X38991D01*
X44989Y163182D02*
X43989Y164182D01*
X41990D01*
X40990Y163182D01*
Y159183D01*
X41990Y158184D01*
X43989D01*
X44989Y159183D01*
Y161183D01*
X42990D01*
X46988Y158184D02*
Y164182D01*
X50987Y158184D01*
Y164182D01*
X52986D02*
Y158184D01*
X55985D01*
X56985Y159183D01*
Y163182D01*
X55985Y164182D01*
X52986D01*
X11000Y154584D02*
X14999D01*
X12999D01*
Y148586D01*
X16998D02*
Y154584D01*
X19997D01*
X20997Y153584D01*
Y151585D01*
X19997Y150585D01*
X16998D01*
X26995Y154584D02*
X22996D01*
Y151585D01*
X24996Y152585D01*
X25995D01*
X26995Y151585D01*
Y149586D01*
X25995Y148586D01*
X23996D01*
X22996Y149586D01*
X34992Y150585D02*
X38991D01*
X34992Y152585D02*
X38991D01*
X44989Y153584D02*
X43989Y154584D01*
X41990D01*
X40990Y153584D01*
Y149586D01*
X41990Y148586D01*
X43989D01*
X44989Y149586D01*
X46988Y148586D02*
Y152585D01*
X48988Y154584D01*
X50987Y152585D01*
Y148586D01*
Y151585D01*
X46988D01*
X52986Y148586D02*
Y154584D01*
X56985Y148586D01*
Y154584D01*
X58984D02*
Y148586D01*
Y151585D01*
X62983D01*
Y154584D01*
Y148586D01*
X11000Y144986D02*
X14999D01*
X12999D01*
Y138988D01*
X16998D02*
Y144986D01*
X19997D01*
X20997Y143987D01*
Y141987D01*
X19997Y140988D01*
X16998D01*
X26995Y144986D02*
X24996Y143987D01*
X22996Y141987D01*
Y139988D01*
X23996Y138988D01*
X25995D01*
X26995Y139988D01*
Y140988D01*
X25995Y141987D01*
X22996D01*
X34992Y140988D02*
X38991D01*
X34992Y142987D02*
X38991D01*
X44989Y143987D02*
X43989Y144986D01*
X41990D01*
X40990Y143987D01*
Y139988D01*
X41990Y138988D01*
X43989D01*
X44989Y139988D01*
X46988Y138988D02*
Y142987D01*
X48988Y144986D01*
X50987Y142987D01*
Y138988D01*
Y141987D01*
X46988D01*
X52986Y138988D02*
Y144986D01*
X56985Y138988D01*
Y144986D01*
X58984D02*
Y138988D01*
X62983D01*
X11000Y135389D02*
X14999D01*
X12999D01*
Y129391D01*
X16998D02*
Y135389D01*
X19997D01*
X20997Y134389D01*
Y132390D01*
X19997Y131390D01*
X16998D01*
X22996Y135389D02*
X26995D01*
Y134389D01*
X22996Y130390D01*
Y129391D01*
X34992Y131390D02*
X38991D01*
X34992Y133389D02*
X38991D01*
X44989Y134389D02*
X43989Y135389D01*
X41990D01*
X40990Y134389D01*
Y130390D01*
X41990Y129391D01*
X43989D01*
X44989Y130390D01*
Y132390D01*
X42990D01*
X46988Y129391D02*
Y135389D01*
X50987Y129391D01*
Y135389D01*
X52986D02*
Y129391D01*
X55985D01*
X56985Y130390D01*
Y134389D01*
X55985Y135389D01*
X52986D01*
X11000Y125791D02*
X14999D01*
X12999D01*
Y119793D01*
X16998D02*
Y125791D01*
X19997D01*
X20997Y124791D01*
Y122792D01*
X19997Y121792D01*
X16998D01*
X22996Y124791D02*
X23996Y125791D01*
X25995D01*
X26995Y124791D01*
Y123792D01*
X25995Y122792D01*
X26995Y121792D01*
Y120793D01*
X25995Y119793D01*
X23996D01*
X22996Y120793D01*
Y121792D01*
X23996Y122792D01*
X22996Y123792D01*
Y124791D01*
X23996Y122792D02*
X25995D01*
X34992Y121792D02*
X38991D01*
X34992Y123792D02*
X38991D01*
X44989Y124791D02*
X43989Y125791D01*
X41990D01*
X40990Y124791D01*
Y123792D01*
X41990Y122792D01*
X43989D01*
X44989Y121792D01*
Y120793D01*
X43989Y119793D01*
X41990D01*
X40990Y120793D01*
X46988Y125791D02*
Y119793D01*
X48988Y121792D01*
X50987Y119793D01*
Y125791D01*
X52986D02*
Y119793D01*
X55985D01*
X56985Y120793D01*
Y124791D01*
X55985Y125791D01*
X52986D01*
X58984D02*
X60984D01*
X59984D01*
Y119793D01*
X58984D01*
X60984D01*
X66982Y125791D02*
X64983D01*
X63983Y124791D01*
Y120793D01*
X64983Y119793D01*
X66982D01*
X67982Y120793D01*
Y124791D01*
X66982Y125791D01*
X11000Y116193D02*
X14999D01*
X12999D01*
Y110195D01*
X16998D02*
Y116193D01*
X19997D01*
X20997Y115194D01*
Y113194D01*
X19997Y112195D01*
X16998D01*
X22996Y111195D02*
X23996Y110195D01*
X25995D01*
X26995Y111195D01*
Y115194D01*
X25995Y116193D01*
X23996D01*
X22996Y115194D01*
Y114194D01*
X23996Y113194D01*
X26995D01*
X34992Y112195D02*
X38991D01*
X34992Y114194D02*
X38991D01*
X44989Y115194D02*
X43989Y116193D01*
X41990D01*
X40990Y115194D01*
Y114194D01*
X41990Y113194D01*
X43989D01*
X44989Y112195D01*
Y111195D01*
X43989Y110195D01*
X41990D01*
X40990Y111195D01*
X46988Y116193D02*
Y110195D01*
X48988Y112195D01*
X50987Y110195D01*
Y116193D01*
X56985Y115194D02*
X55985Y116193D01*
X53986D01*
X52986Y115194D01*
Y111195D01*
X53986Y110195D01*
X55985D01*
X56985Y111195D01*
X58984Y116193D02*
Y110195D01*
X62983D01*
X64983Y116193D02*
Y110195D01*
Y112195D01*
X68981Y116193D01*
X65982Y113194D01*
X68981Y110195D01*
X11000Y106596D02*
X14999D01*
X12999D01*
Y100598D01*
X16998D02*
Y106596D01*
X19997D01*
X20997Y105596D01*
Y103597D01*
X19997Y102597D01*
X16998D01*
X22996Y100598D02*
X24996D01*
X23996D01*
Y106596D01*
X22996Y105596D01*
X27994D02*
X28994Y106596D01*
X30993D01*
X31993Y105596D01*
Y101597D01*
X30993Y100598D01*
X28994D01*
X27994Y101597D01*
Y105596D01*
X33993Y102597D02*
X37991D01*
X33993Y104596D02*
X37991D01*
X39991Y100598D02*
Y106596D01*
X43989Y100598D01*
Y106596D01*
X45989Y100598D02*
Y106596D01*
X48988D01*
X49987Y105596D01*
Y103597D01*
X48988Y102597D01*
X45989D01*
X47988D02*
X49987Y100598D01*
X55985Y105596D02*
X54986Y106596D01*
X52986D01*
X51987Y105596D01*
Y104596D01*
X52986Y103597D01*
X54986D01*
X55985Y102597D01*
Y101597D01*
X54986Y100598D01*
X52986D01*
X51987Y101597D01*
X57985Y106596D02*
X61983D01*
X59984D01*
Y100598D01*
X11000Y96998D02*
X14999D01*
X12999D01*
Y91000D01*
X16998D02*
Y96998D01*
X19997D01*
X20997Y95998D01*
Y93999D01*
X19997Y92999D01*
X16998D01*
X22996Y91000D02*
X24996D01*
X23996D01*
Y96998D01*
X22996Y95998D01*
X27994Y91000D02*
X29994D01*
X28994D01*
Y96998D01*
X27994Y95998D01*
X32993Y92999D02*
X36992D01*
X32993Y94999D02*
X36992D01*
X38991Y96998D02*
Y92000D01*
X39991Y91000D01*
X41990D01*
X42990Y92000D01*
Y96998D01*
X48988Y95998D02*
X47988Y96998D01*
X45989D01*
X44989Y95998D01*
Y94999D01*
X45989Y93999D01*
X47988D01*
X48988Y92999D01*
Y92000D01*
X47988Y91000D01*
X45989D01*
X44989Y92000D01*
X54986Y96998D02*
X50987D01*
Y91000D01*
X54986D01*
X50987Y93999D02*
X52986D01*
X56985Y91000D02*
Y96998D01*
X59984D01*
X60984Y95998D01*
Y93999D01*
X59984Y92999D01*
X56985D01*
X58984D02*
X60984Y91000D01*
X201000Y548997D02*
Y541000D01*
X204999D01*
X206332Y542333D01*
Y547664D01*
X204999Y548997D01*
X201000D01*
X208997D02*
X211663D01*
X210330D01*
Y541000D01*
X208997D01*
X211663D01*
X219661Y548997D02*
X216995D01*
X215662Y547664D01*
Y542333D01*
X216995Y541000D01*
X219661D01*
X220994Y542333D01*
Y547664D01*
X219661Y548997D01*
X206332Y577664D02*
X204999Y578997D01*
X202333D01*
X201000Y577664D01*
Y572333D01*
X202333Y571000D01*
X204999D01*
X206332Y572333D01*
X208997Y578997D02*
Y571000D01*
X214329D01*
X216995Y578997D02*
Y571000D01*
Y573666D01*
X222327Y578997D01*
X218328Y574999D01*
X222327Y571000D01*
X201000Y591000D02*
Y598997D01*
X204999D01*
X206332Y597664D01*
Y594999D01*
X204999Y593666D01*
X201000D01*
X203666D02*
X206332Y591000D01*
X214329Y597664D02*
X212996Y598997D01*
X210330D01*
X208997Y597664D01*
Y596332D01*
X210330Y594999D01*
X212996D01*
X214329Y593666D01*
Y592333D01*
X212996Y591000D01*
X210330D01*
X208997Y592333D01*
X216995Y598997D02*
X222327D01*
X219661D01*
Y591000D01*
X206332Y627664D02*
X204999Y628997D01*
X202333D01*
X201000Y627664D01*
Y622333D01*
X202333Y621000D01*
X204999D01*
X206332Y622333D01*
Y624999D01*
X203666D01*
X208997Y621000D02*
Y628997D01*
X214329Y621000D01*
Y628997D01*
X216995D02*
Y621000D01*
X220994D01*
X222327Y622333D01*
Y627664D01*
X220994Y628997D01*
X216995D01*
X201000Y517664D02*
X202333Y518997D01*
X204999D01*
X206332Y517664D01*
Y516332D01*
X204999Y514999D01*
X203666D01*
X204999D01*
X206332Y513666D01*
Y512333D01*
X204999Y511000D01*
X202333D01*
X201000Y512333D01*
X208997Y518997D02*
Y513666D01*
X211663Y511000D01*
X214329Y513666D01*
Y518997D01*
X216995Y517664D02*
X218328Y518997D01*
X220994D01*
X222327Y517664D01*
Y516332D01*
X220994Y514999D01*
X219661D01*
X220994D01*
X222327Y513666D01*
Y512333D01*
X220994Y511000D01*
X218328D01*
X216995Y512333D01*
X11000Y215165D02*
X11833Y215998D01*
X13499D01*
X14332Y215165D01*
Y214332D01*
X13499Y213499D01*
X14332Y212666D01*
Y211833D01*
X13499Y211000D01*
X11833D01*
X11000Y211833D01*
Y212666D01*
X11833Y213499D01*
X11000Y214332D01*
Y215165D01*
X11833Y213499D02*
X13499D01*
X15998D02*
X19331D01*
X20997Y211833D02*
X21830Y211000D01*
X23496D01*
X24329Y211833D01*
Y215165D01*
X23496Y215998D01*
X21830D01*
X20997Y215165D01*
Y214332D01*
X21830Y213499D01*
X24329D01*
X25995Y212666D02*
X29327D01*
X25995Y214332D02*
X29327D01*
X30993Y215998D02*
Y211000D01*
X33493D01*
X34326Y211833D01*
Y215165D01*
X33493Y215998D01*
X30993D01*
X35992D02*
X37658D01*
X36825D01*
Y211000D01*
X35992D01*
X37658D01*
X40157D02*
Y215998D01*
X43489Y211000D01*
Y215998D01*
X45156Y211000D02*
X46822D01*
X45989D01*
Y215998D01*
X45156Y215165D01*
X49321Y213499D02*
X52653D01*
X54319Y215998D02*
Y211000D01*
X56818D01*
X57651Y211833D01*
Y215165D01*
X56818Y215998D01*
X54319D01*
X59318D02*
X60984D01*
X60151D01*
Y211000D01*
X59318D01*
X60984D01*
X63483D02*
Y215998D01*
X66815Y211000D01*
Y215998D01*
X71814Y211000D02*
X68481D01*
X71814Y214332D01*
Y215165D01*
X70980Y215998D01*
X69314D01*
X68481Y215165D01*
X854332Y305165D02*
X853499Y305998D01*
X851833D01*
X851000Y305165D01*
Y301833D01*
X851833Y301000D01*
X853499D01*
X854332Y301833D01*
Y303499D01*
X852666D01*
X855998Y301000D02*
Y305998D01*
X859331Y301000D01*
Y305998D01*
X860997D02*
Y301000D01*
X863496D01*
X864329Y301833D01*
Y305165D01*
X863496Y305998D01*
X860997D01*
X854332Y245998D02*
X851000D01*
Y243499D01*
X852666Y244332D01*
X853499D01*
X854332Y243499D01*
Y241833D01*
X853499Y241000D01*
X851833D01*
X851000Y241833D01*
X855998Y245998D02*
Y242666D01*
X857664Y241000D01*
X859331Y242666D01*
Y245998D01*
X11000Y201000D02*
X12666D01*
X11833D01*
Y205998D01*
X11000Y205165D01*
X15165D02*
X15998Y205998D01*
X17665D01*
X18498Y205165D01*
Y201833D01*
X17665Y201000D01*
X15998D01*
X15165Y201833D01*
Y205165D01*
X20164Y202666D02*
X23496D01*
X20164Y204332D02*
X23496D01*
X28494Y205998D02*
X25162D01*
Y203499D01*
X26828D01*
X25162D01*
Y201000D01*
X30160D02*
Y205998D01*
X32660D01*
X33493Y205165D01*
Y203499D01*
X32660Y202666D01*
X30160D01*
X31827D02*
X33493Y201000D01*
X38491Y205998D02*
X35159D01*
Y201000D01*
X38491D01*
X35159Y203499D02*
X36825D01*
X43489Y201833D02*
Y205165D01*
X42656Y205998D01*
X40990D01*
X40157Y205165D01*
Y201833D01*
X40990Y201000D01*
X42656D01*
X41823Y202666D02*
X43489Y201000D01*
X42656D02*
X43489Y201833D01*
X851000Y275165D02*
X851833Y275998D01*
X853499D01*
X854332Y275165D01*
Y274332D01*
X853499Y273499D01*
X852666D01*
X853499D01*
X854332Y272666D01*
Y271833D01*
X853499Y271000D01*
X851833D01*
X851000Y271833D01*
X855998Y275998D02*
Y272666D01*
X857664Y271000D01*
X859331Y272666D01*
Y275998D01*
X860997Y275165D02*
X861830Y275998D01*
X863496D01*
X864329Y275165D01*
Y274332D01*
X863496Y273499D01*
X862663D01*
X863496D01*
X864329Y272666D01*
Y271833D01*
X863496Y271000D01*
X861830D01*
X860997Y271833D01*
X14332Y235998D02*
X12666D01*
X13499D01*
Y231833D01*
X12666Y231000D01*
X11833D01*
X11000Y231833D01*
X15998Y235165D02*
X16831Y235998D01*
X18498D01*
X19331Y235165D01*
Y234332D01*
X18498Y233499D01*
X17665D01*
X18498D01*
X19331Y232666D01*
Y231833D01*
X18498Y231000D01*
X16831D01*
X15998Y231833D01*
X29327Y235165D02*
X28494Y235998D01*
X26828D01*
X25995Y235165D01*
Y234332D01*
X26828Y233499D01*
X28494D01*
X29327Y232666D01*
Y231833D01*
X28494Y231000D01*
X26828D01*
X25995Y231833D01*
X34326Y235998D02*
X30993D01*
Y231000D01*
X34326D01*
X30993Y233499D02*
X32660D01*
X35992Y231000D02*
Y235998D01*
X39324Y231000D01*
Y235998D01*
X44322Y235165D02*
X43489Y235998D01*
X41823D01*
X40990Y235165D01*
Y234332D01*
X41823Y233499D01*
X43489D01*
X44322Y232666D01*
Y231833D01*
X43489Y231000D01*
X41823D01*
X40990Y231833D01*
X48488Y235998D02*
X46822D01*
X45989Y235165D01*
Y231833D01*
X46822Y231000D01*
X48488D01*
X49321Y231833D01*
Y235165D01*
X48488Y235998D01*
X50987Y231000D02*
Y235998D01*
X53486D01*
X54319Y235165D01*
Y233499D01*
X53486Y232666D01*
X50987D01*
X52653D02*
X54319Y231000D01*
X60984D02*
Y235998D01*
X63483D01*
X64316Y235165D01*
Y233499D01*
X63483Y232666D01*
X60984D01*
X65982Y235998D02*
X67648D01*
X66815D01*
Y231000D01*
X65982D01*
X67648D01*
X70147D02*
Y235998D01*
X73480Y231000D01*
Y235998D01*
X77645D02*
X75979D01*
X75146Y235165D01*
Y231833D01*
X75979Y231000D01*
X77645D01*
X78478Y231833D01*
Y235165D01*
X77645Y235998D01*
X80144D02*
Y231833D01*
X80977Y231000D01*
X82643D01*
X83476Y231833D01*
Y235998D01*
X85142D02*
X88475D01*
X86809D01*
Y231000D01*
D14*
X816165Y169315D02*
X814999Y170481D01*
X812666D01*
X811500Y169315D01*
Y168148D01*
X812666Y166982D01*
X814999D01*
X816165Y165816D01*
Y164650D01*
X814999Y163483D01*
X812666D01*
X811500Y164650D01*
X818498Y170481D02*
X823163D01*
X820830D01*
Y163483D01*
X825496D02*
Y170481D01*
X827828Y168148D01*
X830161Y170481D01*
Y163483D01*
X832493Y169315D02*
X833660Y170481D01*
X835992D01*
X837158Y169315D01*
Y168148D01*
X835992Y166982D01*
X834826D01*
X835992D01*
X837158Y165816D01*
Y164650D01*
X835992Y163483D01*
X833660D01*
X832493Y164650D01*
X844156Y163483D02*
X839491D01*
X844156Y168148D01*
Y169315D01*
X842990Y170481D01*
X840657D01*
X839491Y169315D01*
X858152D02*
X856985Y170481D01*
X854653D01*
X853486Y169315D01*
Y164650D01*
X854653Y163483D01*
X856985D01*
X858152Y164650D01*
X860484Y163483D02*
Y168148D01*
X862817Y170481D01*
X865149Y168148D01*
Y163483D01*
Y166982D01*
X860484D01*
X867482Y163483D02*
Y170481D01*
X872147Y163483D01*
Y170481D01*
X811500Y158484D02*
X816165D01*
X813833D01*
Y151486D01*
X823163Y158484D02*
X818498D01*
Y151486D01*
X823163D01*
X818498Y154985D02*
X820830D01*
X825496Y158484D02*
Y151486D01*
X830161D01*
X837158Y158484D02*
X832493D01*
Y151486D01*
X837158D01*
X832493Y154985D02*
X834826D01*
X839491Y151486D02*
Y158484D01*
X841824Y156151D01*
X844156Y158484D01*
Y151486D01*
X851154Y158484D02*
X846489D01*
Y151486D01*
X851154D01*
X846489Y154985D02*
X848821D01*
X853486Y158484D02*
X858152D01*
X855819D01*
Y151486D01*
X860484D02*
Y158484D01*
X863983D01*
X865149Y157318D01*
Y154985D01*
X863983Y153819D01*
X860484D01*
X862817D02*
X865149Y151486D01*
X867482Y158484D02*
Y157318D01*
X869815Y154985D01*
X872147Y157318D01*
Y158484D01*
X869815Y154985D02*
Y151486D01*
X811500Y139489D02*
Y146487D01*
X816165Y139489D01*
Y146487D01*
X821997D02*
X819664D01*
X818498Y145320D01*
Y140655D01*
X819664Y139489D01*
X821997D01*
X823163Y140655D01*
Y145320D01*
X821997Y146487D01*
X825496D02*
Y139489D01*
X828994D01*
X830161Y140655D01*
Y145320D01*
X828994Y146487D01*
X825496D01*
X837158D02*
X832493D01*
Y139489D01*
X837158D01*
X832493Y142988D02*
X834826D01*
X811500Y127492D02*
Y134489D01*
X814999D01*
X816165Y133323D01*
Y130990D01*
X814999Y129824D01*
X811500D01*
X813833D02*
X816165Y127492D01*
X823163Y134489D02*
X818498D01*
Y127492D01*
X823163D01*
X818498Y130990D02*
X820830D01*
X825496Y134489D02*
Y129824D01*
X827828Y127492D01*
X830161Y129824D01*
Y134489D01*
X839491Y127492D02*
Y132157D01*
X841824Y134489D01*
X844156Y132157D01*
Y127492D01*
Y130990D01*
X839491D01*
X816165Y122492D02*
X813833D01*
X814999D01*
Y116661D01*
X813833Y115494D01*
X812666D01*
X811500Y116661D01*
X819664Y115494D02*
X821997D01*
X823163Y116661D01*
Y118993D01*
X821997Y120160D01*
X819664D01*
X818498Y118993D01*
Y116661D01*
X819664Y115494D01*
X825496D02*
X828994D01*
X830161Y116661D01*
X828994Y117827D01*
X826662D01*
X825496Y118993D01*
X826662Y120160D01*
X830161D01*
X832493Y122492D02*
Y115494D01*
Y118993D01*
X833660Y120160D01*
X835992D01*
X837158Y118993D01*
Y115494D01*
X839491Y120160D02*
Y116661D01*
X840657Y115494D01*
X844156D01*
Y120160D01*
X847655D02*
X849988D01*
X851154Y118993D01*
Y115494D01*
X847655D01*
X846489Y116661D01*
X847655Y117827D01*
X851154D01*
X811500Y103497D02*
Y110495D01*
X816165Y103497D01*
Y110495D01*
X818498Y108162D02*
Y104663D01*
X819664Y103497D01*
X820830Y104663D01*
X821997Y103497D01*
X823163Y104663D01*
Y108162D01*
X826662D02*
X828994D01*
X830161Y106996D01*
Y103497D01*
X826662D01*
X825496Y104663D01*
X826662Y105830D01*
X830161D01*
X832493Y103497D02*
Y108162D01*
X835992D01*
X837158Y106996D01*
Y103497D01*
X842990D02*
X840657D01*
X839491Y104663D01*
Y106996D01*
X840657Y108162D01*
X842990D01*
X844156Y106996D01*
Y105830D01*
X839491D01*
X846489Y103497D02*
X848821D01*
X847655D01*
Y110495D01*
X846489D01*
X852320Y103497D02*
X854653D01*
X853486D01*
Y108162D01*
X852320D01*
X816165Y91500D02*
X811500D01*
X816165Y96165D01*
Y97331D01*
X814999Y98498D01*
X812666D01*
X811500Y97331D01*
X818498D02*
X819664Y98498D01*
X821997D01*
X823163Y97331D01*
Y92666D01*
X821997Y91500D01*
X819664D01*
X818498Y92666D01*
Y97331D01*
X830161Y91500D02*
X825496D01*
X830161Y96165D01*
Y97331D01*
X828994Y98498D01*
X826662D01*
X825496Y97331D01*
X837158Y98498D02*
X834826Y97331D01*
X832493Y94999D01*
Y92666D01*
X833660Y91500D01*
X835992D01*
X837158Y92666D01*
Y93833D01*
X835992Y94999D01*
X832493D01*
X198165Y659831D02*
X196498Y661497D01*
X193166D01*
X191500Y659831D01*
Y658165D01*
X193166Y656498D01*
X196498D01*
X198165Y654832D01*
Y653166D01*
X196498Y651500D01*
X193166D01*
X191500Y653166D01*
X201497Y661497D02*
Y651500D01*
X204829Y654832D01*
X208161Y651500D01*
Y661497D01*
X211493D02*
Y651500D01*
X216492D01*
X218158Y653166D01*
Y659831D01*
X216492Y661497D01*
X211493D01*
X801500Y531497D02*
X804832D01*
X803166D01*
Y521500D01*
X801500D01*
X804832D01*
X814829Y531497D02*
X811497D01*
X809831Y529831D01*
Y523166D01*
X811497Y521500D01*
X814829D01*
X816495Y523166D01*
Y529831D01*
X814829Y531497D01*
X788165Y549831D02*
X786498Y551497D01*
X783166D01*
X781500Y549831D01*
Y548164D01*
X783166Y546498D01*
X786498D01*
X788165Y544832D01*
Y543166D01*
X786498Y541500D01*
X783166D01*
X781500Y543166D01*
X798161Y551497D02*
X791497D01*
Y541500D01*
X798161D01*
X791497Y546498D02*
X794829D01*
X801494Y541500D02*
Y551497D01*
X808158Y541500D01*
Y551497D01*
X818155Y549831D02*
X816489Y551497D01*
X813156D01*
X811490Y549831D01*
Y548164D01*
X813156Y546498D01*
X816489D01*
X818155Y544832D01*
Y543166D01*
X816489Y541500D01*
X813156D01*
X811490Y543166D01*
X826486Y551497D02*
X823153D01*
X821487Y549831D01*
Y543166D01*
X823153Y541500D01*
X826486D01*
X828152Y543166D01*
Y549831D01*
X826486Y551497D01*
X831484Y541500D02*
Y551497D01*
X836482D01*
X838148Y549831D01*
Y546498D01*
X836482Y544832D01*
X831484D01*
X834816D02*
X838148Y541500D01*
X841481D02*
X848145Y548164D01*
X261500Y511500D02*
X264832D01*
X263166D01*
Y521497D01*
X261500Y519831D01*
X151500Y91500D02*
X154832D01*
X153166D01*
Y101497D01*
X151500Y99831D01*
X801500Y251500D02*
X804832D01*
X803166D01*
Y261497D01*
X801500Y259831D01*
X21500Y481500D02*
X24832D01*
X23166D01*
Y491497D01*
X21500Y489831D01*
X38165Y509831D02*
X36498Y511497D01*
X33166D01*
X31500Y509831D01*
Y503166D01*
X33166Y501500D01*
X36498D01*
X38165Y503166D01*
X41497Y501500D02*
Y508164D01*
X44829Y511497D01*
X48161Y508164D01*
Y501500D01*
Y506498D01*
X41497D01*
X51494Y501500D02*
Y511497D01*
X58158Y501500D01*
Y511497D01*
X61490D02*
Y501500D01*
Y506498D01*
X68155D01*
Y511497D01*
Y501500D01*
X31500Y361497D02*
Y354832D01*
X34832Y351500D01*
X38165Y354832D01*
Y361497D01*
X41497D02*
X44829D01*
X43163D01*
Y351500D01*
X41497D01*
X44829D01*
X49827D02*
Y361497D01*
X56492Y351500D01*
Y361497D01*
X38165Y409831D02*
X36498Y411497D01*
X33166D01*
X31500Y409831D01*
Y403166D01*
X33166Y401500D01*
X36498D01*
X38165Y403166D01*
Y406498D01*
X34832D01*
X41497Y401500D02*
Y411497D01*
X48161Y401500D01*
Y411497D01*
X51494D02*
Y401500D01*
X56492D01*
X58158Y403166D01*
Y409831D01*
X56492Y411497D01*
X51494D01*
X38165Y459831D02*
X36498Y461497D01*
X33166D01*
X31500Y459831D01*
Y453166D01*
X33166Y451500D01*
X36498D01*
X38165Y453166D01*
X41497Y451500D02*
Y458164D01*
X44829Y461497D01*
X48161Y458164D01*
Y451500D01*
Y456498D01*
X41497D01*
X51494Y451500D02*
Y461497D01*
X58158Y451500D01*
Y461497D01*
X61490D02*
Y451500D01*
X68155D01*
X198165Y159831D02*
X196498Y161497D01*
X193166D01*
X191500Y159831D01*
Y153166D01*
X193166Y151500D01*
X196498D01*
X198165Y153166D01*
Y156498D01*
X194832D01*
X201497Y151500D02*
Y161497D01*
X208161Y151500D01*
Y161497D01*
X211493D02*
Y151500D01*
X216492D01*
X218158Y153166D01*
Y159831D01*
X216492Y161497D01*
X211493D01*
X141500D02*
Y154832D01*
X144832Y151500D01*
X148165Y154832D01*
Y161497D01*
X151497D02*
X154829D01*
X153163D01*
Y151500D01*
X151497D01*
X154829D01*
X159827D02*
Y161497D01*
X166492Y151500D01*
Y161497D01*
D15*
X117461Y557617D02*
X112382D01*
X114922D01*
Y544922D01*
X112382Y542383D01*
X109843D01*
X107304Y544922D01*
X132696Y542383D02*
X122539D01*
X132696Y552539D01*
Y555078D01*
X130157Y557617D01*
X125078D01*
X122539Y555078D01*
X99822Y655697D02*
X109979D01*
X104900D01*
Y640462D01*
X115057D02*
Y655697D01*
X122675D01*
X125214Y653158D01*
Y648080D01*
X122675Y645540D01*
X115057D01*
X130292Y643001D02*
X132831Y640462D01*
X137910D01*
X140449Y643001D01*
Y653158D01*
X137910Y655697D01*
X132831D01*
X130292Y653158D01*
Y650619D01*
X132831Y648080D01*
X140449D01*
X419843Y387617D02*
Y385078D01*
X424922Y380000D01*
X430000Y385078D01*
Y387617D01*
X424922Y380000D02*
Y372383D01*
X435078D02*
X440157D01*
X437617D01*
Y387617D01*
X435078Y385078D01*
X230886Y483231D02*
Y470535D01*
X233425Y467996D01*
X238503D01*
X241043Y470535D01*
Y483231D01*
X253739Y467996D02*
Y483231D01*
X246121Y475614D01*
X256278D01*
X373380Y531999D02*
Y519303D01*
X375919Y516764D01*
X380998D01*
X383537Y519303D01*
Y531999D01*
X388615Y529460D02*
X391154Y531999D01*
X396233D01*
X398772Y529460D01*
Y526921D01*
X396233Y524381D01*
X393693D01*
X396233D01*
X398772Y521842D01*
Y519303D01*
X396233Y516764D01*
X391154D01*
X388615Y519303D01*
X474726Y101215D02*
Y88519D01*
X477265Y85980D01*
X482343D01*
X484883Y88519D01*
Y101215D01*
X500118Y85980D02*
X489961D01*
X500118Y96137D01*
Y98676D01*
X497579Y101215D01*
X492500D01*
X489961Y98676D01*
X364998Y115185D02*
Y102489D01*
X367537Y99950D01*
X372616D01*
X375155Y102489D01*
Y115185D01*
X380233Y99950D02*
X385311D01*
X382772D01*
Y115185D01*
X380233Y112646D01*
X759714Y645537D02*
X769871D01*
X764792D01*
Y630302D01*
X774949D02*
Y645537D01*
X782567D01*
X785106Y642998D01*
Y637920D01*
X782567Y635380D01*
X774949D01*
X790184Y630302D02*
X795263D01*
X792723D01*
Y645537D01*
X790184Y642998D01*
X802880Y630302D02*
X807958D01*
X805419D01*
Y645537D01*
X802880Y642998D01*
X443339Y637617D02*
X453495D01*
X448417D01*
Y622383D01*
X458574D02*
Y637617D01*
X466191D01*
X468730Y635078D01*
Y630000D01*
X466191Y627461D01*
X458574D01*
X473809Y622383D02*
X478887D01*
X476348D01*
Y637617D01*
X473809Y635078D01*
X486505D02*
X489044Y637617D01*
X494122D01*
X496661Y635078D01*
Y624922D01*
X494122Y622383D01*
X489044D01*
X486505Y624922D01*
Y635078D01*
X269687Y598017D02*
X279843D01*
X274765D01*
Y582782D01*
X284922D02*
Y598017D01*
X292539D01*
X295078Y595478D01*
Y590400D01*
X292539Y587861D01*
X284922D01*
X300157Y595478D02*
X302696Y598017D01*
X307774D01*
X310313Y595478D01*
Y592939D01*
X307774Y590400D01*
X310313Y587861D01*
Y585322D01*
X307774Y582782D01*
X302696D01*
X300157Y585322D01*
Y587861D01*
X302696Y590400D01*
X300157Y592939D01*
Y595478D01*
X302696Y590400D02*
X307774D01*
X249682Y295525D02*
X259839D01*
X254760D01*
Y280290D01*
X264917D02*
Y295525D01*
X272535D01*
X275074Y292986D01*
Y287908D01*
X272535Y285368D01*
X264917D01*
X280152Y295525D02*
X290309D01*
Y292986D01*
X280152Y282829D01*
Y280290D01*
X189738Y295525D02*
X199895D01*
X194816D01*
Y280290D01*
X204973D02*
Y295525D01*
X212591D01*
X215130Y292986D01*
Y287908D01*
X212591Y285368D01*
X204973D01*
X230365Y295525D02*
X225287Y292986D01*
X220208Y287908D01*
Y282829D01*
X222747Y280290D01*
X227826D01*
X230365Y282829D01*
Y285368D01*
X227826Y287908D01*
X220208D01*
X129794Y295525D02*
X139951D01*
X134872D01*
Y280290D01*
X145029D02*
Y295525D01*
X152647D01*
X155186Y292986D01*
Y287908D01*
X152647Y285368D01*
X145029D01*
X170421Y295525D02*
X160264D01*
Y287908D01*
X165343Y290447D01*
X167882D01*
X170421Y287908D01*
Y282829D01*
X167882Y280290D01*
X162803D01*
X160264Y282829D01*
X159766Y225675D02*
X169923D01*
X164844D01*
Y210440D01*
X175001D02*
Y225675D01*
X182619D01*
X185158Y223136D01*
Y218057D01*
X182619Y215518D01*
X175001D01*
X197854Y210440D02*
Y225675D01*
X190236Y218057D01*
X200393D01*
X349758Y275713D02*
X359915D01*
X354836D01*
Y260478D01*
X364993D02*
Y275713D01*
X372611D01*
X375150Y273174D01*
Y268095D01*
X372611Y265556D01*
X364993D01*
X380228Y273174D02*
X382767Y275713D01*
X387846D01*
X390385Y273174D01*
Y270635D01*
X387846Y268095D01*
X385307D01*
X387846D01*
X390385Y265556D01*
Y263017D01*
X387846Y260478D01*
X382767D01*
X380228Y263017D01*
X719836Y115693D02*
X729993D01*
X724914D01*
Y100458D01*
X735071D02*
Y115693D01*
X742689D01*
X745228Y113154D01*
Y108076D01*
X742689Y105536D01*
X735071D01*
X760463Y100458D02*
X750306D01*
X760463Y110615D01*
Y113154D01*
X757924Y115693D01*
X752845D01*
X750306Y113154D01*
X239776Y215515D02*
X249933D01*
X244854D01*
Y200280D01*
X255011D02*
Y215515D01*
X262629D01*
X265168Y212976D01*
Y207897D01*
X262629Y205358D01*
X255011D01*
X270246Y200280D02*
X275324D01*
X272785D01*
Y215515D01*
X270246Y212976D01*
X679843Y595078D02*
X677304Y597617D01*
X672226D01*
X669687Y595078D01*
Y592539D01*
X672226Y590000D01*
X677304D01*
X679843Y587461D01*
Y584922D01*
X677304Y582383D01*
X672226D01*
X669687Y584922D01*
X684922Y597617D02*
Y582383D01*
X690000Y587461D01*
X695078Y582383D01*
Y597617D01*
X710313Y582383D02*
X700157D01*
X710313Y592539D01*
Y595078D01*
X707774Y597617D01*
X702696D01*
X700157Y595078D01*
X524253Y317370D02*
X521713Y319909D01*
X516635D01*
X514096Y317370D01*
Y314831D01*
X516635Y312292D01*
X521713D01*
X524253Y309752D01*
Y307213D01*
X521713Y304674D01*
X516635D01*
X514096Y307213D01*
X529331Y319909D02*
Y304674D01*
X534409Y309752D01*
X539488Y304674D01*
Y319909D01*
X544566Y304674D02*
X549645D01*
X547105D01*
Y319909D01*
X544566Y317370D01*
X535940Y639700D02*
Y654935D01*
X543558D01*
X546097Y652396D01*
Y647318D01*
X543558Y644778D01*
X535940D01*
X541018D02*
X546097Y639700D01*
X561332D02*
X551175D01*
X561332Y649857D01*
Y652396D01*
X558793Y654935D01*
X553714D01*
X551175Y652396D01*
X576567Y639700D02*
X566410D01*
X576567Y649857D01*
Y652396D01*
X574028Y654935D01*
X568949D01*
X566410Y652396D01*
X632226Y212383D02*
Y227617D01*
X639843D01*
X642383Y225078D01*
Y220000D01*
X639843Y217461D01*
X632226D01*
X637304D02*
X642383Y212383D01*
X657618D02*
X647461D01*
X657618Y222539D01*
Y225078D01*
X655078Y227617D01*
X650000D01*
X647461Y225078D01*
X662696Y212383D02*
X667774D01*
X665235D01*
Y227617D01*
X662696Y225078D01*
X689687Y212383D02*
Y227617D01*
X697304D01*
X699843Y225078D01*
Y220000D01*
X697304Y217461D01*
X689687D01*
X694765D02*
X699843Y212383D01*
X715078D02*
X704922D01*
X715078Y222539D01*
Y225078D01*
X712539Y227617D01*
X707461D01*
X704922Y225078D01*
X720157D02*
X722696Y227617D01*
X727774D01*
X730313Y225078D01*
Y214922D01*
X727774Y212383D01*
X722696D01*
X720157Y214922D01*
Y225078D01*
X341206Y642383D02*
Y657617D01*
X348824D01*
X351363Y655078D01*
Y650000D01*
X348824Y647461D01*
X341206D01*
X346284D02*
X351363Y642383D01*
X356441D02*
X361520D01*
X358980D01*
Y657617D01*
X356441Y655078D01*
X369137Y644922D02*
X371676Y642383D01*
X376755D01*
X379294Y644922D01*
Y655078D01*
X376755Y657617D01*
X371676D01*
X369137Y655078D01*
Y652539D01*
X371676Y650000D01*
X379294D01*
X328168Y579502D02*
Y594737D01*
X335785D01*
X338325Y592198D01*
Y587119D01*
X335785Y584580D01*
X328168D01*
X333246D02*
X338325Y579502D01*
X343403D02*
X348481D01*
X345942D01*
Y594737D01*
X343403Y592198D01*
X356099D02*
X358638Y594737D01*
X363717D01*
X366256Y592198D01*
Y589659D01*
X363717Y587119D01*
X366256Y584580D01*
Y582041D01*
X363717Y579502D01*
X358638D01*
X356099Y582041D01*
Y584580D01*
X358638Y587119D01*
X356099Y589659D01*
Y592198D01*
X358638Y587119D02*
X363717D01*
X510956Y572383D02*
Y587617D01*
X518574D01*
X521113Y585078D01*
Y580000D01*
X518574Y577461D01*
X510956D01*
X516035D02*
X521113Y572383D01*
X526191D02*
X531270D01*
X528730D01*
Y587617D01*
X526191Y585078D01*
X546505Y572383D02*
Y587617D01*
X538887Y580000D01*
X549044D01*
X560956Y572383D02*
Y587617D01*
X568574D01*
X571113Y585078D01*
Y580000D01*
X568574Y577461D01*
X560956D01*
X566035D02*
X571113Y572383D01*
X576191D02*
X581270D01*
X578730D01*
Y587617D01*
X576191Y585078D01*
X588887D02*
X591426Y587617D01*
X596505D01*
X599044Y585078D01*
Y582539D01*
X596505Y580000D01*
X593965D01*
X596505D01*
X599044Y577461D01*
Y574922D01*
X596505Y572383D01*
X591426D01*
X588887Y574922D01*
X695452Y326518D02*
Y341753D01*
X703070D01*
X705609Y339214D01*
Y334136D01*
X703070Y331596D01*
X695452D01*
X700530D02*
X705609Y326518D01*
X710687D02*
X715765D01*
X713226D01*
Y341753D01*
X710687Y339214D01*
X733540Y326518D02*
X723383D01*
X733540Y336675D01*
Y339214D01*
X731001Y341753D01*
X725922D01*
X723383Y339214D01*
X656082Y329566D02*
Y344801D01*
X663699D01*
X666239Y342262D01*
Y337183D01*
X663699Y334644D01*
X656082D01*
X661160D02*
X666239Y329566D01*
X671317D02*
X676395D01*
X673856D01*
Y344801D01*
X671317Y342262D01*
X684013Y329566D02*
X689091D01*
X686552D01*
Y344801D01*
X684013Y342262D01*
X695452Y386716D02*
Y401951D01*
X703070D01*
X705609Y399412D01*
Y394333D01*
X703070Y391794D01*
X695452D01*
X700530D02*
X705609Y386716D01*
X710687D02*
X715765D01*
X713226D01*
Y401951D01*
X710687Y399412D01*
X723383D02*
X725922Y401951D01*
X731001D01*
X733540Y399412D01*
Y389255D01*
X731001Y386716D01*
X725922D01*
X723383Y389255D01*
Y399412D01*
X658368Y389510D02*
Y404745D01*
X665985D01*
X668525Y402206D01*
Y397127D01*
X665985Y394588D01*
X658368D01*
X663446D02*
X668525Y389510D01*
X673603Y392049D02*
X676142Y389510D01*
X681221D01*
X683760Y392049D01*
Y402206D01*
X681221Y404745D01*
X676142D01*
X673603Y402206D01*
Y399667D01*
X676142Y397127D01*
X683760D01*
X695452Y446660D02*
Y461895D01*
X703070D01*
X705609Y459356D01*
Y454277D01*
X703070Y451738D01*
X695452D01*
X700530D02*
X705609Y446660D01*
X710687Y459356D02*
X713226Y461895D01*
X718305D01*
X720844Y459356D01*
Y456817D01*
X718305Y454277D01*
X720844Y451738D01*
Y449199D01*
X718305Y446660D01*
X713226D01*
X710687Y449199D01*
Y451738D01*
X713226Y454277D01*
X710687Y456817D01*
Y459356D01*
X713226Y454277D02*
X718305D01*
X695452Y496698D02*
Y511933D01*
X703070D01*
X705609Y509394D01*
Y504315D01*
X703070Y501776D01*
X695452D01*
X700530D02*
X705609Y496698D01*
X720844Y511933D02*
X715765Y509394D01*
X710687Y504315D01*
Y499237D01*
X713226Y496698D01*
X718305D01*
X720844Y499237D01*
Y501776D01*
X718305Y504315D01*
X710687D01*
X660400Y499746D02*
Y514981D01*
X668018D01*
X670557Y512442D01*
Y507364D01*
X668018Y504824D01*
X660400D01*
X665478D02*
X670557Y499746D01*
X685792Y514981D02*
X675635D01*
Y507364D01*
X680713Y509903D01*
X683253D01*
X685792Y507364D01*
Y502285D01*
X683253Y499746D01*
X678174D01*
X675635Y502285D01*
X135128Y496444D02*
Y511679D01*
X142746D01*
X145285Y509140D01*
Y504062D01*
X142746Y501522D01*
X135128D01*
X140206D02*
X145285Y496444D01*
X157981D02*
Y511679D01*
X150363Y504062D01*
X160520D01*
X576072Y399670D02*
Y414905D01*
X583689D01*
X586229Y412366D01*
Y407287D01*
X583689Y404748D01*
X576072D01*
X581150D02*
X586229Y399670D01*
X591307Y412366D02*
X593846Y414905D01*
X598925D01*
X601464Y412366D01*
Y409827D01*
X598925Y407287D01*
X596385D01*
X598925D01*
X601464Y404748D01*
Y402209D01*
X598925Y399670D01*
X593846D01*
X591307Y402209D01*
X518160Y369698D02*
Y384933D01*
X525778D01*
X528317Y382394D01*
Y377315D01*
X525778Y374776D01*
X518160D01*
X523238D02*
X528317Y369698D01*
X543552D02*
X533395D01*
X543552Y379855D01*
Y382394D01*
X541013Y384933D01*
X535934D01*
X533395Y382394D01*
X639843Y42382D02*
Y57618D01*
X647461D01*
X650000Y55078D01*
Y50000D01*
X647461Y47461D01*
X639843D01*
X644922D02*
X650000Y42382D01*
X655078D02*
X660157D01*
X657618D01*
Y57618D01*
X655078Y55078D01*
X187449Y498217D02*
X182370D01*
X184909D01*
Y485521D01*
X182370Y482982D01*
X179831D01*
X177292Y485521D01*
X192527Y482982D02*
Y498217D01*
X200145D01*
X202684Y495678D01*
Y490600D01*
X200145Y488060D01*
X192527D01*
X217919Y482982D02*
X207762D01*
X217919Y493139D01*
Y495678D01*
X215380Y498217D01*
X210301D01*
X207762Y495678D01*
X238249Y662301D02*
X233170D01*
X235709D01*
Y649605D01*
X233170Y647066D01*
X230631D01*
X228092Y649605D01*
X250945Y647066D02*
Y662301D01*
X243327Y654684D01*
X253484D01*
X827275Y521839D02*
X822196D01*
X824735D01*
Y509143D01*
X822196Y506604D01*
X819657D01*
X817118Y509143D01*
X832353Y519300D02*
X834892Y521839D01*
X839971D01*
X842510Y519300D01*
Y516761D01*
X839971Y514221D01*
X837431D01*
X839971D01*
X842510Y511682D01*
Y509143D01*
X839971Y506604D01*
X834892D01*
X832353Y509143D01*
X110000Y137618D02*
X104922D01*
X107461D01*
Y124922D01*
X104922Y122382D01*
X102382D01*
X99843Y124922D01*
X115078Y122382D02*
X120157D01*
X117618D01*
Y137618D01*
X115078Y135078D01*
X265173Y119249D02*
X255016D01*
Y111631D01*
X260094D01*
X255016D01*
Y104014D01*
X270251D02*
X275329D01*
X272790D01*
Y119249D01*
X270251Y116710D01*
X659892Y193925D02*
Y178690D01*
X667510D01*
X670049Y181229D01*
Y191386D01*
X667510Y193925D01*
X659892D01*
X675127D02*
X685284D01*
Y191386D01*
X675127Y181229D01*
Y178690D01*
X719836Y193925D02*
Y178690D01*
X727454D01*
X729993Y181229D01*
Y191386D01*
X727454Y193925D01*
X719836D01*
X745228D02*
X740149Y191386D01*
X735071Y186308D01*
Y181229D01*
X737610Y178690D01*
X742689D01*
X745228Y181229D01*
Y183768D01*
X742689Y186308D01*
X735071D01*
X390398Y663825D02*
Y648590D01*
X398016D01*
X400555Y651129D01*
Y661286D01*
X398016Y663825D01*
X390398D01*
X415790D02*
X405633D01*
Y656208D01*
X410711Y658747D01*
X413251D01*
X415790Y656208D01*
Y651129D01*
X413251Y648590D01*
X408172D01*
X405633Y651129D01*
X596646Y133981D02*
Y118746D01*
X604263D01*
X606803Y121285D01*
Y131442D01*
X604263Y133981D01*
X596646D01*
X611881Y131442D02*
X614420Y133981D01*
X619499D01*
X622038Y131442D01*
Y128903D01*
X619499Y126363D01*
X616959D01*
X619499D01*
X622038Y123824D01*
Y121285D01*
X619499Y118746D01*
X614420D01*
X611881Y121285D01*
X303276Y218563D02*
Y203328D01*
X310893D01*
X313433Y205867D01*
Y216024D01*
X310893Y218563D01*
X303276D01*
X328668Y203328D02*
X318511D01*
X328668Y213485D01*
Y216024D01*
X326129Y218563D01*
X321050D01*
X318511Y216024D01*
X339843Y37617D02*
Y22383D01*
X347461D01*
X350000Y24922D01*
Y35078D01*
X347461Y37617D01*
X339843D01*
X355078Y22383D02*
X360157D01*
X357618D01*
Y37617D01*
X355078Y35078D01*
X335023Y510664D02*
X332483Y513203D01*
X327405D01*
X324866Y510664D01*
Y500507D01*
X327405Y497968D01*
X332483D01*
X335023Y500507D01*
X340101Y497968D02*
X345179D01*
X342640D01*
Y513203D01*
X340101Y510664D01*
X352797D02*
X355336Y513203D01*
X360415D01*
X362954Y510664D01*
Y508125D01*
X360415Y505586D01*
X362954Y503046D01*
Y500507D01*
X360415Y497968D01*
X355336D01*
X352797Y500507D01*
Y503046D01*
X355336Y505586D01*
X352797Y508125D01*
Y510664D01*
X355336Y505586D02*
X360415D01*
X750363Y335078D02*
X747824Y337617D01*
X742745D01*
X740206Y335078D01*
Y324922D01*
X742745Y322383D01*
X747824D01*
X750363Y324922D01*
X755441Y322383D02*
X760520D01*
X757980D01*
Y337617D01*
X755441Y335078D01*
X768137Y337617D02*
X778294D01*
Y335078D01*
X768137Y324922D01*
Y322383D01*
X755647Y401698D02*
X753108Y404237D01*
X748029D01*
X745490Y401698D01*
Y391541D01*
X748029Y389002D01*
X753108D01*
X755647Y391541D01*
X760725Y389002D02*
X765803D01*
X763264D01*
Y404237D01*
X760725Y401698D01*
X783578Y404237D02*
X778499Y401698D01*
X773421Y396619D01*
Y391541D01*
X775960Y389002D01*
X781039D01*
X783578Y391541D01*
Y394080D01*
X781039Y396619D01*
X773421D01*
X755647Y461896D02*
X753108Y464435D01*
X748029D01*
X745490Y461896D01*
Y451739D01*
X748029Y449200D01*
X753108D01*
X755647Y451739D01*
X760725Y449200D02*
X765803D01*
X763264D01*
Y464435D01*
X760725Y461896D01*
X783578Y464435D02*
X773421D01*
Y456818D01*
X778499Y459357D01*
X781039D01*
X783578Y456818D01*
Y451739D01*
X781039Y449200D01*
X775960D01*
X773421Y451739D01*
X756409Y511934D02*
X753869Y514473D01*
X748791D01*
X746252Y511934D01*
Y501777D01*
X748791Y499238D01*
X753869D01*
X756409Y501777D01*
X761487Y499238D02*
X766565D01*
X764026D01*
Y514473D01*
X761487Y511934D01*
X781801Y499238D02*
Y514473D01*
X774183Y506856D01*
X784340D01*
X284985Y521840D02*
X282446Y524379D01*
X277367D01*
X274828Y521840D01*
Y511683D01*
X277367Y509144D01*
X282446D01*
X284985Y511683D01*
X290063Y509144D02*
X295141D01*
X292602D01*
Y524379D01*
X290063Y521840D01*
X302759D02*
X305298Y524379D01*
X310376D01*
X312916Y521840D01*
Y519301D01*
X310376Y516762D01*
X307837D01*
X310376D01*
X312916Y514222D01*
Y511683D01*
X310376Y509144D01*
X305298D01*
X302759Y511683D01*
X481113Y352678D02*
X478574Y355218D01*
X473495D01*
X470956Y352678D01*
Y342522D01*
X473495Y339982D01*
X478574D01*
X481113Y342522D01*
X486191Y339982D02*
X491270D01*
X488730D01*
Y355218D01*
X486191Y352678D01*
X509044Y339982D02*
X498887D01*
X509044Y350139D01*
Y352678D01*
X506505Y355218D01*
X501426D01*
X498887Y352678D01*
X383652Y345078D02*
X381113Y347617D01*
X376035D01*
X373495Y345078D01*
Y334922D01*
X376035Y332382D01*
X381113D01*
X383652Y334922D01*
X388730Y332382D02*
X393809D01*
X391270D01*
Y347617D01*
X388730Y345078D01*
X401426Y332382D02*
X406505D01*
X403965D01*
Y347617D01*
X401426Y345078D01*
X601113Y295078D02*
X598574Y297617D01*
X593495D01*
X590956Y295078D01*
Y284922D01*
X593495Y282383D01*
X598574D01*
X601113Y284922D01*
X606191Y282383D02*
X611270D01*
X608730D01*
Y297617D01*
X606191Y295078D01*
X618887D02*
X621426Y297617D01*
X626505D01*
X629044Y295078D01*
Y284922D01*
X626505Y282383D01*
X621426D01*
X618887Y284922D01*
Y295078D01*
X351025Y413636D02*
X348485Y416175D01*
X343407D01*
X340868Y413636D01*
Y403479D01*
X343407Y400940D01*
X348485D01*
X351025Y403479D01*
X356103D02*
X358642Y400940D01*
X363721D01*
X366260Y403479D01*
Y413636D01*
X363721Y416175D01*
X358642D01*
X356103Y413636D01*
Y411097D01*
X358642Y408558D01*
X366260D01*
X306321Y381886D02*
X303782Y384425D01*
X298703D01*
X296164Y381886D01*
Y371729D01*
X298703Y369190D01*
X303782D01*
X306321Y371729D01*
X311399Y381886D02*
X313938Y384425D01*
X319017D01*
X321556Y381886D01*
Y379347D01*
X319017Y376808D01*
X321556Y374268D01*
Y371729D01*
X319017Y369190D01*
X313938D01*
X311399Y371729D01*
Y374268D01*
X313938Y376808D01*
X311399Y379347D01*
Y381886D01*
X313938Y376808D02*
X319017D01*
X265681Y381886D02*
X263141Y384425D01*
X258063D01*
X255524Y381886D01*
Y371729D01*
X258063Y369190D01*
X263141D01*
X265681Y371729D01*
X270759Y384425D02*
X280916D01*
Y381886D01*
X270759Y371729D01*
Y369190D01*
X225803Y381886D02*
X223263Y384425D01*
X218185D01*
X215646Y381886D01*
Y371729D01*
X218185Y369190D01*
X223263D01*
X225803Y371729D01*
X241038Y384425D02*
X235959Y381886D01*
X230881Y376808D01*
Y371729D01*
X233420Y369190D01*
X238499D01*
X241038Y371729D01*
Y374268D01*
X238499Y376808D01*
X230881D01*
X185671Y381886D02*
X183132Y384425D01*
X178053D01*
X175514Y381886D01*
Y371729D01*
X178053Y369190D01*
X183132D01*
X185671Y371729D01*
X200906Y384425D02*
X190749D01*
Y376808D01*
X195827Y379347D01*
X198367D01*
X200906Y376808D01*
Y371729D01*
X198367Y369190D01*
X193288D01*
X190749Y371729D01*
X550923Y173606D02*
X548383Y176145D01*
X543305D01*
X540766Y173606D01*
Y163449D01*
X543305Y160910D01*
X548383D01*
X550923Y163449D01*
X563619Y160910D02*
Y176145D01*
X556001Y168528D01*
X566158D01*
X489963Y173606D02*
X487424Y176145D01*
X482345D01*
X479806Y173606D01*
Y163449D01*
X482345Y160910D01*
X487424D01*
X489963Y163449D01*
X495041Y173606D02*
X497580Y176145D01*
X502659D01*
X505198Y173606D01*
Y171067D01*
X502659Y168528D01*
X500119D01*
X502659D01*
X505198Y165988D01*
Y163449D01*
X502659Y160910D01*
X497580D01*
X495041Y163449D01*
X423923Y172082D02*
X421384Y174621D01*
X416305D01*
X413766Y172082D01*
Y161925D01*
X416305Y159386D01*
X421384D01*
X423923Y161925D01*
X439158Y159386D02*
X429001D01*
X439158Y169543D01*
Y172082D01*
X436619Y174621D01*
X431540D01*
X429001Y172082D01*
X370837Y173606D02*
X368298Y176145D01*
X363219D01*
X360680Y173606D01*
Y163449D01*
X363219Y160910D01*
X368298D01*
X370837Y163449D01*
X375915Y160910D02*
X380993D01*
X378454D01*
Y176145D01*
X375915Y173606D01*
M02*
