G04*
G04 #@! TF.GenerationSoftware,Altium Limited,Altium Designer,26.7.1 (11)*
G04*
G04 Layer_Physical_Order=2*
G04 Layer_Color=16711680*
G04 Board_Origin=0|30314961*
%FSLAX44Y44*%
%MOMM*%
G71*
G04*
G04 #@! TF.SameCoordinates,DC734799-6447-4278-95CF-02F7B206336A*
G04*
G04*
G04 #@! TF.FilePolarity,Positive*
G04*
G01*
G75*
%ADD15C,0.2540*%
%ADD36C,2.1500*%
%ADD37C,2.4000*%
%ADD38R,2.1500X2.1500*%
%ADD39C,2.1000*%
%ADD40C,2.2500*%
%ADD41C,1.4000*%
%ADD42C,1.5500*%
%ADD43C,1.5700*%
%ADD44R,1.5700X1.5700*%
G04:AMPARAMS|DCode=45|XSize=2.25mm|YSize=2.25mm|CornerRadius=0.5625mm|HoleSize=0mm|Usage=FLASHONLY|Rotation=0.000|XOffset=0mm|YOffset=0mm|HoleType=Round|Shape=RoundedRectangle|*
%AMROUNDEDRECTD45*
21,1,2.2500,1.1250,0,0,0.0*
21,1,1.1250,2.2500,0,0,0.0*
1,1,1.1250,0.5625,-0.5625*
1,1,1.1250,-0.5625,-0.5625*
1,1,1.1250,-0.5625,0.5625*
1,1,1.1250,0.5625,0.5625*
%
%ADD45ROUNDEDRECTD45*%
%ADD46R,1.5500X1.5500*%
%ADD47C,6.0000*%
%ADD48C,1.2700*%
%ADD49C,0.3000*%
%ADD50C,0.4000*%
G36*
X900000Y0D02*
X0D01*
Y670000D01*
X900000D01*
Y0D01*
D02*
G37*
%LPC*%
G36*
X241355Y631890D02*
X241270D01*
Y622870D01*
X250290D01*
Y622955D01*
X249589Y625572D01*
X248234Y627918D01*
X246318Y629834D01*
X243972Y631189D01*
X241355Y631890D01*
D02*
G37*
G36*
X238730D02*
X238645D01*
X236028Y631189D01*
X233682Y629834D01*
X231766Y627918D01*
X230411Y625572D01*
X229710Y622955D01*
Y622870D01*
X238730D01*
Y631890D01*
D02*
G37*
G36*
X250290Y620330D02*
X241270D01*
Y611310D01*
X241355D01*
X243972Y612011D01*
X246318Y613366D01*
X248234Y615282D01*
X249589Y617628D01*
X250290Y620245D01*
Y620330D01*
D02*
G37*
G36*
X238730D02*
X229710D01*
Y620245D01*
X230411Y617628D01*
X231766Y615282D01*
X233682Y613366D01*
X236028Y612011D01*
X238645Y611310D01*
X238730D01*
Y620330D01*
D02*
G37*
G36*
X391270Y618863D02*
Y611270D01*
X398863D01*
X398284Y613431D01*
X397114Y615459D01*
X395459Y617114D01*
X393431Y618284D01*
X391270Y618863D01*
D02*
G37*
G36*
X388730D02*
X386569Y618284D01*
X384541Y617114D01*
X382886Y615459D01*
X381716Y613431D01*
X381137Y611270D01*
X388730D01*
Y618863D01*
D02*
G37*
G36*
X471547Y611750D02*
X468453D01*
X465465Y610949D01*
X462785Y609402D01*
X460598Y607215D01*
X459051Y604535D01*
X458587Y602804D01*
X397498D01*
X396876Y604304D01*
X397114Y604541D01*
X398284Y606569D01*
X398863Y608730D01*
X381137D01*
X381716Y606569D01*
X382886Y604541D01*
X383124Y604304D01*
X382502Y602804D01*
X277117D01*
X277082Y602934D01*
X276082Y604666D01*
X274667Y606082D01*
X272934Y607082D01*
X271001Y607600D01*
X268999D01*
X267066Y607082D01*
X265333Y606082D01*
X263918Y604666D01*
X262918Y602934D01*
X262400Y601001D01*
Y598999D01*
X262918Y597066D01*
X263918Y595334D01*
X265333Y593918D01*
X267066Y592918D01*
X268999Y592400D01*
X271001D01*
X272934Y592918D01*
X274667Y593918D01*
X276082Y595334D01*
X277082Y597066D01*
X277117Y597196D01*
X458587D01*
X459051Y595465D01*
X460598Y592785D01*
X462785Y590598D01*
X465465Y589051D01*
X468453Y588250D01*
X471547D01*
X473901Y588881D01*
X476176Y586605D01*
Y564574D01*
X476390Y563501D01*
X476997Y562592D01*
X492222Y547367D01*
X493131Y546760D01*
X493764Y546634D01*
X494268Y545533D01*
X494298Y545046D01*
X493918Y544666D01*
X492918Y542934D01*
X492883Y542804D01*
X407117D01*
X407082Y542934D01*
X406082Y544666D01*
X404666Y546082D01*
X402934Y547082D01*
X402736Y547135D01*
X402557Y548736D01*
X402991Y549026D01*
X406950Y552985D01*
X407066Y552918D01*
X408999Y552400D01*
X411001D01*
X412934Y552918D01*
X414666Y553918D01*
X416082Y555334D01*
X417082Y557066D01*
X417600Y558999D01*
Y561001D01*
X417082Y562934D01*
X416082Y564666D01*
X414666Y566082D01*
X412934Y567082D01*
X411001Y567600D01*
X408999D01*
X407066Y567082D01*
X405334Y566082D01*
X403918Y564666D01*
X402918Y562934D01*
X402400Y561001D01*
Y558999D01*
X402918Y557066D01*
X402985Y556950D01*
X399847Y553812D01*
X397786D01*
X397785Y553812D01*
X396712Y553599D01*
X395803Y552991D01*
X368017Y525206D01*
X367410Y524296D01*
X367196Y523223D01*
X367410Y522150D01*
X368017Y521240D01*
X371240Y518017D01*
X372150Y517410D01*
X373223Y517196D01*
X432883D01*
X432918Y517066D01*
X433918Y515334D01*
X435334Y513918D01*
X437066Y512918D01*
X438999Y512400D01*
X441001D01*
X442934Y512918D01*
X444666Y513918D01*
X446082Y515334D01*
X447082Y517066D01*
X447600Y518999D01*
Y521001D01*
X447082Y522934D01*
X446082Y524666D01*
X445072Y525676D01*
X445646Y527176D01*
X510649D01*
X510679Y527066D01*
X511679Y525334D01*
X513094Y523918D01*
X514827Y522918D01*
X516760Y522400D01*
X518761D01*
X520694Y522918D01*
X522427Y523918D01*
X523842Y525334D01*
X524843Y527066D01*
X525361Y528999D01*
Y529536D01*
X526861Y530158D01*
X537196Y519822D01*
Y457117D01*
X537066Y457082D01*
X535334Y456082D01*
X533918Y454666D01*
X532918Y452934D01*
X532400Y451001D01*
Y448999D01*
X532918Y447066D01*
X533918Y445334D01*
X535334Y443918D01*
X537066Y442918D01*
X538999Y442400D01*
X541001D01*
X542934Y442918D01*
X544666Y443918D01*
X546082Y445334D01*
X547082Y447066D01*
X547600Y448999D01*
Y451001D01*
X547082Y452934D01*
X546082Y454666D01*
X544666Y456082D01*
X542934Y457082D01*
X542804Y457117D01*
Y520984D01*
X542804Y520984D01*
X542590Y522057D01*
X541983Y522966D01*
X513616Y551333D01*
X512707Y551940D01*
X511634Y552154D01*
X495366D01*
X488231Y559288D01*
X488852Y560788D01*
X489389D01*
X491322Y561306D01*
X493055Y562307D01*
X494470Y563722D01*
X495471Y565455D01*
X495989Y567388D01*
Y569389D01*
X495471Y571322D01*
X495404Y571438D01*
X516950Y592985D01*
X517066Y592918D01*
X518999Y592400D01*
X521001D01*
X522934Y592918D01*
X524666Y593918D01*
X526082Y595334D01*
X527082Y597066D01*
X527600Y598999D01*
Y601001D01*
X527082Y602934D01*
X526082Y604666D01*
X524666Y606082D01*
X522934Y607082D01*
X521001Y607600D01*
X518999D01*
X517066Y607082D01*
X515334Y606082D01*
X513918Y604666D01*
X512918Y602934D01*
X512400Y601001D01*
Y598999D01*
X512918Y597066D01*
X512985Y596950D01*
X491438Y575404D01*
X491322Y575471D01*
X489389Y575989D01*
X487388D01*
X485455Y575471D01*
X483722Y574470D01*
X483284Y574032D01*
X481784Y574653D01*
Y587767D01*
X481570Y588840D01*
X480963Y589749D01*
X478665Y592048D01*
X479402Y592785D01*
X480949Y595465D01*
X481750Y598453D01*
Y601547D01*
X480949Y604535D01*
X479402Y607215D01*
X477215Y609402D01*
X474535Y610949D01*
X471547Y611750D01*
D02*
G37*
G36*
X852459Y651250D02*
X847541D01*
X842682Y650480D01*
X838004Y648960D01*
X833621Y646727D01*
X829642Y643836D01*
X826164Y640358D01*
X823273Y636379D01*
X821040Y631996D01*
X819520Y627318D01*
X818750Y622459D01*
Y617541D01*
X819520Y612682D01*
X821040Y608004D01*
X823273Y603621D01*
X826164Y599642D01*
X829642Y596164D01*
X833621Y593273D01*
X838004Y591040D01*
X842682Y589520D01*
X847541Y588750D01*
X852459D01*
X857318Y589520D01*
X861996Y591040D01*
X866379Y593273D01*
X870358Y596164D01*
X873836Y599642D01*
X876727Y603621D01*
X878960Y608004D01*
X880480Y612682D01*
X881250Y617541D01*
Y622459D01*
X880480Y627318D01*
X878960Y631996D01*
X876727Y636379D01*
X873836Y640358D01*
X870358Y643836D01*
X866379Y646727D01*
X861996Y648960D01*
X857318Y650480D01*
X852459Y651250D01*
D02*
G37*
G36*
X52459D02*
X47541D01*
X42682Y650480D01*
X38004Y648960D01*
X33621Y646727D01*
X29642Y643836D01*
X26164Y640358D01*
X23273Y636379D01*
X21040Y631996D01*
X19519Y627318D01*
X18750Y622459D01*
Y617541D01*
X19519Y612682D01*
X21040Y608004D01*
X23273Y603621D01*
X26164Y599642D01*
X29642Y596164D01*
X33621Y593273D01*
X38004Y591040D01*
X42682Y589520D01*
X47541Y588750D01*
X52459D01*
X57318Y589520D01*
X61996Y591040D01*
X66379Y593273D01*
X70358Y596164D01*
X73836Y599642D01*
X76727Y603621D01*
X78960Y608004D01*
X80480Y612682D01*
X81250Y617541D01*
Y622459D01*
X80480Y627318D01*
X78960Y631996D01*
X76727Y636379D01*
X73836Y640358D01*
X70358Y643836D01*
X66379Y646727D01*
X61996Y648960D01*
X57318Y650480D01*
X52459Y651250D01*
D02*
G37*
G36*
X781547Y611750D02*
X778453D01*
X775465Y610949D01*
X772785Y609402D01*
X770598Y607215D01*
X769051Y604535D01*
X768587Y602804D01*
X730000D01*
X728927Y602590D01*
X728017Y601983D01*
X728017Y601983D01*
X703050Y577015D01*
X702934Y577082D01*
X701001Y577600D01*
X698999D01*
X697066Y577082D01*
X695333Y576082D01*
X693919Y574666D01*
X692918Y572934D01*
X692400Y571001D01*
Y568999D01*
X692918Y567066D01*
X693919Y565334D01*
X695333Y563918D01*
X697066Y562918D01*
X698999Y562400D01*
X701001D01*
X702934Y562918D01*
X704667Y563918D01*
X706081Y565334D01*
X707082Y567066D01*
X707600Y568999D01*
Y571001D01*
X707082Y572934D01*
X707015Y573050D01*
X731161Y597196D01*
X768587D01*
X769051Y595465D01*
X770598Y592785D01*
X772785Y590598D01*
X775465Y589051D01*
X778453Y588250D01*
X781547D01*
X784535Y589051D01*
X787215Y590598D01*
X789402Y592785D01*
X790949Y595465D01*
X791750Y598453D01*
Y601547D01*
X790949Y604535D01*
X789402Y607215D01*
X787215Y609402D01*
X784535Y610949D01*
X781547Y611750D01*
D02*
G37*
G36*
X241185Y605200D02*
X238815D01*
X236526Y604587D01*
X234474Y603402D01*
X232798Y601726D01*
X231613Y599674D01*
X231000Y597385D01*
Y595015D01*
X231613Y592726D01*
X232798Y590674D01*
X234474Y588998D01*
X236526Y587813D01*
X238815Y587200D01*
X241185D01*
X243474Y587813D01*
X245526Y588998D01*
X247202Y590674D01*
X248387Y592726D01*
X249000Y595015D01*
Y597385D01*
X248387Y599674D01*
X247202Y601726D01*
X245526Y603402D01*
X243474Y604587D01*
X241185Y605200D01*
D02*
G37*
G36*
X121547Y621750D02*
X118453D01*
X115465Y620949D01*
X112785Y619402D01*
X110598Y617215D01*
X109051Y614535D01*
X108250Y611547D01*
Y608453D01*
X109051Y605465D01*
X110598Y602785D01*
X112785Y600598D01*
X115465Y599051D01*
X118453Y598250D01*
X121547D01*
X124535Y599051D01*
X126088Y599947D01*
X178017Y548017D01*
X178927Y547410D01*
X180000Y547196D01*
X219200D01*
X220273Y547410D01*
X221183Y548017D01*
X235925Y562760D01*
X236526Y562413D01*
X238815Y561800D01*
X241185D01*
X243474Y562413D01*
X245526Y563598D01*
X247202Y565274D01*
X248387Y567326D01*
X249000Y569615D01*
Y571985D01*
X248387Y574274D01*
X247202Y576326D01*
X245526Y578002D01*
X243474Y579187D01*
X241185Y579800D01*
X238815D01*
X236526Y579187D01*
X234474Y578002D01*
X232798Y576326D01*
X231613Y574274D01*
X231000Y571985D01*
Y569615D01*
X231613Y567326D01*
X231960Y566725D01*
X218039Y552804D01*
X181161D01*
X130053Y603912D01*
X130949Y605465D01*
X131750Y608453D01*
Y611547D01*
X130949Y614535D01*
X129402Y617215D01*
X127215Y619402D01*
X124535Y620949D01*
X121547Y621750D01*
D02*
G37*
G36*
X321270Y548863D02*
Y541270D01*
X328863D01*
X328284Y543431D01*
X327114Y545459D01*
X325459Y547114D01*
X323431Y548284D01*
X321270Y548863D01*
D02*
G37*
G36*
X241185Y554400D02*
X238815D01*
X236526Y553787D01*
X234474Y552602D01*
X232798Y550926D01*
X231613Y548874D01*
X231000Y546585D01*
Y544215D01*
X231613Y541926D01*
X232798Y539874D01*
X234474Y538198D01*
X236526Y537013D01*
X238815Y536400D01*
X241185D01*
X243474Y537013D01*
X245526Y538198D01*
X247202Y539874D01*
X248387Y541926D01*
X249000Y544215D01*
Y546585D01*
X248387Y548874D01*
X247202Y550926D01*
X245526Y552602D01*
X243474Y553787D01*
X241185Y554400D01*
D02*
G37*
G36*
X52252Y546450D02*
X48764D01*
X45394Y545547D01*
X42372Y543803D01*
X39905Y541336D01*
X38161Y538314D01*
X37258Y534944D01*
Y531456D01*
X38161Y528086D01*
X39905Y525064D01*
X42372Y522597D01*
X45394Y520853D01*
X48764Y519950D01*
X52252D01*
X55622Y520853D01*
X58644Y522597D01*
X61111Y525064D01*
X62855Y528086D01*
X63758Y531456D01*
Y534944D01*
X62855Y538314D01*
X61111Y541336D01*
X58644Y543803D01*
X55622Y545547D01*
X52252Y546450D01*
D02*
G37*
G36*
X771909Y547600D02*
X769908D01*
X767975Y547082D01*
X766242Y546082D01*
X764827Y544666D01*
X763826Y542934D01*
X763308Y541001D01*
Y538999D01*
X763826Y537066D01*
X764827Y535334D01*
X766242Y533918D01*
X767975Y532918D01*
X769908Y532400D01*
X771909D01*
X773842Y532918D01*
X775575Y533918D01*
X776990Y535334D01*
X777990Y537066D01*
X778025Y537196D01*
X858839D01*
X867196Y528839D01*
Y527117D01*
X867066Y527082D01*
X865333Y526082D01*
X863919Y524666D01*
X862918Y522934D01*
X862400Y521001D01*
Y518999D01*
X862918Y517066D01*
X863919Y515334D01*
X865333Y513918D01*
X867066Y512918D01*
X868999Y512400D01*
X871001D01*
X872934Y512918D01*
X874667Y513918D01*
X876081Y515334D01*
X877082Y517066D01*
X877600Y518999D01*
Y521001D01*
X877082Y522934D01*
X876081Y524666D01*
X874667Y526082D01*
X872934Y527082D01*
X872804Y527117D01*
Y530000D01*
X872590Y531073D01*
X871983Y531983D01*
X861983Y541983D01*
X861073Y542590D01*
X860000Y542804D01*
X778025D01*
X777990Y542934D01*
X776990Y544666D01*
X775575Y546082D01*
X773842Y547082D01*
X771909Y547600D01*
D02*
G37*
G36*
X249000Y529000D02*
X231000D01*
Y511000D01*
X249000D01*
Y529000D01*
D02*
G37*
G36*
X371270Y508863D02*
Y501270D01*
X378863D01*
X378284Y503431D01*
X377114Y505459D01*
X375459Y507114D01*
X373431Y508284D01*
X371270Y508863D01*
D02*
G37*
G36*
X368730D02*
X366569Y508284D01*
X364541Y507114D01*
X362886Y505459D01*
X361716Y503431D01*
X361137Y501270D01*
X368730D01*
Y508863D01*
D02*
G37*
G36*
X261270Y498863D02*
Y491270D01*
X268863D01*
X268284Y493431D01*
X267114Y495459D01*
X265459Y497114D01*
X263431Y498284D01*
X261270Y498863D01*
D02*
G37*
G36*
X258730D02*
X256569Y498284D01*
X254541Y497114D01*
X252886Y495459D01*
X251716Y493431D01*
X251137Y491270D01*
X258730D01*
Y498863D01*
D02*
G37*
G36*
X378863Y498730D02*
X371270D01*
Y491137D01*
X373431Y491716D01*
X375459Y492886D01*
X377114Y494541D01*
X378284Y496569D01*
X378863Y498730D01*
D02*
G37*
G36*
X368730D02*
X361137D01*
X361716Y496569D01*
X362886Y494541D01*
X364541Y492886D01*
X366569Y491716D01*
X368730Y491137D01*
Y498730D01*
D02*
G37*
G36*
X268863Y488730D02*
X261270D01*
Y481137D01*
X263431Y481716D01*
X265459Y482886D01*
X267114Y484541D01*
X268284Y486569D01*
X268863Y488730D01*
D02*
G37*
G36*
X258730D02*
X251137D01*
X251716Y486569D01*
X252886Y484541D01*
X254541Y482886D01*
X256569Y481716D01*
X258730Y481137D01*
Y488730D01*
D02*
G37*
G36*
X831198Y491500D02*
X828802D01*
X826488Y490880D01*
X824413Y489682D01*
X822718Y487988D01*
X821520Y485913D01*
X820900Y483598D01*
Y481202D01*
X821520Y478887D01*
X822718Y476813D01*
X824413Y475118D01*
X826488Y473920D01*
X828802Y473300D01*
X831198D01*
X833512Y473920D01*
X835587Y475118D01*
X837282Y476813D01*
X838480Y478887D01*
X839100Y481202D01*
Y483598D01*
X838480Y485913D01*
X837282Y487988D01*
X835587Y489682D01*
X833512Y490880D01*
X831198Y491500D01*
D02*
G37*
G36*
X62508Y494400D02*
X38508D01*
Y470400D01*
X62508D01*
Y494400D01*
D02*
G37*
G36*
X731270Y468863D02*
Y461270D01*
X738863D01*
X738284Y463431D01*
X737114Y465459D01*
X735459Y467114D01*
X733431Y468284D01*
X731270Y468863D01*
D02*
G37*
G36*
X728730D02*
X726569Y468284D01*
X724541Y467114D01*
X722886Y465459D01*
X721716Y463431D01*
X721137Y461270D01*
X728730D01*
Y468863D01*
D02*
G37*
G36*
X738863Y458730D02*
X731270D01*
Y451137D01*
X733431Y451716D01*
X735459Y452886D01*
X737114Y454541D01*
X738284Y456569D01*
X738863Y458730D01*
D02*
G37*
G36*
X728730D02*
X721137D01*
X721716Y456569D01*
X722886Y454541D01*
X724541Y452886D01*
X726569Y451716D01*
X728730Y451137D01*
Y458730D01*
D02*
G37*
G36*
X191198Y469100D02*
X188802D01*
X186488Y468480D01*
X184412Y467282D01*
X182718Y465588D01*
X181520Y463512D01*
X180900Y461198D01*
Y458802D01*
X181520Y456488D01*
X182718Y454412D01*
X184412Y452718D01*
X186488Y451520D01*
X188802Y450900D01*
X191198D01*
X193512Y451520D01*
X195588Y452718D01*
X197282Y454412D01*
X198480Y456488D01*
X199100Y458802D01*
Y461198D01*
X198480Y463512D01*
X197282Y465588D01*
X195588Y467282D01*
X193512Y468480D01*
X191198Y469100D01*
D02*
G37*
G36*
X831198Y466100D02*
X828802D01*
X826488Y465480D01*
X824413Y464282D01*
X822718Y462588D01*
X821520Y460513D01*
X820900Y458198D01*
Y455802D01*
X821520Y453488D01*
X822718Y451413D01*
X824413Y449718D01*
X826488Y448520D01*
X828802Y447900D01*
X831198D01*
X833512Y448520D01*
X835587Y449718D01*
X837282Y451413D01*
X838480Y453488D01*
X839100Y455802D01*
Y458198D01*
X838480Y460513D01*
X837282Y462588D01*
X835587Y464282D01*
X833512Y465480D01*
X831198Y466100D01*
D02*
G37*
G36*
X291547Y571750D02*
X288453D01*
X285465Y570949D01*
X282785Y569402D01*
X280598Y567215D01*
X279051Y564535D01*
X278250Y561547D01*
Y558453D01*
X279051Y555465D01*
X280598Y552785D01*
X282785Y550598D01*
X285465Y549051D01*
X288453Y548250D01*
X291547D01*
X294535Y549051D01*
X296088Y549947D01*
X307846Y538189D01*
Y536127D01*
X308060Y535054D01*
X308667Y534145D01*
X337196Y505616D01*
Y440000D01*
X337410Y438927D01*
X338017Y438017D01*
X338927Y437410D01*
X340000Y437196D01*
X342883D01*
X342918Y437066D01*
X343918Y435334D01*
X345334Y433918D01*
X347066Y432918D01*
X348999Y432400D01*
X351001D01*
X352934Y432918D01*
X354666Y433918D01*
X356082Y435334D01*
X357082Y437066D01*
X357600Y438999D01*
Y441001D01*
X357082Y442934D01*
X356082Y444666D01*
X354666Y446082D01*
X352934Y447082D01*
X351001Y447600D01*
X348999D01*
X347066Y447082D01*
X345334Y446082D01*
X344304Y445052D01*
X342804Y445597D01*
Y506777D01*
X342590Y507850D01*
X341983Y508760D01*
X321009Y529734D01*
X321631Y531233D01*
X323431Y531716D01*
X325459Y532886D01*
X327114Y534541D01*
X328284Y536569D01*
X328863Y538730D01*
X320000D01*
Y540000D01*
X318730D01*
Y548863D01*
X316569Y548284D01*
X314541Y547114D01*
X312886Y545459D01*
X312060Y544027D01*
X310343Y543622D01*
X300053Y553912D01*
X300949Y555465D01*
X301750Y558453D01*
Y561547D01*
X300949Y564535D01*
X299402Y567215D01*
X297215Y569402D01*
X294535Y570949D01*
X291547Y571750D01*
D02*
G37*
G36*
X199100Y443700D02*
X180900D01*
Y425500D01*
X199100D01*
Y443700D01*
D02*
G37*
G36*
X296980Y430913D02*
X294819Y430334D01*
X292791Y429164D01*
X291136Y427509D01*
X289966Y425481D01*
X289387Y423320D01*
X296980D01*
Y430913D01*
D02*
G37*
G36*
X831198Y440700D02*
X828802D01*
X826488Y440080D01*
X824413Y438882D01*
X822718Y437188D01*
X821520Y435112D01*
X820900Y432798D01*
Y430402D01*
X821520Y428088D01*
X822718Y426012D01*
X824413Y424318D01*
X826488Y423120D01*
X828802Y422500D01*
X831198D01*
X833512Y423120D01*
X835587Y424318D01*
X837282Y426012D01*
X838480Y428088D01*
X839100Y430402D01*
Y432798D01*
X838480Y435112D01*
X837282Y437188D01*
X835587Y438882D01*
X833512Y440080D01*
X831198Y440700D01*
D02*
G37*
G36*
X351270Y428863D02*
Y421270D01*
X358863D01*
X358284Y423431D01*
X357114Y425459D01*
X355459Y427114D01*
X353431Y428284D01*
X351270Y428863D01*
D02*
G37*
G36*
X52088Y443600D02*
X48928D01*
X45876Y442782D01*
X43140Y441202D01*
X40906Y438968D01*
X39326Y436232D01*
X38508Y433180D01*
Y430020D01*
X39326Y426968D01*
X40906Y424232D01*
X43140Y421998D01*
X45876Y420418D01*
X48928Y419600D01*
X52088D01*
X55140Y420418D01*
X57876Y421998D01*
X60110Y424232D01*
X61690Y426968D01*
X62508Y430020D01*
Y433180D01*
X61690Y436232D01*
X60110Y438968D01*
X57876Y441202D01*
X55140Y442782D01*
X52088Y443600D01*
D02*
G37*
G36*
X296980Y420780D02*
X289387D01*
X289966Y418619D01*
X291136Y416591D01*
X292791Y414936D01*
X294819Y413766D01*
X296980Y413187D01*
Y420780D01*
D02*
G37*
G36*
X531001Y427600D02*
X528999D01*
X527066Y427082D01*
X525334Y426082D01*
X523918Y424666D01*
X522918Y422934D01*
X522883Y422804D01*
X500000D01*
X498927Y422590D01*
X498017Y421983D01*
X483050Y407015D01*
X482934Y407082D01*
X481001Y407600D01*
X478999D01*
X477066Y407082D01*
X475334Y406082D01*
X473918Y404666D01*
X472918Y402934D01*
X472400Y401001D01*
Y398999D01*
X472918Y397066D01*
X473918Y395334D01*
X475334Y393918D01*
X477066Y392918D01*
X478999Y392400D01*
X481001D01*
X482934Y392918D01*
X484666Y393918D01*
X486082Y395334D01*
X487082Y397066D01*
X487600Y398999D01*
Y401001D01*
X487082Y402934D01*
X487015Y403050D01*
X501161Y417196D01*
X522883D01*
X522918Y417066D01*
X523918Y415334D01*
X525334Y413918D01*
X527066Y412918D01*
X528999Y412400D01*
X531001D01*
X532934Y412918D01*
X534666Y413918D01*
X536082Y415334D01*
X537082Y417066D01*
X537600Y418999D01*
Y421001D01*
X537082Y422934D01*
X536082Y424666D01*
X534666Y426082D01*
X532934Y427082D01*
X531001Y427600D01*
D02*
G37*
G36*
X741270Y418863D02*
Y411270D01*
X748863D01*
X748284Y413431D01*
X747114Y415459D01*
X745459Y417114D01*
X743431Y418284D01*
X741270Y418863D01*
D02*
G37*
G36*
X738730D02*
X736569Y418284D01*
X734541Y417114D01*
X732886Y415459D01*
X731716Y413431D01*
X731137Y411270D01*
X738730D01*
Y418863D01*
D02*
G37*
G36*
X461270D02*
Y411270D01*
X468863D01*
X468284Y413431D01*
X467114Y415459D01*
X465459Y417114D01*
X463431Y418284D01*
X461270Y418863D01*
D02*
G37*
G36*
X458730D02*
X456569Y418284D01*
X454541Y417114D01*
X452886Y415459D01*
X451716Y413431D01*
X451137Y411270D01*
X458730D01*
Y418863D01*
D02*
G37*
G36*
X358863Y418730D02*
X351270D01*
Y411137D01*
X353431Y411716D01*
X355459Y412886D01*
X357114Y414541D01*
X358284Y416569D01*
X358863Y418730D01*
D02*
G37*
G36*
X299520Y430913D02*
Y422050D01*
Y413187D01*
X301681Y413766D01*
X303709Y414936D01*
X305364Y416591D01*
X306305Y418221D01*
X341273D01*
X341716Y416569D01*
X342886Y414541D01*
X344541Y412886D01*
X346569Y411716D01*
X348730Y411137D01*
Y420000D01*
Y428863D01*
X346569Y428284D01*
X344541Y427114D01*
X342886Y425459D01*
X341945Y423829D01*
X306977D01*
X306534Y425481D01*
X305364Y427509D01*
X303709Y429164D01*
X301681Y430334D01*
X299520Y430913D01*
D02*
G37*
G36*
X121000Y468600D02*
X118999D01*
X117066Y468082D01*
X115333Y467081D01*
X113919Y465667D01*
X112918Y463933D01*
X112400Y462001D01*
Y459999D01*
X112918Y458066D01*
X113919Y456334D01*
X115333Y454919D01*
X117066Y453918D01*
X117431Y453820D01*
Y417180D01*
X117066Y417082D01*
X115333Y416082D01*
X113919Y414666D01*
X112918Y412934D01*
X112400Y411001D01*
Y408999D01*
X112918Y407066D01*
X113919Y405334D01*
X115333Y403918D01*
X117066Y402918D01*
X118999Y402400D01*
X121000D01*
X122934Y402918D01*
X124667Y403918D01*
X126081Y405334D01*
X127082Y407066D01*
X127600Y408999D01*
Y411001D01*
X127082Y412934D01*
X126081Y414666D01*
X124667Y416082D01*
X122934Y417082D01*
X122569Y417180D01*
Y453820D01*
X122934Y453918D01*
X124667Y454919D01*
X126081Y456334D01*
X127082Y458066D01*
X127600Y459999D01*
Y462001D01*
X127082Y463933D01*
X126081Y465667D01*
X124667Y467081D01*
X122934Y468082D01*
X121000Y468600D01*
D02*
G37*
G36*
X611270Y408863D02*
Y401270D01*
X618863D01*
X618284Y403431D01*
X617114Y405459D01*
X615459Y407114D01*
X613431Y408284D01*
X611270Y408863D01*
D02*
G37*
G36*
X608730D02*
X606569Y408284D01*
X604541Y407114D01*
X602886Y405459D01*
X601716Y403431D01*
X601137Y401270D01*
X608730D01*
Y408863D01*
D02*
G37*
G36*
X748863Y408730D02*
X741270D01*
Y401137D01*
X743431Y401716D01*
X745459Y402886D01*
X747114Y404541D01*
X748284Y406569D01*
X748863Y408730D01*
D02*
G37*
G36*
X738730D02*
X731137D01*
X731716Y406569D01*
X732886Y404541D01*
X734541Y402886D01*
X736569Y401716D01*
X738730Y401137D01*
Y408730D01*
D02*
G37*
G36*
X468863D02*
X461270D01*
Y401137D01*
X463431Y401716D01*
X465459Y402886D01*
X467114Y404541D01*
X468284Y406569D01*
X468863Y408730D01*
D02*
G37*
G36*
X458730D02*
X451137D01*
X451716Y406569D01*
X452886Y404541D01*
X454541Y402886D01*
X456569Y401716D01*
X458730Y401137D01*
Y408730D01*
D02*
G37*
G36*
X831198Y415300D02*
X828802D01*
X826488Y414680D01*
X824413Y413482D01*
X822718Y411787D01*
X821520Y409712D01*
X820900Y407398D01*
Y405002D01*
X821520Y402687D01*
X822718Y400612D01*
X824413Y398918D01*
X826488Y397720D01*
X828802Y397100D01*
X831198D01*
X833512Y397720D01*
X835587Y398918D01*
X837282Y400612D01*
X838480Y402687D01*
X839100Y405002D01*
Y407398D01*
X838480Y409712D01*
X837282Y411787D01*
X835587Y413482D01*
X833512Y414680D01*
X831198Y415300D01*
D02*
G37*
G36*
X439175Y410942D02*
X437174D01*
X435241Y410425D01*
X433508Y409424D01*
X432093Y408009D01*
X431092Y406276D01*
X430574Y404343D01*
Y402342D01*
X431092Y400409D01*
X432093Y398676D01*
X433508Y397261D01*
X435171Y396301D01*
Y392026D01*
X435384Y390953D01*
X435992Y390043D01*
X458017Y368017D01*
X458927Y367410D01*
X460000Y367196D01*
X465616D01*
X469645Y363167D01*
X470554Y362560D01*
X471627Y362346D01*
X479373D01*
X480446Y362560D01*
X481356Y363167D01*
X485384Y367196D01*
X552883D01*
X552918Y367066D01*
X553918Y365334D01*
X555334Y363918D01*
X557066Y362918D01*
X558999Y362400D01*
X561001D01*
X562934Y362918D01*
X564666Y363918D01*
X566082Y365334D01*
X567082Y367066D01*
X567600Y368999D01*
Y371001D01*
X567082Y372934D01*
X566082Y374666D01*
X564666Y376082D01*
X562934Y377082D01*
X561001Y377600D01*
X558999D01*
X557066Y377082D01*
X555334Y376082D01*
X553918Y374666D01*
X552918Y372934D01*
X552883Y372804D01*
X518729D01*
X518155Y374190D01*
X536950Y392985D01*
X537066Y392918D01*
X538999Y392400D01*
X541001D01*
X542934Y392918D01*
X544666Y393918D01*
X546082Y395334D01*
X547082Y397066D01*
X547600Y398999D01*
Y401001D01*
X547082Y402934D01*
X546082Y404666D01*
X544666Y406082D01*
X542934Y407082D01*
X541001Y407600D01*
X538999D01*
X537066Y407082D01*
X535334Y406082D01*
X533918Y404666D01*
X532918Y402934D01*
X532400Y401001D01*
Y398999D01*
X532918Y397066D01*
X532985Y396950D01*
X513339Y377304D01*
X482617D01*
X482582Y377434D01*
X481581Y379166D01*
X480167Y380582D01*
X478433Y381582D01*
X476501Y382100D01*
X474500D01*
X472566Y381582D01*
X470834Y380582D01*
X469418Y379166D01*
X468418Y377434D01*
X467900Y375500D01*
Y374110D01*
X466967Y373024D01*
X466534Y372804D01*
X461161D01*
X440778Y393187D01*
Y396172D01*
X441108Y396260D01*
X442841Y397261D01*
X444256Y398676D01*
X445256Y400409D01*
X445774Y402342D01*
Y404343D01*
X445256Y406276D01*
X444256Y408009D01*
X442841Y409424D01*
X441108Y410425D01*
X439175Y410942D01*
D02*
G37*
G36*
X618863Y398730D02*
X611270D01*
Y391137D01*
X613431Y391716D01*
X615459Y392886D01*
X617114Y394541D01*
X618284Y396569D01*
X618863Y398730D01*
D02*
G37*
G36*
X608730D02*
X601137D01*
X601716Y396569D01*
X602886Y394541D01*
X604541Y392886D01*
X606569Y391716D01*
X608730Y391137D01*
Y398730D01*
D02*
G37*
G36*
X641001Y567600D02*
X638999D01*
X637066Y567082D01*
X635334Y566082D01*
X633918Y564666D01*
X632918Y562934D01*
X632400Y561001D01*
Y558999D01*
X632918Y557066D01*
X633918Y555334D01*
X635334Y553918D01*
X637066Y552918D01*
X638999Y552400D01*
X641001D01*
X642934Y552918D01*
X644667Y553918D01*
X646081Y555334D01*
X646863Y556686D01*
X648627D01*
X655886Y549427D01*
Y385683D01*
X654386Y385062D01*
X654016Y385432D01*
X652283Y386432D01*
X652154Y386467D01*
Y433873D01*
X652154Y433873D01*
X651940Y434946D01*
X651333Y435855D01*
X634197Y452991D01*
X633288Y453599D01*
X632215Y453812D01*
X630153D01*
X617015Y466950D01*
X617082Y467066D01*
X617600Y468999D01*
Y471001D01*
X617082Y472934D01*
X616082Y474666D01*
X614666Y476082D01*
X612934Y477082D01*
X611001Y477600D01*
X608999D01*
X607066Y477082D01*
X605334Y476082D01*
X603918Y474666D01*
X602918Y472934D01*
X602400Y471001D01*
Y468999D01*
X602918Y467066D01*
X603918Y465334D01*
X605334Y463918D01*
X607066Y462918D01*
X608999Y462400D01*
X611001D01*
X612934Y462918D01*
X613050Y462985D01*
X627009Y449026D01*
X627009Y449026D01*
X627919Y448418D01*
X628992Y448204D01*
X631053D01*
X640158Y439100D01*
X639536Y437600D01*
X638999D01*
X637066Y437082D01*
X635334Y436082D01*
X633918Y434666D01*
X632918Y432934D01*
X632883Y432804D01*
X611161D01*
X597015Y446950D01*
X597082Y447066D01*
X597600Y448999D01*
Y451001D01*
X597082Y452934D01*
X596082Y454666D01*
X594666Y456082D01*
X592934Y457082D01*
X591001Y457600D01*
X588999D01*
X587066Y457082D01*
X585334Y456082D01*
X583918Y454666D01*
X582918Y452934D01*
X582400Y451001D01*
Y448999D01*
X582918Y447066D01*
X583918Y445334D01*
X585334Y443918D01*
X587066Y442918D01*
X588999Y442400D01*
X591001D01*
X592934Y442918D01*
X593050Y442985D01*
X608017Y428017D01*
X608927Y427410D01*
X610000Y427196D01*
X632883D01*
X632918Y427066D01*
X633918Y425334D01*
X635334Y423918D01*
X637066Y422918D01*
X638999Y422400D01*
X641001D01*
X642934Y422918D01*
X644667Y423918D01*
X645046Y424298D01*
X646546Y423677D01*
Y386467D01*
X646416Y386432D01*
X644684Y385432D01*
X643269Y384016D01*
X642268Y382284D01*
X641750Y380350D01*
Y378349D01*
X642268Y376417D01*
X643269Y374683D01*
X644684Y373269D01*
X646416Y372268D01*
X648349Y371750D01*
X648872D01*
X649494Y370250D01*
X635417Y356174D01*
X618260D01*
X616992Y355922D01*
X615917Y355203D01*
X594414Y333700D01*
X580900D01*
Y323314D01*
X546863D01*
X546082Y324666D01*
X544666Y326082D01*
X542934Y327082D01*
X541001Y327600D01*
X538999D01*
X537066Y327082D01*
X535334Y326082D01*
X533918Y324666D01*
X532918Y322934D01*
X532400Y321001D01*
Y318999D01*
X532918Y317066D01*
X533918Y315333D01*
X535334Y313918D01*
X536686Y313137D01*
Y172373D01*
X532509Y168196D01*
X531001Y168600D01*
X528999D01*
X527066Y168082D01*
X525334Y167082D01*
X523918Y165667D01*
X522918Y163934D01*
X522400Y162001D01*
Y160000D01*
X522918Y158067D01*
X523918Y156334D01*
X525334Y154918D01*
X527066Y153918D01*
X528999Y153400D01*
X531001D01*
X532934Y153918D01*
X534666Y154918D01*
X536082Y156334D01*
X537082Y158067D01*
X537600Y160000D01*
Y162001D01*
X537196Y163510D01*
X542343Y168657D01*
X543061Y169732D01*
X543314Y171000D01*
Y313137D01*
X544666Y313918D01*
X546082Y315333D01*
X546863Y316686D01*
X580900D01*
Y315500D01*
X599100D01*
Y329014D01*
X619633Y349546D01*
X636790D01*
X638058Y349799D01*
X639133Y350517D01*
X661543Y372927D01*
X662261Y374002D01*
X662514Y375270D01*
Y550800D01*
X662261Y552068D01*
X661543Y553143D01*
X652343Y562343D01*
X651268Y563061D01*
X650000Y563314D01*
X646863D01*
X646081Y564666D01*
X644667Y566082D01*
X642934Y567082D01*
X641001Y567600D01*
D02*
G37*
G36*
X211001Y477600D02*
X209000D01*
X207066Y477082D01*
X205333Y476082D01*
X203918Y474666D01*
X202918Y472934D01*
X202400Y471001D01*
Y468999D01*
X202918Y467066D01*
X203918Y465334D01*
X205333Y463918D01*
X207066Y462918D01*
X207196Y462883D01*
Y381757D01*
X207410Y380684D01*
X208017Y379775D01*
X209775Y378017D01*
X210684Y377410D01*
X211757Y377196D01*
X211758Y377196D01*
X300000D01*
X301073Y377410D01*
X301983Y378017D01*
X311161Y387196D01*
X382883D01*
X382918Y387066D01*
X383918Y385334D01*
X385334Y383918D01*
X387066Y382918D01*
X388999Y382400D01*
X391001D01*
X392934Y382918D01*
X394666Y383918D01*
X396082Y385334D01*
X397082Y387066D01*
X397600Y388999D01*
Y391001D01*
X397082Y392934D01*
X396082Y394666D01*
X394666Y396082D01*
X392934Y397082D01*
X391001Y397600D01*
X388999D01*
X387066Y397082D01*
X385334Y396082D01*
X383918Y394666D01*
X382918Y392934D01*
X382883Y392804D01*
X310000D01*
X308927Y392590D01*
X308017Y391983D01*
X298839Y382804D01*
X212919D01*
X212804Y382919D01*
Y462883D01*
X212934Y462918D01*
X214667Y463918D01*
X216082Y465334D01*
X217082Y467066D01*
X217600Y468999D01*
Y471001D01*
X217082Y472934D01*
X216082Y474666D01*
X214667Y476082D01*
X212934Y477082D01*
X211001Y477600D01*
D02*
G37*
G36*
X52258Y394090D02*
X51778D01*
Y382070D01*
X63798D01*
Y382550D01*
X62892Y385930D01*
X61143Y388960D01*
X58668Y391435D01*
X55638Y393184D01*
X52258Y394090D01*
D02*
G37*
G36*
X49238D02*
X48758D01*
X45378Y393184D01*
X42348Y391435D01*
X39873Y388960D01*
X38124Y385930D01*
X37218Y382550D01*
Y382070D01*
X49238D01*
Y394090D01*
D02*
G37*
G36*
X791270Y388863D02*
Y381270D01*
X798863D01*
X798284Y383431D01*
X797114Y385459D01*
X795459Y387114D01*
X793431Y388284D01*
X791270Y388863D01*
D02*
G37*
G36*
X788730D02*
X786569Y388284D01*
X784541Y387114D01*
X782886Y385459D01*
X781716Y383431D01*
X781137Y381270D01*
X788730D01*
Y388863D01*
D02*
G37*
G36*
X831198Y389900D02*
X828802D01*
X826488Y389280D01*
X824413Y388082D01*
X822718Y386387D01*
X821520Y384313D01*
X820900Y381998D01*
Y379602D01*
X821520Y377287D01*
X822718Y375213D01*
X824413Y373518D01*
X826488Y372320D01*
X828802Y371700D01*
X831198D01*
X833512Y372320D01*
X835587Y373518D01*
X837282Y375213D01*
X838480Y377287D01*
X839100Y379602D01*
Y381998D01*
X838480Y384313D01*
X837282Y386387D01*
X835587Y388082D01*
X833512Y389280D01*
X831198Y389900D01*
D02*
G37*
G36*
X798863Y378730D02*
X791270D01*
Y371137D01*
X793431Y371716D01*
X795459Y372886D01*
X797114Y374541D01*
X798284Y376569D01*
X798863Y378730D01*
D02*
G37*
G36*
X788730D02*
X781137D01*
X781716Y376569D01*
X782886Y374541D01*
X784541Y372886D01*
X786569Y371716D01*
X788730Y371137D01*
Y378730D01*
D02*
G37*
G36*
X63798Y379530D02*
X51778D01*
Y367510D01*
X52258D01*
X55638Y368416D01*
X58668Y370165D01*
X61143Y372640D01*
X62892Y375670D01*
X63798Y379050D01*
Y379530D01*
D02*
G37*
G36*
X49238D02*
X37218D01*
Y379050D01*
X38124Y375670D01*
X39873Y372640D01*
X42348Y370165D01*
X45378Y368416D01*
X48758Y367510D01*
X49238D01*
Y379530D01*
D02*
G37*
G36*
X701270Y358863D02*
Y351270D01*
X708863D01*
X708284Y353431D01*
X707114Y355459D01*
X705459Y357114D01*
X703431Y358284D01*
X701270Y358863D01*
D02*
G37*
G36*
X698730D02*
X696569Y358284D01*
X694541Y357114D01*
X692886Y355459D01*
X691716Y353431D01*
X691137Y351270D01*
X698730D01*
Y358863D01*
D02*
G37*
G36*
X831198Y364500D02*
X828802D01*
X826488Y363880D01*
X824413Y362682D01*
X822718Y360988D01*
X821520Y358913D01*
X820900Y356598D01*
Y354202D01*
X821520Y351888D01*
X822718Y349813D01*
X824413Y348118D01*
X826488Y346920D01*
X828802Y346300D01*
X831198D01*
X833512Y346920D01*
X835587Y348118D01*
X837282Y349813D01*
X838480Y351888D01*
X839100Y354202D01*
Y356598D01*
X838480Y358913D01*
X837282Y360988D01*
X835587Y362682D01*
X833512Y363880D01*
X831198Y364500D01*
D02*
G37*
G36*
X711001Y407600D02*
X708999D01*
X707066Y407082D01*
X705333Y406082D01*
X703919Y404666D01*
X702918Y402934D01*
X702400Y401001D01*
Y398999D01*
X702918Y397066D01*
X703919Y395334D01*
X705333Y393918D01*
X707066Y392918D01*
X708999Y392400D01*
X711001D01*
X712934Y392918D01*
X713050Y392985D01*
X747196Y358839D01*
Y357117D01*
X747066Y357082D01*
X745333Y356082D01*
X743919Y354666D01*
X742918Y352934D01*
X742400Y351001D01*
Y348999D01*
X742918Y347066D01*
X743919Y345334D01*
X745333Y343918D01*
X747066Y342918D01*
X748999Y342400D01*
X751001D01*
X752934Y342918D01*
X754667Y343918D01*
X756081Y345334D01*
X757082Y347066D01*
X757600Y348999D01*
Y351001D01*
X757082Y352934D01*
X756081Y354666D01*
X754667Y356082D01*
X752934Y357082D01*
X752804Y357117D01*
Y360000D01*
X752590Y361073D01*
X751983Y361983D01*
X717015Y396950D01*
X717082Y397066D01*
X717600Y398999D01*
Y401001D01*
X717082Y402934D01*
X716081Y404666D01*
X714667Y406082D01*
X712934Y407082D01*
X711001Y407600D01*
D02*
G37*
G36*
X721270Y348863D02*
Y341270D01*
X728863D01*
X728284Y343431D01*
X727114Y345459D01*
X725459Y347114D01*
X723431Y348284D01*
X721270Y348863D01*
D02*
G37*
G36*
X718730D02*
X716569Y348284D01*
X714541Y347114D01*
X712886Y345459D01*
X711716Y343431D01*
X711137Y341270D01*
X718730D01*
Y348863D01*
D02*
G37*
G36*
X708863Y348730D02*
X701270D01*
Y341137D01*
X703431Y341716D01*
X705459Y342886D01*
X707114Y344541D01*
X708284Y346569D01*
X708863Y348730D01*
D02*
G37*
G36*
X698730D02*
X691137D01*
X691716Y346569D01*
X692886Y344541D01*
X694541Y342886D01*
X696569Y341716D01*
X698730Y341137D01*
Y348730D01*
D02*
G37*
G36*
X591198Y359100D02*
X588802D01*
X586488Y358480D01*
X584412Y357282D01*
X582718Y355588D01*
X581520Y353512D01*
X580900Y351198D01*
Y348802D01*
X581520Y346488D01*
X582718Y344412D01*
X584412Y342718D01*
X586488Y341520D01*
X588802Y340900D01*
X591198D01*
X593512Y341520D01*
X595588Y342718D01*
X597282Y344412D01*
X598480Y346488D01*
X599100Y348802D01*
Y351198D01*
X598480Y353512D01*
X597282Y355588D01*
X595588Y357282D01*
X593512Y358480D01*
X591198Y359100D01*
D02*
G37*
G36*
X728863Y338730D02*
X721270D01*
Y331137D01*
X723431Y331716D01*
X725459Y332886D01*
X727114Y334541D01*
X728284Y336569D01*
X728863Y338730D01*
D02*
G37*
G36*
X718730D02*
X711137D01*
X711716Y336569D01*
X712886Y334541D01*
X714541Y332886D01*
X716569Y331716D01*
X718730Y331137D01*
Y338730D01*
D02*
G37*
G36*
X791270Y328863D02*
Y321270D01*
X798863D01*
X798284Y323431D01*
X797114Y325459D01*
X795459Y327114D01*
X793431Y328284D01*
X791270Y328863D01*
D02*
G37*
G36*
X788730D02*
X786569Y328284D01*
X784541Y327114D01*
X782886Y325459D01*
X781716Y323431D01*
X781137Y321270D01*
X788730D01*
Y328863D01*
D02*
G37*
G36*
X831198Y339100D02*
X828802D01*
X826488Y338480D01*
X824413Y337282D01*
X822718Y335588D01*
X821520Y333512D01*
X820900Y331198D01*
Y328802D01*
X821520Y326488D01*
X822718Y324412D01*
X824413Y322718D01*
X826488Y321520D01*
X828802Y320900D01*
X831198D01*
X833512Y321520D01*
X835587Y322718D01*
X837282Y324412D01*
X838480Y326488D01*
X839100Y328802D01*
Y331198D01*
X838480Y333512D01*
X837282Y335588D01*
X835587Y337282D01*
X833512Y338480D01*
X831198Y339100D01*
D02*
G37*
G36*
X52088Y342000D02*
X48928D01*
X45876Y341182D01*
X43140Y339602D01*
X40906Y337368D01*
X39326Y334632D01*
X38508Y331580D01*
Y328420D01*
X39326Y325368D01*
X40906Y322632D01*
X43140Y320398D01*
X45876Y318818D01*
X48928Y318000D01*
X52088D01*
X55140Y318818D01*
X57876Y320398D01*
X60110Y322632D01*
X61690Y325368D01*
X62508Y328420D01*
Y331580D01*
X61690Y334632D01*
X60110Y337368D01*
X57876Y339602D01*
X55140Y341182D01*
X52088Y342000D01*
D02*
G37*
G36*
X798863Y318730D02*
X791270D01*
Y311137D01*
X793431Y311716D01*
X795459Y312886D01*
X797114Y314541D01*
X798284Y316569D01*
X798863Y318730D01*
D02*
G37*
G36*
X788730D02*
X781137D01*
X781716Y316569D01*
X782886Y314541D01*
X784541Y312886D01*
X786569Y311716D01*
X788730Y311137D01*
Y318730D01*
D02*
G37*
G36*
X831368Y314990D02*
X831270D01*
Y305870D01*
X840390D01*
Y305968D01*
X839682Y308610D01*
X838314Y310980D01*
X836380Y312914D01*
X834010Y314282D01*
X831368Y314990D01*
D02*
G37*
G36*
X828730D02*
X828632D01*
X825990Y314282D01*
X823620Y312914D01*
X821686Y310980D01*
X820318Y308610D01*
X819610Y305968D01*
Y305870D01*
X828730D01*
Y314990D01*
D02*
G37*
G36*
X481270Y308863D02*
Y301270D01*
X488863D01*
X488284Y303431D01*
X487114Y305459D01*
X485459Y307114D01*
X483431Y308284D01*
X481270Y308863D01*
D02*
G37*
G36*
X478730D02*
X476569Y308284D01*
X474541Y307114D01*
X472886Y305459D01*
X471716Y303431D01*
X471137Y301270D01*
X478730D01*
Y308863D01*
D02*
G37*
G36*
X840390Y303330D02*
X831270D01*
Y294210D01*
X831368D01*
X834010Y294918D01*
X836380Y296286D01*
X838314Y298220D01*
X839682Y300590D01*
X840390Y303232D01*
Y303330D01*
D02*
G37*
G36*
X828730D02*
X819610D01*
Y303232D01*
X820318Y300590D01*
X821686Y298220D01*
X823620Y296286D01*
X825990Y294918D01*
X828632Y294210D01*
X828730D01*
Y303330D01*
D02*
G37*
G36*
X488863Y298730D02*
X481270D01*
Y291137D01*
X483431Y291716D01*
X485459Y292886D01*
X487114Y294541D01*
X488284Y296569D01*
X488863Y298730D01*
D02*
G37*
G36*
X478730D02*
X471137D01*
X471716Y296569D01*
X472886Y294541D01*
X474541Y292886D01*
X476569Y291716D01*
X478730Y291137D01*
Y298730D01*
D02*
G37*
G36*
X831198Y288300D02*
X828802D01*
X826488Y287680D01*
X824413Y286482D01*
X822718Y284788D01*
X821520Y282712D01*
X820900Y280398D01*
Y278002D01*
X821520Y275688D01*
X821623Y275509D01*
X807657Y261543D01*
X806939Y260468D01*
X806686Y259200D01*
Y216863D01*
X805333Y216082D01*
X803919Y214667D01*
X802918Y212934D01*
X802400Y211001D01*
Y209000D01*
X802918Y207066D01*
X803919Y205333D01*
X805333Y203918D01*
X807066Y202918D01*
X808999Y202400D01*
X811001D01*
X812934Y202918D01*
X814667Y203918D01*
X816081Y205333D01*
X817082Y207066D01*
X817600Y209000D01*
Y211001D01*
X817082Y212934D01*
X816081Y214667D01*
X814667Y216082D01*
X813314Y216863D01*
Y257827D01*
X826309Y270823D01*
X826488Y270720D01*
X828802Y270100D01*
X831198D01*
X833512Y270720D01*
X835587Y271918D01*
X837282Y273612D01*
X838480Y275688D01*
X839100Y278002D01*
Y280398D01*
X838480Y282712D01*
X837282Y284788D01*
X835587Y286482D01*
X833512Y287680D01*
X831198Y288300D01*
D02*
G37*
G36*
X52252Y292450D02*
X48764D01*
X45394Y291547D01*
X42372Y289803D01*
X39905Y287336D01*
X38161Y284314D01*
X37258Y280944D01*
Y277456D01*
X38161Y274086D01*
X39905Y271064D01*
X42372Y268597D01*
X45394Y266853D01*
X48764Y265950D01*
X52252D01*
X55622Y266853D01*
X58644Y268597D01*
X61111Y271064D01*
X62855Y274086D01*
X63758Y277456D01*
Y280944D01*
X62855Y284314D01*
X61111Y287336D01*
X58644Y289803D01*
X55622Y291547D01*
X52252Y292450D01*
D02*
G37*
G36*
X271717Y263040D02*
X271270D01*
Y251270D01*
X283040D01*
Y251717D01*
X282151Y255033D01*
X280435Y258007D01*
X278007Y260435D01*
X275033Y262151D01*
X271717Y263040D01*
D02*
G37*
G36*
X268730D02*
X268283D01*
X264967Y262151D01*
X261993Y260435D01*
X259565Y258007D01*
X257849Y255033D01*
X256960Y251717D01*
Y251270D01*
X268730D01*
Y263040D01*
D02*
G37*
G36*
X601270Y248863D02*
Y241270D01*
X608863D01*
X608284Y243431D01*
X607114Y245459D01*
X605459Y247114D01*
X603431Y248284D01*
X601270Y248863D01*
D02*
G37*
G36*
X598730D02*
X596569Y248284D01*
X594541Y247114D01*
X592886Y245459D01*
X591716Y243431D01*
X591137Y241270D01*
X598730D01*
Y248863D01*
D02*
G37*
G36*
X211547Y261750D02*
X208453D01*
X205465Y260949D01*
X202785Y259402D01*
X200598Y257215D01*
X199051Y254535D01*
X198250Y251547D01*
Y248453D01*
X199051Y245465D01*
X200598Y242785D01*
X202785Y240598D01*
X205465Y239051D01*
X208453Y238250D01*
X211547D01*
X214535Y239051D01*
X217215Y240598D01*
X219402Y242785D01*
X220949Y245465D01*
X221750Y248453D01*
Y251547D01*
X220949Y254535D01*
X219402Y257215D01*
X217215Y259402D01*
X214535Y260949D01*
X211547Y261750D01*
D02*
G37*
G36*
X151547D02*
X148453D01*
X145465Y260949D01*
X142785Y259402D01*
X140598Y257215D01*
X139051Y254535D01*
X138250Y251547D01*
Y248453D01*
X139051Y245465D01*
X140598Y242785D01*
X142785Y240598D01*
X145465Y239051D01*
X148453Y238250D01*
X151547D01*
X154535Y239051D01*
X157215Y240598D01*
X159402Y242785D01*
X160949Y245465D01*
X161750Y248453D01*
Y251547D01*
X160949Y254535D01*
X159402Y257215D01*
X157215Y259402D01*
X154535Y260949D01*
X151547Y261750D01*
D02*
G37*
G36*
X283040Y248730D02*
X271270D01*
Y236960D01*
X271717D01*
X275033Y237849D01*
X278007Y239565D01*
X280435Y241993D01*
X282151Y244967D01*
X283040Y248283D01*
Y248730D01*
D02*
G37*
G36*
X268730D02*
X256960D01*
Y248283D01*
X257849Y244967D01*
X259565Y241993D01*
X261993Y239565D01*
X264967Y237849D01*
X268283Y236960D01*
X268730D01*
Y248730D01*
D02*
G37*
G36*
X608863Y238730D02*
X601270D01*
Y231137D01*
X603431Y231716D01*
X605459Y232886D01*
X607114Y234541D01*
X608284Y236569D01*
X608863Y238730D01*
D02*
G37*
G36*
X598730D02*
X591137D01*
X591716Y236569D01*
X592886Y234541D01*
X594541Y232886D01*
X596569Y231716D01*
X598730Y231137D01*
Y238730D01*
D02*
G37*
G36*
X371547Y241750D02*
X368453D01*
X365465Y240949D01*
X362785Y239402D01*
X360598Y237215D01*
X359051Y234535D01*
X358250Y231547D01*
Y228453D01*
X359051Y225465D01*
X360598Y222785D01*
X362785Y220598D01*
X365465Y219051D01*
X368453Y218250D01*
X371547D01*
X374535Y219051D01*
X377215Y220598D01*
X379402Y222785D01*
X380949Y225465D01*
X381750Y228453D01*
Y231547D01*
X380949Y234535D01*
X379402Y237215D01*
X377215Y239402D01*
X374535Y240949D01*
X371547Y241750D01*
D02*
G37*
G36*
X611270Y218863D02*
Y211270D01*
X618863D01*
X618284Y213431D01*
X617114Y215459D01*
X615459Y217114D01*
X613431Y218284D01*
X611270Y218863D01*
D02*
G37*
G36*
X608730D02*
X606569Y218284D01*
X604541Y217114D01*
X602886Y215459D01*
X601716Y213431D01*
X601137Y211270D01*
X608730D01*
Y218863D01*
D02*
G37*
G36*
X618863Y208730D02*
X611270D01*
Y201137D01*
X613431Y201716D01*
X615459Y202886D01*
X617114Y204541D01*
X618284Y206569D01*
X618863Y208730D01*
D02*
G37*
G36*
X608730D02*
X601137D01*
X601716Y206569D01*
X602886Y204541D01*
X604541Y202886D01*
X606569Y201716D01*
X608730Y201137D01*
Y208730D01*
D02*
G37*
G36*
X181717Y193040D02*
X181270D01*
Y181270D01*
X193040D01*
Y181717D01*
X192151Y185033D01*
X190435Y188007D01*
X188007Y190435D01*
X185033Y192151D01*
X181717Y193040D01*
D02*
G37*
G36*
X178730D02*
X178283D01*
X174967Y192151D01*
X171993Y190435D01*
X169565Y188007D01*
X167849Y185033D01*
X166960Y181717D01*
Y181270D01*
X178730D01*
Y193040D01*
D02*
G37*
G36*
X711270Y178863D02*
Y171270D01*
X718863D01*
X718284Y173431D01*
X717114Y175459D01*
X715459Y177114D01*
X713431Y178284D01*
X711270Y178863D01*
D02*
G37*
G36*
X708730D02*
X706569Y178284D01*
X704541Y177114D01*
X702886Y175459D01*
X701716Y173431D01*
X701137Y171270D01*
X708730D01*
Y178863D01*
D02*
G37*
G36*
X651270D02*
Y171270D01*
X658863D01*
X658284Y173431D01*
X657114Y175459D01*
X655459Y177114D01*
X653431Y178284D01*
X651270Y178863D01*
D02*
G37*
G36*
X648730D02*
X646569Y178284D01*
X644541Y177114D01*
X642886Y175459D01*
X641716Y173431D01*
X641137Y171270D01*
X648730D01*
Y178863D01*
D02*
G37*
G36*
X193040Y178730D02*
X181270D01*
Y166960D01*
X181717D01*
X185033Y167849D01*
X188007Y169565D01*
X190435Y171993D01*
X192151Y174967D01*
X193040Y178283D01*
Y178730D01*
D02*
G37*
G36*
X178730D02*
X166960D01*
Y178283D01*
X167849Y174967D01*
X169565Y171993D01*
X171993Y169565D01*
X174967Y167849D01*
X178283Y166960D01*
X178730D01*
Y178730D01*
D02*
G37*
G36*
X718863Y168730D02*
X711270D01*
Y161137D01*
X713431Y161716D01*
X715459Y162886D01*
X717114Y164541D01*
X718284Y166569D01*
X718863Y168730D01*
D02*
G37*
G36*
X708730D02*
X701137D01*
X701716Y166569D01*
X702886Y164541D01*
X704541Y162886D01*
X706569Y161716D01*
X708730Y161137D01*
Y168730D01*
D02*
G37*
G36*
X658863D02*
X651270D01*
Y161137D01*
X653431Y161716D01*
X655459Y162886D01*
X657114Y164541D01*
X658284Y166569D01*
X658863Y168730D01*
D02*
G37*
G36*
X648730D02*
X641137D01*
X641716Y166569D01*
X642886Y164541D01*
X644541Y162886D01*
X646569Y161716D01*
X648730Y161137D01*
Y168730D01*
D02*
G37*
G36*
X261547Y181750D02*
X258453D01*
X255465Y180949D01*
X252785Y179402D01*
X250598Y177215D01*
X249051Y174535D01*
X248250Y171547D01*
Y168453D01*
X249051Y165465D01*
X250598Y162785D01*
X252785Y160598D01*
X255465Y159051D01*
X258453Y158250D01*
X261547D01*
X264535Y159051D01*
X267215Y160598D01*
X269402Y162785D01*
X270949Y165465D01*
X271750Y168453D01*
Y171547D01*
X270949Y174535D01*
X269402Y177215D01*
X267215Y179402D01*
X264535Y180949D01*
X261547Y181750D01*
D02*
G37*
G36*
X839100Y262900D02*
X820900D01*
Y244700D01*
X826686D01*
Y230000D01*
X826939Y228732D01*
X827657Y227657D01*
X845314Y210000D01*
X792509Y157196D01*
X791001Y157600D01*
X788999D01*
X787066Y157082D01*
X785333Y156081D01*
X783919Y154667D01*
X782918Y152934D01*
X782400Y151001D01*
Y148999D01*
X782918Y147066D01*
X783919Y145333D01*
X785333Y143919D01*
X787066Y142918D01*
X788999Y142400D01*
X791001D01*
X792934Y142918D01*
X794667Y143919D01*
X796081Y145333D01*
X797082Y147066D01*
X797600Y148999D01*
Y151001D01*
X797196Y152509D01*
X852343Y207657D01*
X853061Y208732D01*
X853314Y210000D01*
X853061Y211268D01*
X852343Y212343D01*
X833314Y231373D01*
Y244700D01*
X839100D01*
Y262900D01*
D02*
G37*
G36*
X207215Y135190D02*
X206670D01*
Y122670D01*
X219190D01*
Y123216D01*
X218250Y126723D01*
X216435Y129867D01*
X213867Y132435D01*
X210723Y134250D01*
X207215Y135190D01*
D02*
G37*
G36*
X204130D02*
X203584D01*
X200077Y134250D01*
X196933Y132435D01*
X194365Y129867D01*
X192550Y126723D01*
X191610Y123216D01*
Y122670D01*
X204130D01*
Y135190D01*
D02*
G37*
G36*
X571270Y128863D02*
Y121270D01*
X578863D01*
X578284Y123431D01*
X577114Y125459D01*
X575459Y127114D01*
X573431Y128284D01*
X571270Y128863D01*
D02*
G37*
G36*
X568730D02*
X566569Y128284D01*
X564541Y127114D01*
X562886Y125459D01*
X561716Y123431D01*
X561137Y121270D01*
X568730D01*
Y128863D01*
D02*
G37*
G36*
X510418Y123952D02*
Y116359D01*
X518011D01*
X517432Y118520D01*
X516262Y120548D01*
X514607Y122203D01*
X512579Y123373D01*
X510418Y123952D01*
D02*
G37*
G36*
X507878D02*
X505717Y123373D01*
X503689Y122203D01*
X502034Y120548D01*
X500864Y118520D01*
X500285Y116359D01*
X507878D01*
Y123952D01*
D02*
G37*
G36*
X578863Y118730D02*
X571270D01*
Y111137D01*
X573431Y111716D01*
X575459Y112886D01*
X577114Y114541D01*
X578284Y116569D01*
X578863Y118730D01*
D02*
G37*
G36*
X568730D02*
X561137D01*
X561716Y116569D01*
X562886Y114541D01*
X564541Y112886D01*
X566569Y111716D01*
X568730Y111137D01*
Y118730D01*
D02*
G37*
G36*
X160225Y133959D02*
X148975D01*
X147180Y133723D01*
X145508Y133030D01*
X144072Y131928D01*
X142970Y130492D01*
X142277Y128820D01*
X142041Y127025D01*
Y115775D01*
X142277Y113980D01*
X142970Y112308D01*
X144072Y110872D01*
X145508Y109770D01*
X147180Y109077D01*
X148975Y108841D01*
X160225D01*
X162020Y109077D01*
X163692Y109770D01*
X165128Y110872D01*
X166230Y112308D01*
X166923Y113980D01*
X167159Y115775D01*
Y127025D01*
X166923Y128820D01*
X166230Y130492D01*
X165128Y131928D01*
X163692Y133030D01*
X162020Y133723D01*
X160225Y133959D01*
D02*
G37*
G36*
X219190Y120130D02*
X206670D01*
Y107610D01*
X207215D01*
X210723Y108550D01*
X213867Y110365D01*
X216435Y112933D01*
X218250Y116077D01*
X219190Y119585D01*
Y120130D01*
D02*
G37*
G36*
X204130D02*
X191610D01*
Y119585D01*
X192550Y116077D01*
X194365Y112933D01*
X196933Y110365D01*
X200077Y108550D01*
X203584Y107610D01*
X204130D01*
Y120130D01*
D02*
G37*
G36*
X518011Y113819D02*
X510418D01*
Y106226D01*
X512579Y106805D01*
X514607Y107975D01*
X516262Y109630D01*
X517432Y111658D01*
X518011Y113819D01*
D02*
G37*
G36*
X507878D02*
X500285D01*
X500864Y111658D01*
X502034Y109630D01*
X503689Y107975D01*
X505717Y106805D01*
X507878Y106226D01*
Y113819D01*
D02*
G37*
G36*
X391086Y93650D02*
X388914D01*
X386816Y93088D01*
X384934Y92002D01*
X383398Y90466D01*
X382312Y88584D01*
X381750Y86486D01*
Y84314D01*
X382312Y82216D01*
X383398Y80334D01*
X384934Y78798D01*
X386816Y77712D01*
X388914Y77150D01*
X391086D01*
X393184Y77712D01*
X395066Y78798D01*
X396602Y80334D01*
X397688Y82216D01*
X398250Y84314D01*
Y86486D01*
X397688Y88584D01*
X396602Y90466D01*
X395066Y92002D01*
X393184Y93088D01*
X391086Y93650D01*
D02*
G37*
G36*
X391270Y69536D02*
Y61270D01*
X399536D01*
X398890Y63682D01*
X397634Y65858D01*
X395858Y67634D01*
X393682Y68890D01*
X391270Y69536D01*
D02*
G37*
G36*
X388730D02*
X386318Y68890D01*
X384142Y67634D01*
X382366Y65858D01*
X381110Y63682D01*
X380464Y61270D01*
X388730D01*
Y69536D01*
D02*
G37*
G36*
X741547Y81750D02*
X738453D01*
X735465Y80949D01*
X732785Y79402D01*
X730598Y77215D01*
X729051Y74535D01*
X728250Y71547D01*
Y68453D01*
X729051Y65465D01*
X730598Y62785D01*
X732785Y60598D01*
X735465Y59051D01*
X738453Y58250D01*
X741547D01*
X744535Y59051D01*
X747215Y60598D01*
X749402Y62785D01*
X750949Y65465D01*
X751750Y68453D01*
Y71547D01*
X750949Y74535D01*
X749402Y77215D01*
X747215Y79402D01*
X744535Y80949D01*
X741547Y81750D01*
D02*
G37*
G36*
X399536Y58730D02*
X391270D01*
Y50464D01*
X393682Y51110D01*
X395858Y52366D01*
X397634Y54142D01*
X398890Y56318D01*
X399536Y58730D01*
D02*
G37*
G36*
X388730D02*
X380464D01*
X381110Y56318D01*
X382366Y54142D01*
X384142Y52366D01*
X386318Y51110D01*
X388730Y50464D01*
Y58730D01*
D02*
G37*
G36*
X391086Y42850D02*
X388914D01*
X386816Y42288D01*
X384934Y41202D01*
X383398Y39666D01*
X382312Y37784D01*
X381750Y35686D01*
Y33514D01*
X382312Y31416D01*
X383398Y29534D01*
X384934Y27998D01*
X386816Y26912D01*
X388914Y26350D01*
X391086D01*
X393184Y26912D01*
X395066Y27998D01*
X396602Y29534D01*
X397688Y31416D01*
X398250Y33514D01*
Y35686D01*
X397688Y37784D01*
X396602Y39666D01*
X395066Y41202D01*
X393184Y42288D01*
X391086Y42850D01*
D02*
G37*
G36*
X852459Y81250D02*
X847541D01*
X842682Y80480D01*
X838004Y78960D01*
X833621Y76727D01*
X829642Y73836D01*
X826164Y70358D01*
X823273Y66379D01*
X821040Y61996D01*
X819520Y57318D01*
X818750Y52459D01*
Y47541D01*
X819520Y42682D01*
X821040Y38004D01*
X823273Y33621D01*
X826164Y29642D01*
X829642Y26164D01*
X833621Y23273D01*
X838004Y21040D01*
X842682Y19519D01*
X847541Y18750D01*
X852459D01*
X857318Y19519D01*
X861996Y21040D01*
X866379Y23273D01*
X870358Y26164D01*
X873836Y29642D01*
X876727Y33621D01*
X878960Y38004D01*
X880480Y42682D01*
X881250Y47541D01*
Y52459D01*
X880480Y57318D01*
X878960Y61996D01*
X876727Y66379D01*
X873836Y70358D01*
X870358Y73836D01*
X866379Y76727D01*
X861996Y78960D01*
X857318Y80480D01*
X852459Y81250D01*
D02*
G37*
G36*
X52459D02*
X47541D01*
X42682Y80480D01*
X38004Y78960D01*
X33621Y76727D01*
X29642Y73836D01*
X26164Y70358D01*
X23273Y66379D01*
X21040Y61996D01*
X19519Y57318D01*
X18750Y52459D01*
Y47541D01*
X19519Y42682D01*
X21040Y38004D01*
X23273Y33621D01*
X26164Y29642D01*
X29642Y26164D01*
X33621Y23273D01*
X38004Y21040D01*
X42682Y19519D01*
X47541Y18750D01*
X52459D01*
X57318Y19519D01*
X61996Y21040D01*
X66379Y23273D01*
X70358Y26164D01*
X73836Y29642D01*
X76727Y33621D01*
X78960Y38004D01*
X80480Y42682D01*
X81250Y47541D01*
Y52459D01*
X80480Y57318D01*
X78960Y61996D01*
X76727Y66379D01*
X73836Y70358D01*
X70358Y73836D01*
X66379Y76727D01*
X61996Y78960D01*
X57318Y80480D01*
X52459Y81250D01*
D02*
G37*
%LPD*%
G36*
X492918Y537066D02*
X493918Y535334D01*
X494969Y534283D01*
X494453Y532783D01*
X417152D01*
X417123Y532893D01*
X416122Y534626D01*
X415052Y535696D01*
X415517Y537128D01*
X415568Y537196D01*
X492883D01*
X492918Y537066D01*
D02*
G37*
G36*
X392400Y539536D02*
Y538999D01*
X392918Y537066D01*
X393918Y535334D01*
X395334Y533918D01*
X397066Y532918D01*
X398999Y532400D01*
X401001D01*
X401295Y532479D01*
X402520Y531254D01*
X402441Y530960D01*
Y528959D01*
X402959Y527026D01*
X403959Y525293D01*
X404948Y524304D01*
X404345Y522804D01*
X375668D01*
X375046Y524304D01*
X390900Y540158D01*
X392400Y539536D01*
D02*
G37*
D15*
X120000Y410000D02*
Y461000D01*
D36*
X50508Y380800D02*
D03*
Y330000D02*
D03*
Y431600D02*
D03*
D37*
Y279200D02*
D03*
Y533200D02*
D03*
D38*
Y482400D02*
D03*
D39*
X210000Y250000D02*
D03*
X180000Y180000D02*
D03*
X270000Y250000D02*
D03*
X150000D02*
D03*
X260000Y170000D02*
D03*
X470000Y600000D02*
D03*
X120000Y610000D02*
D03*
X290000Y560000D02*
D03*
X780000Y600000D02*
D03*
X370000Y230000D02*
D03*
X740000Y70000D02*
D03*
D40*
X205400Y121400D02*
D03*
D41*
X390000Y60000D02*
D03*
Y34600D02*
D03*
Y85400D02*
D03*
D42*
X240000Y621600D02*
D03*
Y596200D02*
D03*
Y545400D02*
D03*
Y570800D02*
D03*
D43*
X830000Y304600D02*
D03*
X590000Y350000D02*
D03*
X830000Y330000D02*
D03*
Y355400D02*
D03*
Y380800D02*
D03*
Y406200D02*
D03*
Y431600D02*
D03*
Y457000D02*
D03*
Y482400D02*
D03*
Y279200D02*
D03*
X190000Y460000D02*
D03*
D44*
Y434600D02*
D03*
X590000Y324600D02*
D03*
X830000Y253800D02*
D03*
D45*
X154600Y121400D02*
D03*
D46*
X240000Y520000D02*
D03*
D47*
X850000Y620000D02*
D03*
X50000D02*
D03*
X850000Y50000D02*
D03*
X50000D02*
D03*
D48*
X120000Y461000D02*
D03*
Y410000D02*
D03*
X790000Y320000D02*
D03*
X720000Y340000D02*
D03*
X460000Y410000D02*
D03*
X370000Y500000D02*
D03*
X350000Y420000D02*
D03*
X298250Y422050D02*
D03*
X509148Y115089D02*
D03*
X570000Y120000D02*
D03*
X650000Y170000D02*
D03*
X710000D02*
D03*
X600000Y240000D02*
D03*
X610000Y400000D02*
D03*
X480000Y300000D02*
D03*
X320000Y540000D02*
D03*
X390000Y610000D02*
D03*
X610000Y210000D02*
D03*
X260000Y490000D02*
D03*
X730000Y460000D02*
D03*
X790000Y380000D02*
D03*
X740000Y410000D02*
D03*
X700000Y350000D02*
D03*
X810000Y210000D02*
D03*
X870000Y520000D02*
D03*
X438174Y403343D02*
D03*
X640000Y560000D02*
D03*
X700000Y570000D02*
D03*
X480000Y400000D02*
D03*
X530000Y420000D02*
D03*
X475500Y374500D02*
D03*
X540000Y400000D02*
D03*
X560000Y370000D02*
D03*
X540000Y450000D02*
D03*
X488389Y568389D02*
D03*
X517761Y530000D02*
D03*
X500000Y540000D02*
D03*
X440000Y520000D02*
D03*
X410000Y560000D02*
D03*
X520000Y600000D02*
D03*
X390000Y390000D02*
D03*
X210000Y470000D02*
D03*
X350000Y440000D02*
D03*
X270000Y600000D02*
D03*
X400000Y540000D02*
D03*
X410041Y529959D02*
D03*
X640000Y430000D02*
D03*
X790000Y150000D02*
D03*
X540000Y320000D02*
D03*
X530000Y161000D02*
D03*
X770908Y540000D02*
D03*
X750000Y350000D02*
D03*
X710000Y400000D02*
D03*
X649350Y379350D02*
D03*
X610000Y470000D02*
D03*
X590000Y450000D02*
D03*
D49*
X298250Y422050D02*
X299275Y421025D01*
X348975D01*
X350000Y420000D01*
X340000Y440000D02*
Y506777D01*
X310650Y536127D02*
Y539350D01*
Y536127D02*
X340000Y506777D01*
X290000Y560000D02*
X310650Y539350D01*
X870000Y520000D02*
Y530000D01*
X860000Y540000D02*
X870000Y530000D01*
X210000Y381757D02*
X211757Y380000D01*
X310000Y390000D02*
X390000D01*
X211757Y380000D02*
X300000D01*
X310000Y390000D01*
X210000Y381757D02*
Y470000D01*
X437974Y392026D02*
X460000Y370000D01*
X437974Y392026D02*
Y403143D01*
X438174Y403343D01*
X730000Y600000D02*
X780000D01*
X700000Y570000D02*
X730000Y600000D01*
X480000Y400000D02*
X500000Y420000D01*
X530000D01*
X475500Y374500D02*
X514500D01*
X484223Y370000D02*
X560000D01*
X466777D02*
X471627Y365150D01*
X479373D01*
X484223Y370000D01*
X514500Y374500D02*
X540000Y400000D01*
X460000Y370000D02*
X466777D01*
X540000Y450000D02*
Y520984D01*
X511634Y549350D02*
X540000Y520984D01*
X494204Y549350D02*
X511634D01*
X478980Y564574D02*
X494204Y549350D01*
X478980Y564574D02*
Y587767D01*
X470000Y596747D02*
X478980Y587767D01*
X470000Y596747D02*
Y600000D01*
X488389Y568389D02*
X520000Y600000D01*
X410061Y529980D02*
X517740D01*
X517761Y530000D01*
X400000Y540000D02*
X500000D01*
X373223Y520000D02*
X440000D01*
X370000Y523223D02*
X373223Y520000D01*
X401008Y551008D02*
X410000Y560000D01*
X370000Y523223D02*
X397785Y551008D01*
X401008D01*
X219200Y550000D02*
X240000Y570800D01*
X180000Y550000D02*
X219200D01*
X120000Y610000D02*
X180000Y550000D01*
X340000Y440000D02*
X350000D01*
X270000Y600000D02*
X470000D01*
X410041Y529959D02*
X410061Y529980D01*
X649350Y379350D02*
Y433873D01*
X590000Y450000D02*
X610000Y430000D01*
X632215Y451008D02*
X649350Y433873D01*
X610000Y430000D02*
X640000D01*
X628992Y451008D02*
X632215D01*
X770908Y540000D02*
X860000D01*
X750000Y350000D02*
Y360000D01*
X710000Y400000D02*
X750000Y360000D01*
X610000Y470000D02*
X628992Y451008D01*
D50*
X810000Y210000D02*
Y259200D01*
X830000Y279200D01*
X640000Y560000D02*
X650000D01*
X659200Y550800D01*
Y375270D02*
Y550800D01*
X636790Y352860D02*
X659200Y375270D01*
X618260Y352860D02*
X636790D01*
X590000Y324600D02*
X618260Y352860D01*
X585400Y320000D02*
X590000Y324600D01*
X540000Y320000D02*
X585400D01*
X830000Y230000D02*
Y253800D01*
Y230000D02*
X850000Y210000D01*
X790000Y150000D02*
X850000Y210000D01*
X540000Y171000D02*
Y320000D01*
X530000Y161000D02*
X540000Y171000D01*
M02*
